M48
;DRILL file {kicad (2015-01-16 BZR 5376)-product} date 7/15/2015 11:03:40 AM
;FORMAT={-:-/ absolute / metric / decimal}
FMAT,2
METRIC,TZ
T1C0.762
T2C0.813
T3C1.016
T4C2.000
%
G90
G05
M71
T1
X119.888Y-45.72
X120.904Y-54.102
X120.904Y-67.564
X125.984Y-59.944
X127.762Y-53.848
X128.778Y-63.5
X129.54Y-54.864
X134.112Y-72.39
T2
X123.444Y-78.232
X128.524Y-78.232
T3
X114.3Y-48.26
X114.3Y-50.8
X114.3Y-53.34
X114.3Y-55.88
X114.3Y-58.42
X114.3Y-60.96
X114.3Y-63.5
X114.3Y-66.04
X114.3Y-68.58
X114.3Y-71.12
X114.3Y-73.66
X114.3Y-76.2
X114.3Y-78.74
X117.856Y-42.926
X120.396Y-42.926
X122.936Y-42.926
X125.476Y-42.926
X128.016Y-42.926
X130.556Y-42.926
X133.096Y-42.926
X137.16Y-48.26
X137.16Y-50.8
X137.16Y-53.34
X137.16Y-55.88
X137.16Y-58.42
X137.16Y-60.96
X137.16Y-63.5
X137.16Y-66.04
X137.16Y-68.58
X137.16Y-71.12
X137.16Y-73.66
X137.16Y-76.2
X137.16Y-78.74
T4
X114.3Y-43.18
X114.3Y-82.55
X136.906Y-43.18
X136.906Y-82.55
T0
M30
