G04 #@! TF.FileFunction,Copper,L2,Bot,Signal*
%FSLAX46Y46*%
G04 Gerber Fmt 4.6, Leading zero omitted, Abs format (unit mm)*
G04 Created by KiCad (PCBNEW (2015-01-16 BZR 5376)-product) date 7/15/2015 11:03:25 AM*
%MOMM*%
G01*
G04 APERTURE LIST*
%ADD10C,0.100000*%
%ADD11C,0.254000*%
%ADD12C,0.200000*%
%ADD13C,2.000000*%
%ADD14R,1.250000X1.500000*%
%ADD15R,1.500000X1.250000*%
%ADD16R,1.501140X2.148840*%
%ADD17R,2.032000X1.727200*%
%ADD18O,2.032000X1.727200*%
%ADD19R,1.422400X1.168400*%
%ADD20R,1.168400X1.422400*%
%ADD21R,1.200000X0.900000*%
%ADD22R,0.900000X1.200000*%
%ADD23C,1.651000*%
%ADD24R,2.032000X3.657600*%
%ADD25R,2.032000X1.016000*%
%ADD26R,1.727200X2.032000*%
%ADD27O,1.727200X2.032000*%
%ADD28C,1.143000*%
%ADD29C,0.762000*%
%ADD30C,0.350000*%
%ADD31C,0.635000*%
%ADD32C,0.508000*%
%ADD33C,0.381000*%
G04 APERTURE END LIST*
D10*
D11*
X133954761Y-82731429D02*
X133616095Y-82731429D01*
X133470952Y-83263619D02*
X133954761Y-83263619D01*
X133954761Y-82247619D01*
X133470952Y-82247619D01*
X133132285Y-83263619D02*
X132600095Y-82586286D01*
X133132285Y-82586286D02*
X132600095Y-83263619D01*
X132213047Y-82586286D02*
X132213047Y-83602286D01*
X132213047Y-82634667D02*
X132116285Y-82586286D01*
X131922762Y-82586286D01*
X131826000Y-82634667D01*
X131777619Y-82683048D01*
X131729238Y-82779810D01*
X131729238Y-83070095D01*
X131777619Y-83166857D01*
X131826000Y-83215238D01*
X131922762Y-83263619D01*
X132116285Y-83263619D01*
X132213047Y-83215238D01*
X131148666Y-83263619D02*
X131245428Y-83215238D01*
X131293809Y-83118476D01*
X131293809Y-82247619D01*
X130616476Y-83263619D02*
X130713238Y-83215238D01*
X130761619Y-83166857D01*
X130810000Y-83070095D01*
X130810000Y-82779810D01*
X130761619Y-82683048D01*
X130713238Y-82634667D01*
X130616476Y-82586286D01*
X130471334Y-82586286D01*
X130374572Y-82634667D01*
X130326191Y-82683048D01*
X130277810Y-82779810D01*
X130277810Y-83070095D01*
X130326191Y-83166857D01*
X130374572Y-83215238D01*
X130471334Y-83263619D01*
X130616476Y-83263619D01*
X129842381Y-83263619D02*
X129842381Y-82586286D01*
X129842381Y-82779810D02*
X129794000Y-82683048D01*
X129745619Y-82634667D01*
X129648857Y-82586286D01*
X129552096Y-82586286D01*
X128826382Y-83215238D02*
X128923144Y-83263619D01*
X129116667Y-83263619D01*
X129213429Y-83215238D01*
X129261810Y-83118476D01*
X129261810Y-82731429D01*
X129213429Y-82634667D01*
X129116667Y-82586286D01*
X128923144Y-82586286D01*
X128826382Y-82634667D01*
X128778001Y-82731429D01*
X128778001Y-82828190D01*
X129261810Y-82924952D01*
X128342572Y-82731429D02*
X128003906Y-82731429D01*
X127858763Y-83263619D02*
X128342572Y-83263619D01*
X128342572Y-82247619D01*
X127858763Y-82247619D01*
X127423334Y-83263619D02*
X127423334Y-82586286D01*
X127423334Y-82683048D02*
X127374953Y-82634667D01*
X127278191Y-82586286D01*
X127133049Y-82586286D01*
X127036287Y-82634667D01*
X126987906Y-82731429D01*
X126987906Y-83263619D01*
X126987906Y-82731429D02*
X126939525Y-82634667D01*
X126842763Y-82586286D01*
X126697620Y-82586286D01*
X126600858Y-82634667D01*
X126552477Y-82731429D01*
X126552477Y-83263619D01*
X126068667Y-83263619D02*
X126068667Y-82247619D01*
X126068667Y-82634667D02*
X125971905Y-82586286D01*
X125778382Y-82586286D01*
X125681620Y-82634667D01*
X125633239Y-82683048D01*
X125584858Y-82779810D01*
X125584858Y-83070095D01*
X125633239Y-83166857D01*
X125681620Y-83215238D01*
X125778382Y-83263619D01*
X125971905Y-83263619D01*
X126068667Y-83215238D01*
X124762382Y-83215238D02*
X124859144Y-83263619D01*
X125052667Y-83263619D01*
X125149429Y-83215238D01*
X125197810Y-83118476D01*
X125197810Y-82731429D01*
X125149429Y-82634667D01*
X125052667Y-82586286D01*
X124859144Y-82586286D01*
X124762382Y-82634667D01*
X124714001Y-82731429D01*
X124714001Y-82828190D01*
X125197810Y-82924952D01*
X123843144Y-83263619D02*
X123843144Y-82247619D01*
X123843144Y-83215238D02*
X123939906Y-83263619D01*
X124133429Y-83263619D01*
X124230191Y-83215238D01*
X124278572Y-83166857D01*
X124326953Y-83070095D01*
X124326953Y-82779810D01*
X124278572Y-82683048D01*
X124230191Y-82634667D01*
X124133429Y-82586286D01*
X123939906Y-82586286D01*
X123843144Y-82634667D01*
X122923906Y-83263619D02*
X122923906Y-82247619D01*
X122923906Y-83215238D02*
X123020668Y-83263619D01*
X123214191Y-83263619D01*
X123310953Y-83215238D01*
X123359334Y-83166857D01*
X123407715Y-83070095D01*
X123407715Y-82779810D01*
X123359334Y-82683048D01*
X123310953Y-82634667D01*
X123214191Y-82586286D01*
X123020668Y-82586286D01*
X122923906Y-82634667D01*
X122053049Y-83215238D02*
X122149811Y-83263619D01*
X122343334Y-83263619D01*
X122440096Y-83215238D01*
X122488477Y-83118476D01*
X122488477Y-82731429D01*
X122440096Y-82634667D01*
X122343334Y-82586286D01*
X122149811Y-82586286D01*
X122053049Y-82634667D01*
X122004668Y-82731429D01*
X122004668Y-82828190D01*
X122488477Y-82924952D01*
X121133811Y-83263619D02*
X121133811Y-82247619D01*
X121133811Y-83215238D02*
X121230573Y-83263619D01*
X121424096Y-83263619D01*
X121520858Y-83215238D01*
X121569239Y-83166857D01*
X121617620Y-83070095D01*
X121617620Y-82779810D01*
X121569239Y-82683048D01*
X121520858Y-82634667D01*
X121424096Y-82586286D01*
X121230573Y-82586286D01*
X121133811Y-82634667D01*
X120650001Y-83166857D02*
X120601620Y-83215238D01*
X120650001Y-83263619D01*
X120698382Y-83215238D01*
X120650001Y-83166857D01*
X120650001Y-83263619D01*
X119730763Y-83215238D02*
X119827525Y-83263619D01*
X120021048Y-83263619D01*
X120117810Y-83215238D01*
X120166191Y-83166857D01*
X120214572Y-83070095D01*
X120214572Y-82779810D01*
X120166191Y-82683048D01*
X120117810Y-82634667D01*
X120021048Y-82586286D01*
X119827525Y-82586286D01*
X119730763Y-82634667D01*
X119150191Y-83263619D02*
X119246953Y-83215238D01*
X119295334Y-83166857D01*
X119343715Y-83070095D01*
X119343715Y-82779810D01*
X119295334Y-82683048D01*
X119246953Y-82634667D01*
X119150191Y-82586286D01*
X119005049Y-82586286D01*
X118908287Y-82634667D01*
X118859906Y-82683048D01*
X118811525Y-82779810D01*
X118811525Y-83070095D01*
X118859906Y-83166857D01*
X118908287Y-83215238D01*
X119005049Y-83263619D01*
X119150191Y-83263619D01*
X118376096Y-83263619D02*
X118376096Y-82586286D01*
X118376096Y-82683048D02*
X118327715Y-82634667D01*
X118230953Y-82586286D01*
X118085811Y-82586286D01*
X117989049Y-82634667D01*
X117940668Y-82731429D01*
X117940668Y-83263619D01*
X117940668Y-82731429D02*
X117892287Y-82634667D01*
X117795525Y-82586286D01*
X117650382Y-82586286D01*
X117553620Y-82634667D01*
X117505239Y-82731429D01*
X117505239Y-83263619D01*
D12*
X138938000Y-84582000D02*
X138938000Y-81280000D01*
X112522000Y-84582000D02*
X138938000Y-84582000D01*
X112522000Y-81280000D02*
X112522000Y-84582000D01*
X120840286Y-81430762D02*
X120697429Y-81478381D01*
X120459333Y-81478381D01*
X120364095Y-81430762D01*
X120316476Y-81383143D01*
X120268857Y-81287905D01*
X120268857Y-81192667D01*
X120316476Y-81097429D01*
X120364095Y-81049810D01*
X120459333Y-81002190D01*
X120649810Y-80954571D01*
X120745048Y-80906952D01*
X120792667Y-80859333D01*
X120840286Y-80764095D01*
X120840286Y-80668857D01*
X120792667Y-80573619D01*
X120745048Y-80526000D01*
X120649810Y-80478381D01*
X120411714Y-80478381D01*
X120268857Y-80526000D01*
X119649810Y-80478381D02*
X119459333Y-80478381D01*
X119364095Y-80526000D01*
X119268857Y-80621238D01*
X119221238Y-80811714D01*
X119221238Y-81145048D01*
X119268857Y-81335524D01*
X119364095Y-81430762D01*
X119459333Y-81478381D01*
X119649810Y-81478381D01*
X119745048Y-81430762D01*
X119840286Y-81335524D01*
X119887905Y-81145048D01*
X119887905Y-80811714D01*
X119840286Y-80621238D01*
X119745048Y-80526000D01*
X119649810Y-80478381D01*
X118316476Y-81478381D02*
X118792667Y-81478381D01*
X118792667Y-80478381D01*
X117983143Y-81478381D02*
X117983143Y-80478381D01*
X117745048Y-80478381D01*
X117602190Y-80526000D01*
X117506952Y-80621238D01*
X117459333Y-80716476D01*
X117411714Y-80906952D01*
X117411714Y-81049810D01*
X117459333Y-81240286D01*
X117506952Y-81335524D01*
X117602190Y-81430762D01*
X117745048Y-81478381D01*
X117983143Y-81478381D01*
X138938000Y-41148000D02*
X112522000Y-41148000D01*
X138938000Y-81280000D02*
X138938000Y-41148000D01*
X112522000Y-41148000D02*
X112522000Y-81280000D01*
D13*
X136906000Y-43180000D03*
X114300000Y-43180000D03*
X114300000Y-82550000D03*
X136906000Y-82550000D03*
D14*
X118618000Y-58908000D03*
X118618000Y-56408000D03*
D15*
X127234000Y-68580000D03*
X124734000Y-68580000D03*
D16*
X132588000Y-51285140D03*
X132588000Y-48282860D03*
X119634000Y-51285140D03*
X119634000Y-48282860D03*
D17*
X137160000Y-48260000D03*
D18*
X137160000Y-50800000D03*
X137160000Y-53340000D03*
X137160000Y-55880000D03*
X137160000Y-58420000D03*
X137160000Y-60960000D03*
X137160000Y-63500000D03*
X137160000Y-66040000D03*
X137160000Y-68580000D03*
X137160000Y-71120000D03*
X137160000Y-73660000D03*
X137160000Y-76200000D03*
X137160000Y-78740000D03*
D17*
X114300000Y-48260000D03*
D18*
X114300000Y-50800000D03*
X114300000Y-53340000D03*
X114300000Y-55880000D03*
X114300000Y-58420000D03*
X114300000Y-60960000D03*
X114300000Y-63500000D03*
X114300000Y-66040000D03*
X114300000Y-68580000D03*
X114300000Y-71120000D03*
X114300000Y-73660000D03*
X114300000Y-76200000D03*
X114300000Y-78740000D03*
D19*
X121920000Y-56515000D03*
X121920000Y-58293000D03*
X124460000Y-57404000D03*
D20*
X124841000Y-66040000D03*
X126619000Y-66040000D03*
X125730000Y-63500000D03*
D21*
X129370000Y-57404000D03*
X127170000Y-57404000D03*
X130386000Y-61468000D03*
X128186000Y-61468000D03*
D22*
X130302000Y-69680000D03*
X130302000Y-67480000D03*
X131826000Y-57320000D03*
X131826000Y-59520000D03*
D23*
X128524000Y-78232000D03*
X123444000Y-78232000D03*
D24*
X129540000Y-49022000D03*
D25*
X122936000Y-49022000D03*
X122936000Y-46736000D03*
X122936000Y-51308000D03*
D26*
X117856000Y-42926000D03*
D27*
X120396000Y-42926000D03*
X122936000Y-42926000D03*
X125476000Y-42926000D03*
X128016000Y-42926000D03*
X130556000Y-42926000D03*
X133096000Y-42926000D03*
D28*
X134112000Y-72390000D03*
X129540000Y-54864000D03*
X120904000Y-67564000D03*
X119888000Y-45720000D03*
X125984000Y-59944000D03*
X128778000Y-63500000D03*
X120904000Y-54102000D03*
X127762000Y-53848000D03*
D29*
X122936000Y-51308000D02*
X119656860Y-51308000D01*
D30*
X119656860Y-51308000D02*
X119634000Y-51285140D01*
D29*
X116332000Y-50800000D02*
X114300000Y-50800000D01*
D30*
X116817140Y-51285140D02*
X116332000Y-50800000D01*
X130302000Y-69680000D02*
X132926000Y-69680000D01*
X121813000Y-56408000D02*
X121920000Y-56515000D01*
X118618000Y-56408000D02*
X121813000Y-56408000D01*
X124841000Y-68473000D02*
X124734000Y-68580000D01*
D31*
X124841000Y-66040000D02*
X124841000Y-68473000D01*
D30*
X129624000Y-69680000D02*
X128778000Y-68834000D01*
X128778000Y-68834000D02*
X128778000Y-66480084D01*
X128778000Y-66480084D02*
X131250084Y-64008000D01*
X131250084Y-64008000D02*
X133096000Y-64008000D01*
X133096000Y-64008000D02*
X133350000Y-63754000D01*
D32*
X130302000Y-69680000D02*
X129624000Y-69680000D01*
D33*
X121920000Y-56134000D02*
X121920000Y-56515000D01*
D31*
X129540000Y-54864000D02*
X129032000Y-55372000D01*
X129032000Y-55372000D02*
X122682000Y-55372000D01*
X122682000Y-55372000D02*
X121920000Y-56134000D01*
D29*
X116332000Y-50800000D02*
X114300000Y-50800000D01*
X116817140Y-51285140D02*
X116332000Y-50800000D01*
X119634000Y-51285140D02*
X116817140Y-51285140D01*
X118618000Y-53848000D02*
X119634000Y-52832000D01*
X119634000Y-52832000D02*
X119634000Y-51285140D01*
X118618000Y-56408000D02*
X118618000Y-53848000D01*
X118725000Y-56515000D02*
X118618000Y-56408000D01*
X121920000Y-56515000D02*
X118725000Y-56515000D01*
X132926000Y-69680000D02*
X130302000Y-69680000D01*
X134112000Y-70866000D02*
X132926000Y-69680000D01*
X134112000Y-72390000D02*
X134112000Y-70866000D01*
D31*
X124734000Y-70378000D02*
X126746000Y-72390000D01*
X126746000Y-72390000D02*
X134112000Y-72390000D01*
X124734000Y-68580000D02*
X124734000Y-70378000D01*
X134366000Y-50800000D02*
X133880860Y-51285140D01*
X133880860Y-51285140D02*
X132588000Y-51285140D01*
X137160000Y-50800000D02*
X134366000Y-50800000D01*
X135890000Y-50800000D02*
X134112000Y-52578000D01*
X134112000Y-52578000D02*
X134112000Y-62992000D01*
X134112000Y-62992000D02*
X133350000Y-63754000D01*
X137160000Y-50800000D02*
X135890000Y-50800000D01*
D29*
X132334000Y-78232000D02*
X133350000Y-77216000D01*
X134112000Y-76454000D02*
X134112000Y-72390000D01*
X133350000Y-77216000D02*
X134112000Y-76454000D01*
X128524000Y-78232000D02*
X132334000Y-78232000D01*
D30*
X130386000Y-63670000D02*
X130386000Y-61468000D01*
X128016000Y-66040000D02*
X130386000Y-63670000D01*
X126619000Y-66040000D02*
X128016000Y-66040000D01*
D31*
X127234000Y-66655000D02*
X126619000Y-66040000D01*
X127234000Y-68580000D02*
X127234000Y-66655000D01*
D30*
X132588000Y-48282860D02*
X137137140Y-48282860D01*
X137137140Y-48282860D02*
X137160000Y-48260000D01*
D31*
X122936000Y-42926000D02*
X122936000Y-46736000D01*
X124206000Y-46736000D02*
X124968000Y-45974000D01*
X124968000Y-45974000D02*
X131826000Y-45974000D01*
X131826000Y-45974000D02*
X132588000Y-46736000D01*
X132588000Y-46736000D02*
X132588000Y-48282860D01*
X122936000Y-46736000D02*
X124206000Y-46736000D01*
X132610860Y-48260000D02*
X132588000Y-48282860D01*
X137160000Y-48260000D02*
X132610860Y-48260000D01*
D30*
X114322860Y-48282860D02*
X114300000Y-48260000D01*
X114322860Y-48282860D02*
X114300000Y-48260000D01*
X131742000Y-57404000D02*
X131826000Y-57320000D01*
D31*
X129370000Y-57404000D02*
X131742000Y-57404000D01*
D33*
X124460000Y-49022000D02*
X122936000Y-49022000D01*
X129370000Y-57404000D02*
X129370000Y-56980000D01*
D31*
X124460000Y-49022000D02*
X122936000Y-49022000D01*
X131826000Y-54864000D02*
X129286000Y-52324000D01*
X129286000Y-52324000D02*
X127762000Y-52324000D01*
X127762000Y-52324000D02*
X124460000Y-49022000D01*
X131826000Y-57320000D02*
X131826000Y-54864000D01*
D29*
X120418860Y-48282860D02*
X119634000Y-48282860D01*
X121158000Y-49022000D02*
X120418860Y-48282860D01*
X122936000Y-49022000D02*
X121158000Y-49022000D01*
D32*
X117348000Y-71120000D02*
X120904000Y-67564000D01*
X119888000Y-45720000D02*
X119634000Y-45974000D01*
X119634000Y-45974000D02*
X119634000Y-48282860D01*
X114300000Y-71120000D02*
X117348000Y-71120000D01*
X114322860Y-48282860D02*
X114300000Y-48260000D01*
D31*
X114322860Y-48282860D02*
X114300000Y-48260000D01*
X119634000Y-48282860D02*
X114322860Y-48282860D01*
D32*
X130302000Y-67480000D02*
X136060000Y-67480000D01*
X136060000Y-67480000D02*
X137160000Y-68580000D01*
X126408000Y-59520000D02*
X125984000Y-59944000D01*
X131826000Y-59520000D02*
X126408000Y-59520000D01*
D31*
X125730000Y-63500000D02*
X128778000Y-63500000D01*
X124968000Y-61468000D02*
X124460000Y-60960000D01*
X124460000Y-60960000D02*
X124460000Y-57404000D01*
X128186000Y-61468000D02*
X124968000Y-61468000D01*
X125476000Y-57404000D02*
X124460000Y-57404000D01*
X127170000Y-57404000D02*
X125476000Y-57404000D01*
X116078000Y-53340000D02*
X114300000Y-53340000D01*
X116586000Y-53848000D02*
X116078000Y-53340000D01*
X116586000Y-58420000D02*
X116586000Y-53848000D01*
X117074000Y-58908000D02*
X116586000Y-58420000D01*
X118618000Y-58908000D02*
X117074000Y-58908000D01*
D29*
X121305000Y-58908000D02*
X121920000Y-58293000D01*
X118618000Y-58908000D02*
X121305000Y-58908000D01*
X122174000Y-58547000D02*
X121920000Y-58293000D01*
D31*
X122428000Y-58801000D02*
X121920000Y-58293000D01*
X123444000Y-71120000D02*
X122428000Y-70104000D01*
X122428000Y-70104000D02*
X122428000Y-58801000D01*
D32*
X121158000Y-53848000D02*
X120904000Y-54102000D01*
X127762000Y-53848000D02*
X121158000Y-53848000D01*
D29*
X123444000Y-71120000D02*
X122428000Y-70104000D01*
X123444000Y-78232000D02*
X123444000Y-71120000D01*
D11*
G36*
X119914267Y-44513522D02*
X119649065Y-44513291D01*
X119205465Y-44696582D01*
X118865775Y-45035680D01*
X118681710Y-45478959D01*
X118681291Y-45958935D01*
X118745000Y-46113123D01*
X118745000Y-46587858D01*
X118641307Y-46607977D01*
X118428503Y-46747767D01*
X118286053Y-46958800D01*
X118235990Y-47208440D01*
X118235990Y-47330360D01*
X117729000Y-47330360D01*
X117729000Y-44418250D01*
X117729000Y-43053000D01*
X116516150Y-43053000D01*
X116357400Y-43211750D01*
X116357400Y-44068309D01*
X116454073Y-44301698D01*
X116632701Y-44480327D01*
X116866090Y-44577000D01*
X117118709Y-44577000D01*
X117570250Y-44577000D01*
X117729000Y-44418250D01*
X117729000Y-47330360D01*
X115950626Y-47330360D01*
X115916463Y-47154277D01*
X115776673Y-46941473D01*
X115565640Y-46799023D01*
X115316000Y-46748960D01*
X113284000Y-46748960D01*
X113257000Y-46754198D01*
X113257000Y-44449438D01*
X113372637Y-44565278D01*
X113973352Y-44814716D01*
X114623795Y-44815284D01*
X115224943Y-44566894D01*
X115685278Y-44107363D01*
X115934716Y-43506648D01*
X115935284Y-42856205D01*
X115686894Y-42255057D01*
X115315486Y-41883000D01*
X116357400Y-41883000D01*
X116357400Y-42640250D01*
X116516150Y-42799000D01*
X117729000Y-42799000D01*
X117729000Y-42779000D01*
X117983000Y-42779000D01*
X117983000Y-42799000D01*
X118003000Y-42799000D01*
X118003000Y-43053000D01*
X117983000Y-43053000D01*
X117983000Y-44418250D01*
X118141750Y-44577000D01*
X118593291Y-44577000D01*
X118845910Y-44577000D01*
X119079299Y-44480327D01*
X119257927Y-44301698D01*
X119321499Y-44148219D01*
X119336330Y-44170415D01*
X119822511Y-44495271D01*
X119914267Y-44513522D01*
X119914267Y-44513522D01*
G37*
X119914267Y-44513522D02*
X119649065Y-44513291D01*
X119205465Y-44696582D01*
X118865775Y-45035680D01*
X118681710Y-45478959D01*
X118681291Y-45958935D01*
X118745000Y-46113123D01*
X118745000Y-46587858D01*
X118641307Y-46607977D01*
X118428503Y-46747767D01*
X118286053Y-46958800D01*
X118235990Y-47208440D01*
X118235990Y-47330360D01*
X117729000Y-47330360D01*
X117729000Y-44418250D01*
X117729000Y-43053000D01*
X116516150Y-43053000D01*
X116357400Y-43211750D01*
X116357400Y-44068309D01*
X116454073Y-44301698D01*
X116632701Y-44480327D01*
X116866090Y-44577000D01*
X117118709Y-44577000D01*
X117570250Y-44577000D01*
X117729000Y-44418250D01*
X117729000Y-47330360D01*
X115950626Y-47330360D01*
X115916463Y-47154277D01*
X115776673Y-46941473D01*
X115565640Y-46799023D01*
X115316000Y-46748960D01*
X113284000Y-46748960D01*
X113257000Y-46754198D01*
X113257000Y-44449438D01*
X113372637Y-44565278D01*
X113973352Y-44814716D01*
X114623795Y-44815284D01*
X115224943Y-44566894D01*
X115685278Y-44107363D01*
X115934716Y-43506648D01*
X115935284Y-42856205D01*
X115686894Y-42255057D01*
X115315486Y-41883000D01*
X116357400Y-41883000D01*
X116357400Y-42640250D01*
X116516150Y-42799000D01*
X117729000Y-42799000D01*
X117729000Y-42779000D01*
X117983000Y-42779000D01*
X117983000Y-42799000D01*
X118003000Y-42799000D01*
X118003000Y-43053000D01*
X117983000Y-43053000D01*
X117983000Y-44418250D01*
X118141750Y-44577000D01*
X118593291Y-44577000D01*
X118845910Y-44577000D01*
X119079299Y-44480327D01*
X119257927Y-44301698D01*
X119321499Y-44148219D01*
X119336330Y-44170415D01*
X119822511Y-44495271D01*
X119914267Y-44513522D01*
G36*
X130873500Y-56329804D02*
X130791353Y-56451500D01*
X130360195Y-56451500D01*
X130219640Y-56356623D01*
X129970000Y-56306560D01*
X129819436Y-56306560D01*
X129685905Y-56217337D01*
X129370000Y-56154500D01*
X129054095Y-56217337D01*
X128920563Y-56306560D01*
X128770000Y-56306560D01*
X128527877Y-56353537D01*
X128315073Y-56493327D01*
X128270386Y-56559528D01*
X128230673Y-56499073D01*
X128019640Y-56356623D01*
X127770000Y-56306560D01*
X126570000Y-56306560D01*
X126327877Y-56353537D01*
X126178746Y-56451500D01*
X125688777Y-56451500D01*
X125631873Y-56364873D01*
X125420840Y-56222423D01*
X125171200Y-56172360D01*
X123748800Y-56172360D01*
X123506677Y-56219337D01*
X123293873Y-56359127D01*
X123266200Y-56400123D01*
X123266200Y-56387998D01*
X123107452Y-56387998D01*
X123266200Y-56229250D01*
X123266200Y-55804491D01*
X123169527Y-55571102D01*
X122990899Y-55392473D01*
X122757510Y-55295800D01*
X122504891Y-55295800D01*
X122205750Y-55295800D01*
X122047000Y-55454550D01*
X122047000Y-56388000D01*
X122067000Y-56388000D01*
X122067000Y-56642000D01*
X122047000Y-56642000D01*
X122047000Y-56662000D01*
X121793000Y-56662000D01*
X121793000Y-56642000D01*
X120732550Y-56642000D01*
X120573800Y-56800750D01*
X120573800Y-57225509D01*
X120648084Y-57404847D01*
X120611423Y-57459160D01*
X120561360Y-57708800D01*
X120561360Y-57892000D01*
X119827778Y-57892000D01*
X119703673Y-57703073D01*
X119639362Y-57659662D01*
X119781327Y-57517698D01*
X119878000Y-57284309D01*
X119878000Y-56693750D01*
X119878000Y-56122250D01*
X119878000Y-55531691D01*
X119781327Y-55298302D01*
X119602699Y-55119673D01*
X119507000Y-55080033D01*
X119507000Y-52835810D01*
X119507000Y-51412140D01*
X118407180Y-51412140D01*
X118248430Y-51570890D01*
X118248430Y-52485869D01*
X118345103Y-52719258D01*
X118523731Y-52897887D01*
X118757120Y-52994560D01*
X119009739Y-52994560D01*
X119348250Y-52994560D01*
X119507000Y-52835810D01*
X119507000Y-55080033D01*
X119369310Y-55023000D01*
X119116691Y-55023000D01*
X118903750Y-55023000D01*
X118745000Y-55181750D01*
X118745000Y-56281000D01*
X119719250Y-56281000D01*
X119878000Y-56122250D01*
X119878000Y-56693750D01*
X119719250Y-56535000D01*
X118745000Y-56535000D01*
X118745000Y-56555000D01*
X118491000Y-56555000D01*
X118491000Y-56535000D01*
X118471000Y-56535000D01*
X118471000Y-56281000D01*
X118491000Y-56281000D01*
X118491000Y-55181750D01*
X118332250Y-55023000D01*
X118119309Y-55023000D01*
X117866690Y-55023000D01*
X117633301Y-55119673D01*
X117538500Y-55214474D01*
X117538500Y-53848000D01*
X117465995Y-53483494D01*
X117259519Y-53174481D01*
X117259519Y-53174480D01*
X116751519Y-52666481D01*
X116442506Y-52460005D01*
X116078000Y-52387500D01*
X115616023Y-52387500D01*
X115544415Y-52280330D01*
X115234930Y-52073539D01*
X115650732Y-51702036D01*
X115904709Y-51174791D01*
X115907358Y-51159026D01*
X115786217Y-50927000D01*
X114427000Y-50927000D01*
X114427000Y-50947000D01*
X114173000Y-50947000D01*
X114173000Y-50927000D01*
X114153000Y-50927000D01*
X114153000Y-50673000D01*
X114173000Y-50673000D01*
X114173000Y-50653000D01*
X114427000Y-50653000D01*
X114427000Y-50673000D01*
X115786217Y-50673000D01*
X115907358Y-50440974D01*
X115904709Y-50425209D01*
X115650732Y-49897964D01*
X115474298Y-49740326D01*
X115558123Y-49724063D01*
X115770927Y-49584273D01*
X115913377Y-49373240D01*
X115941027Y-49235360D01*
X118235990Y-49235360D01*
X118235990Y-49357280D01*
X118282967Y-49599403D01*
X118407358Y-49788765D01*
X118345103Y-49851022D01*
X118248430Y-50084411D01*
X118248430Y-50999390D01*
X118407180Y-51158140D01*
X119507000Y-51158140D01*
X119507000Y-51138140D01*
X119761000Y-51138140D01*
X119761000Y-51158140D01*
X120860820Y-51158140D01*
X121019570Y-50999390D01*
X121019570Y-50084411D01*
X120986190Y-50003825D01*
X121158000Y-50038000D01*
X121537952Y-50038000D01*
X121670360Y-50127377D01*
X121857967Y-50165000D01*
X121793690Y-50165000D01*
X121560301Y-50261673D01*
X121381673Y-50440302D01*
X121285000Y-50673691D01*
X121285000Y-51022250D01*
X121443750Y-51181000D01*
X122809000Y-51181000D01*
X122809000Y-51161000D01*
X123063000Y-51161000D01*
X123063000Y-51181000D01*
X124428250Y-51181000D01*
X124587000Y-51022250D01*
X124587000Y-50673691D01*
X124490327Y-50440302D01*
X124311699Y-50261673D01*
X124078310Y-50165000D01*
X124016116Y-50165000D01*
X124194123Y-50130463D01*
X124210600Y-50119638D01*
X126997433Y-52906471D01*
X126944812Y-52959000D01*
X124587000Y-52959000D01*
X124587000Y-51942309D01*
X124587000Y-51593750D01*
X124428250Y-51435000D01*
X123063000Y-51435000D01*
X123063000Y-52292250D01*
X123221750Y-52451000D01*
X123825691Y-52451000D01*
X124078310Y-52451000D01*
X124311699Y-52354327D01*
X124490327Y-52175698D01*
X124587000Y-51942309D01*
X124587000Y-52959000D01*
X122809000Y-52959000D01*
X122809000Y-52292250D01*
X122809000Y-51435000D01*
X121443750Y-51435000D01*
X121285000Y-51593750D01*
X121285000Y-51942309D01*
X121381673Y-52175698D01*
X121560301Y-52354327D01*
X121793690Y-52451000D01*
X122046309Y-52451000D01*
X122650250Y-52451000D01*
X122809000Y-52292250D01*
X122809000Y-52959000D01*
X121297460Y-52959000D01*
X121145041Y-52895710D01*
X120746793Y-52895362D01*
X120922897Y-52719258D01*
X121019570Y-52485869D01*
X121019570Y-51570890D01*
X120860820Y-51412140D01*
X119761000Y-51412140D01*
X119761000Y-52835810D01*
X119919750Y-52994560D01*
X120258261Y-52994560D01*
X120424814Y-52994560D01*
X120221465Y-53078582D01*
X119881775Y-53417680D01*
X119697710Y-53860959D01*
X119697291Y-54340935D01*
X119880582Y-54784535D01*
X120219680Y-55124225D01*
X120662959Y-55308290D01*
X121051517Y-55308629D01*
X120849101Y-55392473D01*
X120670473Y-55571102D01*
X120573800Y-55804491D01*
X120573800Y-56229250D01*
X120732550Y-56388000D01*
X121793000Y-56388000D01*
X121793000Y-55454550D01*
X121634250Y-55295800D01*
X121335109Y-55295800D01*
X121174177Y-55295800D01*
X121586535Y-55125418D01*
X121926225Y-54786320D01*
X121946704Y-54737000D01*
X126944687Y-54737000D01*
X127077680Y-54870225D01*
X127520959Y-55054290D01*
X128000935Y-55054709D01*
X128444535Y-54871418D01*
X128784225Y-54532320D01*
X128968290Y-54089041D01*
X128968709Y-53609065D01*
X128831296Y-53276500D01*
X128891461Y-53276500D01*
X130873500Y-55258538D01*
X130873500Y-56329804D01*
X130873500Y-56329804D01*
G37*
X130873500Y-56329804D02*
X130791353Y-56451500D01*
X130360195Y-56451500D01*
X130219640Y-56356623D01*
X129970000Y-56306560D01*
X129819436Y-56306560D01*
X129685905Y-56217337D01*
X129370000Y-56154500D01*
X129054095Y-56217337D01*
X128920563Y-56306560D01*
X128770000Y-56306560D01*
X128527877Y-56353537D01*
X128315073Y-56493327D01*
X128270386Y-56559528D01*
X128230673Y-56499073D01*
X128019640Y-56356623D01*
X127770000Y-56306560D01*
X126570000Y-56306560D01*
X126327877Y-56353537D01*
X126178746Y-56451500D01*
X125688777Y-56451500D01*
X125631873Y-56364873D01*
X125420840Y-56222423D01*
X125171200Y-56172360D01*
X123748800Y-56172360D01*
X123506677Y-56219337D01*
X123293873Y-56359127D01*
X123266200Y-56400123D01*
X123266200Y-56387998D01*
X123107452Y-56387998D01*
X123266200Y-56229250D01*
X123266200Y-55804491D01*
X123169527Y-55571102D01*
X122990899Y-55392473D01*
X122757510Y-55295800D01*
X122504891Y-55295800D01*
X122205750Y-55295800D01*
X122047000Y-55454550D01*
X122047000Y-56388000D01*
X122067000Y-56388000D01*
X122067000Y-56642000D01*
X122047000Y-56642000D01*
X122047000Y-56662000D01*
X121793000Y-56662000D01*
X121793000Y-56642000D01*
X120732550Y-56642000D01*
X120573800Y-56800750D01*
X120573800Y-57225509D01*
X120648084Y-57404847D01*
X120611423Y-57459160D01*
X120561360Y-57708800D01*
X120561360Y-57892000D01*
X119827778Y-57892000D01*
X119703673Y-57703073D01*
X119639362Y-57659662D01*
X119781327Y-57517698D01*
X119878000Y-57284309D01*
X119878000Y-56693750D01*
X119878000Y-56122250D01*
X119878000Y-55531691D01*
X119781327Y-55298302D01*
X119602699Y-55119673D01*
X119507000Y-55080033D01*
X119507000Y-52835810D01*
X119507000Y-51412140D01*
X118407180Y-51412140D01*
X118248430Y-51570890D01*
X118248430Y-52485869D01*
X118345103Y-52719258D01*
X118523731Y-52897887D01*
X118757120Y-52994560D01*
X119009739Y-52994560D01*
X119348250Y-52994560D01*
X119507000Y-52835810D01*
X119507000Y-55080033D01*
X119369310Y-55023000D01*
X119116691Y-55023000D01*
X118903750Y-55023000D01*
X118745000Y-55181750D01*
X118745000Y-56281000D01*
X119719250Y-56281000D01*
X119878000Y-56122250D01*
X119878000Y-56693750D01*
X119719250Y-56535000D01*
X118745000Y-56535000D01*
X118745000Y-56555000D01*
X118491000Y-56555000D01*
X118491000Y-56535000D01*
X118471000Y-56535000D01*
X118471000Y-56281000D01*
X118491000Y-56281000D01*
X118491000Y-55181750D01*
X118332250Y-55023000D01*
X118119309Y-55023000D01*
X117866690Y-55023000D01*
X117633301Y-55119673D01*
X117538500Y-55214474D01*
X117538500Y-53848000D01*
X117465995Y-53483494D01*
X117259519Y-53174481D01*
X117259519Y-53174480D01*
X116751519Y-52666481D01*
X116442506Y-52460005D01*
X116078000Y-52387500D01*
X115616023Y-52387500D01*
X115544415Y-52280330D01*
X115234930Y-52073539D01*
X115650732Y-51702036D01*
X115904709Y-51174791D01*
X115907358Y-51159026D01*
X115786217Y-50927000D01*
X114427000Y-50927000D01*
X114427000Y-50947000D01*
X114173000Y-50947000D01*
X114173000Y-50927000D01*
X114153000Y-50927000D01*
X114153000Y-50673000D01*
X114173000Y-50673000D01*
X114173000Y-50653000D01*
X114427000Y-50653000D01*
X114427000Y-50673000D01*
X115786217Y-50673000D01*
X115907358Y-50440974D01*
X115904709Y-50425209D01*
X115650732Y-49897964D01*
X115474298Y-49740326D01*
X115558123Y-49724063D01*
X115770927Y-49584273D01*
X115913377Y-49373240D01*
X115941027Y-49235360D01*
X118235990Y-49235360D01*
X118235990Y-49357280D01*
X118282967Y-49599403D01*
X118407358Y-49788765D01*
X118345103Y-49851022D01*
X118248430Y-50084411D01*
X118248430Y-50999390D01*
X118407180Y-51158140D01*
X119507000Y-51158140D01*
X119507000Y-51138140D01*
X119761000Y-51138140D01*
X119761000Y-51158140D01*
X120860820Y-51158140D01*
X121019570Y-50999390D01*
X121019570Y-50084411D01*
X120986190Y-50003825D01*
X121158000Y-50038000D01*
X121537952Y-50038000D01*
X121670360Y-50127377D01*
X121857967Y-50165000D01*
X121793690Y-50165000D01*
X121560301Y-50261673D01*
X121381673Y-50440302D01*
X121285000Y-50673691D01*
X121285000Y-51022250D01*
X121443750Y-51181000D01*
X122809000Y-51181000D01*
X122809000Y-51161000D01*
X123063000Y-51161000D01*
X123063000Y-51181000D01*
X124428250Y-51181000D01*
X124587000Y-51022250D01*
X124587000Y-50673691D01*
X124490327Y-50440302D01*
X124311699Y-50261673D01*
X124078310Y-50165000D01*
X124016116Y-50165000D01*
X124194123Y-50130463D01*
X124210600Y-50119638D01*
X126997433Y-52906471D01*
X126944812Y-52959000D01*
X124587000Y-52959000D01*
X124587000Y-51942309D01*
X124587000Y-51593750D01*
X124428250Y-51435000D01*
X123063000Y-51435000D01*
X123063000Y-52292250D01*
X123221750Y-52451000D01*
X123825691Y-52451000D01*
X124078310Y-52451000D01*
X124311699Y-52354327D01*
X124490327Y-52175698D01*
X124587000Y-51942309D01*
X124587000Y-52959000D01*
X122809000Y-52959000D01*
X122809000Y-52292250D01*
X122809000Y-51435000D01*
X121443750Y-51435000D01*
X121285000Y-51593750D01*
X121285000Y-51942309D01*
X121381673Y-52175698D01*
X121560301Y-52354327D01*
X121793690Y-52451000D01*
X122046309Y-52451000D01*
X122650250Y-52451000D01*
X122809000Y-52292250D01*
X122809000Y-52959000D01*
X121297460Y-52959000D01*
X121145041Y-52895710D01*
X120746793Y-52895362D01*
X120922897Y-52719258D01*
X121019570Y-52485869D01*
X121019570Y-51570890D01*
X120860820Y-51412140D01*
X119761000Y-51412140D01*
X119761000Y-52835810D01*
X119919750Y-52994560D01*
X120258261Y-52994560D01*
X120424814Y-52994560D01*
X120221465Y-53078582D01*
X119881775Y-53417680D01*
X119697710Y-53860959D01*
X119697291Y-54340935D01*
X119880582Y-54784535D01*
X120219680Y-55124225D01*
X120662959Y-55308290D01*
X121051517Y-55308629D01*
X120849101Y-55392473D01*
X120670473Y-55571102D01*
X120573800Y-55804491D01*
X120573800Y-56229250D01*
X120732550Y-56388000D01*
X121793000Y-56388000D01*
X121793000Y-55454550D01*
X121634250Y-55295800D01*
X121335109Y-55295800D01*
X121174177Y-55295800D01*
X121586535Y-55125418D01*
X121926225Y-54786320D01*
X121946704Y-54737000D01*
X126944687Y-54737000D01*
X127077680Y-54870225D01*
X127520959Y-55054290D01*
X128000935Y-55054709D01*
X128444535Y-54871418D01*
X128784225Y-54532320D01*
X128968290Y-54089041D01*
X128968709Y-53609065D01*
X128831296Y-53276500D01*
X128891461Y-53276500D01*
X130873500Y-55258538D01*
X130873500Y-56329804D01*
G36*
X138203000Y-81535005D02*
X137833363Y-81164722D01*
X137232648Y-80915284D01*
X136582205Y-80914716D01*
X135981057Y-81163106D01*
X135520722Y-81622637D01*
X135271284Y-82223352D01*
X135270716Y-82873795D01*
X135519106Y-83474943D01*
X135890513Y-83847000D01*
X134958666Y-83847000D01*
X134958666Y-81076800D01*
X131387000Y-81076800D01*
X131387000Y-70406309D01*
X131387000Y-69965750D01*
X131228250Y-69807000D01*
X130429000Y-69807000D01*
X130429000Y-70756250D01*
X130587750Y-70915000D01*
X130625691Y-70915000D01*
X130878310Y-70915000D01*
X131111699Y-70818327D01*
X131290327Y-70639698D01*
X131387000Y-70406309D01*
X131387000Y-81076800D01*
X130175000Y-81076800D01*
X130175000Y-70756250D01*
X130175000Y-69807000D01*
X129375750Y-69807000D01*
X129217000Y-69965750D01*
X129217000Y-70406309D01*
X129313673Y-70639698D01*
X129492301Y-70818327D01*
X129725690Y-70915000D01*
X129978309Y-70915000D01*
X130016250Y-70915000D01*
X130175000Y-70756250D01*
X130175000Y-81076800D01*
X129996340Y-81076800D01*
X129996340Y-78454869D01*
X129969553Y-77874465D01*
X129798976Y-77462656D01*
X129550215Y-77385390D01*
X129370610Y-77564995D01*
X129370610Y-77205785D01*
X129293344Y-76957024D01*
X128746869Y-76759660D01*
X128166465Y-76786447D01*
X127754656Y-76957024D01*
X127677390Y-77205785D01*
X128524000Y-78052395D01*
X129370610Y-77205785D01*
X129370610Y-77564995D01*
X128703605Y-78232000D01*
X129550215Y-79078610D01*
X129798976Y-79001344D01*
X129996340Y-78454869D01*
X129996340Y-81076800D01*
X129370610Y-81076800D01*
X129370610Y-79258215D01*
X128524000Y-78411605D01*
X128344395Y-78591210D01*
X128344395Y-78232000D01*
X127497785Y-77385390D01*
X127249024Y-77462656D01*
X127051660Y-78009131D01*
X127078447Y-78589535D01*
X127249024Y-79001344D01*
X127497785Y-79078610D01*
X128344395Y-78232000D01*
X128344395Y-78591210D01*
X127677390Y-79258215D01*
X127754656Y-79506976D01*
X128301131Y-79704340D01*
X128881535Y-79677553D01*
X129293344Y-79506976D01*
X129370610Y-79258215D01*
X129370610Y-81076800D01*
X121765762Y-81076800D01*
X121765762Y-79391000D01*
X116486238Y-79391000D01*
X116486238Y-82461000D01*
X116501334Y-82461000D01*
X116501334Y-83847000D01*
X115314994Y-83847000D01*
X115685278Y-83477363D01*
X115934716Y-82876648D01*
X115935284Y-82226205D01*
X115686894Y-81625057D01*
X115227363Y-81164722D01*
X114626648Y-80915284D01*
X113976205Y-80914716D01*
X113375057Y-81163106D01*
X113257000Y-81280956D01*
X113257000Y-81280000D01*
X113257000Y-79934251D01*
X113541766Y-80124526D01*
X114115255Y-80238600D01*
X114484745Y-80238600D01*
X115058234Y-80124526D01*
X115544415Y-79799670D01*
X115869271Y-79313489D01*
X115983345Y-78740000D01*
X115869271Y-78166511D01*
X115544415Y-77680330D01*
X115229634Y-77470000D01*
X115544415Y-77259670D01*
X115869271Y-76773489D01*
X115983345Y-76200000D01*
X115869271Y-75626511D01*
X115544415Y-75140330D01*
X115229634Y-74930000D01*
X115544415Y-74719670D01*
X115869271Y-74233489D01*
X115983345Y-73660000D01*
X115869271Y-73086511D01*
X115544415Y-72600330D01*
X115229634Y-72390000D01*
X115544415Y-72179670D01*
X115658453Y-72009000D01*
X117348000Y-72009000D01*
X117688205Y-71941329D01*
X117688206Y-71941329D01*
X117976618Y-71748618D01*
X120954691Y-68770544D01*
X121142935Y-68770709D01*
X121475500Y-68633296D01*
X121475500Y-69784762D01*
X121412001Y-70104000D01*
X121489338Y-70492807D01*
X121709580Y-70822420D01*
X122428000Y-71540840D01*
X122428000Y-77182569D01*
X122206570Y-77403613D01*
X121983754Y-77940214D01*
X121983247Y-78521237D01*
X122205126Y-79058226D01*
X122615613Y-79469430D01*
X123152214Y-79692246D01*
X123733237Y-79692753D01*
X124270226Y-79470874D01*
X124681430Y-79060387D01*
X124904246Y-78523786D01*
X124904753Y-77942763D01*
X124682874Y-77405774D01*
X124460000Y-77182510D01*
X124460000Y-71120000D01*
X124395492Y-70795700D01*
X124382662Y-70731194D01*
X124382662Y-70731193D01*
X124162421Y-70401580D01*
X123380500Y-69619659D01*
X123380500Y-69407357D01*
X123445673Y-69564699D01*
X123624302Y-69743327D01*
X123857691Y-69840000D01*
X124448250Y-69840000D01*
X124607000Y-69681250D01*
X124607000Y-68707000D01*
X124587000Y-68707000D01*
X124587000Y-68453000D01*
X124607000Y-68453000D01*
X124607000Y-67478750D01*
X124514450Y-67386200D01*
X124555250Y-67386200D01*
X124714000Y-67227450D01*
X124714000Y-66167000D01*
X123780550Y-66167000D01*
X123621800Y-66325750D01*
X123621800Y-66624891D01*
X123621800Y-66877510D01*
X123718473Y-67110899D01*
X123897102Y-67289527D01*
X123970670Y-67320000D01*
X123857691Y-67320000D01*
X123624302Y-67416673D01*
X123445673Y-67595301D01*
X123380500Y-67752642D01*
X123380500Y-58801000D01*
X123312600Y-58459646D01*
X123499160Y-58585577D01*
X123507500Y-58587249D01*
X123507500Y-60960000D01*
X123580005Y-61324506D01*
X123786481Y-61633519D01*
X124294480Y-62141519D01*
X124294481Y-62141519D01*
X124603494Y-62347995D01*
X124668705Y-62360966D01*
X124548423Y-62539160D01*
X124498360Y-62788800D01*
X124498360Y-64211200D01*
X124545337Y-64453323D01*
X124685127Y-64666127D01*
X124726123Y-64693800D01*
X124713998Y-64693800D01*
X124713998Y-64852548D01*
X124555250Y-64693800D01*
X124130491Y-64693800D01*
X123897102Y-64790473D01*
X123718473Y-64969101D01*
X123621800Y-65202490D01*
X123621800Y-65455109D01*
X123621800Y-65754250D01*
X123780550Y-65913000D01*
X124714000Y-65913000D01*
X124714000Y-65893000D01*
X124968000Y-65893000D01*
X124968000Y-65913000D01*
X124988000Y-65913000D01*
X124988000Y-66167000D01*
X124968000Y-66167000D01*
X124968000Y-67227450D01*
X125060550Y-67320000D01*
X125019750Y-67320000D01*
X124861000Y-67478750D01*
X124861000Y-68453000D01*
X124881000Y-68453000D01*
X124881000Y-68707000D01*
X124861000Y-68707000D01*
X124861000Y-69681250D01*
X125019750Y-69840000D01*
X125610309Y-69840000D01*
X125843698Y-69743327D01*
X125985176Y-69601849D01*
X126023327Y-69659927D01*
X126234360Y-69802377D01*
X126484000Y-69852440D01*
X127984000Y-69852440D01*
X128226123Y-69805463D01*
X128438927Y-69665673D01*
X128581377Y-69454640D01*
X128631440Y-69205000D01*
X128631440Y-67955000D01*
X128584463Y-67712877D01*
X128444673Y-67500073D01*
X128233640Y-67357623D01*
X128186500Y-67348169D01*
X128186500Y-66816085D01*
X128325973Y-66788342D01*
X128325974Y-66788342D01*
X128588756Y-66612756D01*
X130958756Y-64242757D01*
X130958756Y-64242756D01*
X131046549Y-64111365D01*
X131134342Y-63979974D01*
X131134342Y-63979973D01*
X131195999Y-63670000D01*
X131196000Y-63670000D01*
X131196000Y-62524695D01*
X131228123Y-62518463D01*
X131440927Y-62378673D01*
X131583377Y-62167640D01*
X131633440Y-61918000D01*
X131633440Y-61018000D01*
X131586463Y-60775877D01*
X131580920Y-60767440D01*
X132276000Y-60767440D01*
X132518123Y-60720463D01*
X132730927Y-60580673D01*
X132873377Y-60369640D01*
X132923440Y-60120000D01*
X132923440Y-58920000D01*
X132876463Y-58677877D01*
X132736673Y-58465073D01*
X132670471Y-58420386D01*
X132730927Y-58380673D01*
X132873377Y-58169640D01*
X132923440Y-57920000D01*
X132923440Y-56720000D01*
X132876463Y-56477877D01*
X132778500Y-56328746D01*
X132778500Y-54864000D01*
X132705995Y-54499494D01*
X132499519Y-54190481D01*
X132499519Y-54190480D01*
X132461000Y-54151961D01*
X132461000Y-52835810D01*
X132461000Y-51412140D01*
X131361180Y-51412140D01*
X131202430Y-51570890D01*
X131202430Y-52485869D01*
X131299103Y-52719258D01*
X131477731Y-52897887D01*
X131711120Y-52994560D01*
X131963739Y-52994560D01*
X132302250Y-52994560D01*
X132461000Y-52835810D01*
X132461000Y-54151961D01*
X129959519Y-51650481D01*
X129731674Y-51498240D01*
X130556000Y-51498240D01*
X130798123Y-51451263D01*
X131010927Y-51311473D01*
X131153377Y-51100440D01*
X131202430Y-50855836D01*
X131202430Y-50999390D01*
X131361180Y-51158140D01*
X132461000Y-51158140D01*
X132461000Y-51138140D01*
X132715000Y-51138140D01*
X132715000Y-51158140D01*
X133814820Y-51158140D01*
X133973570Y-50999390D01*
X133973570Y-50084411D01*
X133876897Y-49851022D01*
X133813780Y-49787904D01*
X133935947Y-49606920D01*
X133986010Y-49357280D01*
X133986010Y-49212500D01*
X135513808Y-49212500D01*
X135543537Y-49365723D01*
X135683327Y-49578527D01*
X135894360Y-49720977D01*
X135986645Y-49739483D01*
X135809268Y-49897964D01*
X135555291Y-50425209D01*
X135552642Y-50440974D01*
X135673783Y-50673000D01*
X137033000Y-50673000D01*
X137033000Y-50653000D01*
X137287000Y-50653000D01*
X137287000Y-50673000D01*
X137307000Y-50673000D01*
X137307000Y-50927000D01*
X137287000Y-50927000D01*
X137287000Y-50947000D01*
X137033000Y-50947000D01*
X137033000Y-50927000D01*
X135673783Y-50927000D01*
X135552642Y-51159026D01*
X135555291Y-51174791D01*
X135809268Y-51702036D01*
X136225069Y-52073539D01*
X135915585Y-52280330D01*
X135590729Y-52766511D01*
X135476655Y-53340000D01*
X135590729Y-53913489D01*
X135915585Y-54399670D01*
X136230365Y-54610000D01*
X135915585Y-54820330D01*
X135590729Y-55306511D01*
X135476655Y-55880000D01*
X135590729Y-56453489D01*
X135915585Y-56939670D01*
X136230365Y-57150000D01*
X135915585Y-57360330D01*
X135590729Y-57846511D01*
X135476655Y-58420000D01*
X135590729Y-58993489D01*
X135915585Y-59479670D01*
X136230365Y-59690000D01*
X135915585Y-59900330D01*
X135590729Y-60386511D01*
X135476655Y-60960000D01*
X135590729Y-61533489D01*
X135915585Y-62019670D01*
X136230365Y-62230000D01*
X135915585Y-62440330D01*
X135590729Y-62926511D01*
X135476655Y-63500000D01*
X135590729Y-64073489D01*
X135915585Y-64559670D01*
X136230365Y-64770000D01*
X135915585Y-64980330D01*
X135590729Y-65466511D01*
X135476655Y-66040000D01*
X135586255Y-66591000D01*
X133973570Y-66591000D01*
X133973570Y-52485869D01*
X133973570Y-51570890D01*
X133814820Y-51412140D01*
X132715000Y-51412140D01*
X132715000Y-52835810D01*
X132873750Y-52994560D01*
X133212261Y-52994560D01*
X133464880Y-52994560D01*
X133698269Y-52897887D01*
X133876897Y-52719258D01*
X133973570Y-52485869D01*
X133973570Y-66591000D01*
X131321669Y-66591000D01*
X131212673Y-66425073D01*
X131001640Y-66282623D01*
X130752000Y-66232560D01*
X129852000Y-66232560D01*
X129609877Y-66279537D01*
X129397073Y-66419327D01*
X129254623Y-66630360D01*
X129204560Y-66880000D01*
X129204560Y-68080000D01*
X129251537Y-68322123D01*
X129391327Y-68534927D01*
X129455637Y-68578337D01*
X129313673Y-68720302D01*
X129217000Y-68953691D01*
X129217000Y-69394250D01*
X129375750Y-69553000D01*
X130175000Y-69553000D01*
X130175000Y-69533000D01*
X130429000Y-69533000D01*
X130429000Y-69553000D01*
X131228250Y-69553000D01*
X131387000Y-69394250D01*
X131387000Y-68953691D01*
X131290327Y-68720302D01*
X131148849Y-68578823D01*
X131206927Y-68540673D01*
X131322808Y-68369000D01*
X135518625Y-68369000D01*
X135476655Y-68580000D01*
X135590729Y-69153489D01*
X135915585Y-69639670D01*
X136225069Y-69846460D01*
X135809268Y-70217964D01*
X135555291Y-70745209D01*
X135552642Y-70760974D01*
X135673783Y-70993000D01*
X137033000Y-70993000D01*
X137033000Y-70973000D01*
X137287000Y-70973000D01*
X137287000Y-70993000D01*
X137307000Y-70993000D01*
X137307000Y-71247000D01*
X137287000Y-71247000D01*
X137287000Y-71267000D01*
X137033000Y-71267000D01*
X137033000Y-71247000D01*
X135673783Y-71247000D01*
X135552642Y-71479026D01*
X135555291Y-71494791D01*
X135809268Y-72022036D01*
X136225069Y-72393539D01*
X135915585Y-72600330D01*
X135590729Y-73086511D01*
X135476655Y-73660000D01*
X135590729Y-74233489D01*
X135915585Y-74719670D01*
X136230365Y-74930000D01*
X135915585Y-75140330D01*
X135590729Y-75626511D01*
X135476655Y-76200000D01*
X135590729Y-76773489D01*
X135915585Y-77259670D01*
X136230365Y-77470000D01*
X135915585Y-77680330D01*
X135590729Y-78166511D01*
X135476655Y-78740000D01*
X135590729Y-79313489D01*
X135915585Y-79799670D01*
X136401766Y-80124526D01*
X136975255Y-80238600D01*
X137344745Y-80238600D01*
X137918234Y-80124526D01*
X138203000Y-79934251D01*
X138203000Y-81280000D01*
X138203000Y-81535005D01*
X138203000Y-81535005D01*
G37*
X138203000Y-81535005D02*
X137833363Y-81164722D01*
X137232648Y-80915284D01*
X136582205Y-80914716D01*
X135981057Y-81163106D01*
X135520722Y-81622637D01*
X135271284Y-82223352D01*
X135270716Y-82873795D01*
X135519106Y-83474943D01*
X135890513Y-83847000D01*
X134958666Y-83847000D01*
X134958666Y-81076800D01*
X131387000Y-81076800D01*
X131387000Y-70406309D01*
X131387000Y-69965750D01*
X131228250Y-69807000D01*
X130429000Y-69807000D01*
X130429000Y-70756250D01*
X130587750Y-70915000D01*
X130625691Y-70915000D01*
X130878310Y-70915000D01*
X131111699Y-70818327D01*
X131290327Y-70639698D01*
X131387000Y-70406309D01*
X131387000Y-81076800D01*
X130175000Y-81076800D01*
X130175000Y-70756250D01*
X130175000Y-69807000D01*
X129375750Y-69807000D01*
X129217000Y-69965750D01*
X129217000Y-70406309D01*
X129313673Y-70639698D01*
X129492301Y-70818327D01*
X129725690Y-70915000D01*
X129978309Y-70915000D01*
X130016250Y-70915000D01*
X130175000Y-70756250D01*
X130175000Y-81076800D01*
X129996340Y-81076800D01*
X129996340Y-78454869D01*
X129969553Y-77874465D01*
X129798976Y-77462656D01*
X129550215Y-77385390D01*
X129370610Y-77564995D01*
X129370610Y-77205785D01*
X129293344Y-76957024D01*
X128746869Y-76759660D01*
X128166465Y-76786447D01*
X127754656Y-76957024D01*
X127677390Y-77205785D01*
X128524000Y-78052395D01*
X129370610Y-77205785D01*
X129370610Y-77564995D01*
X128703605Y-78232000D01*
X129550215Y-79078610D01*
X129798976Y-79001344D01*
X129996340Y-78454869D01*
X129996340Y-81076800D01*
X129370610Y-81076800D01*
X129370610Y-79258215D01*
X128524000Y-78411605D01*
X128344395Y-78591210D01*
X128344395Y-78232000D01*
X127497785Y-77385390D01*
X127249024Y-77462656D01*
X127051660Y-78009131D01*
X127078447Y-78589535D01*
X127249024Y-79001344D01*
X127497785Y-79078610D01*
X128344395Y-78232000D01*
X128344395Y-78591210D01*
X127677390Y-79258215D01*
X127754656Y-79506976D01*
X128301131Y-79704340D01*
X128881535Y-79677553D01*
X129293344Y-79506976D01*
X129370610Y-79258215D01*
X129370610Y-81076800D01*
X121765762Y-81076800D01*
X121765762Y-79391000D01*
X116486238Y-79391000D01*
X116486238Y-82461000D01*
X116501334Y-82461000D01*
X116501334Y-83847000D01*
X115314994Y-83847000D01*
X115685278Y-83477363D01*
X115934716Y-82876648D01*
X115935284Y-82226205D01*
X115686894Y-81625057D01*
X115227363Y-81164722D01*
X114626648Y-80915284D01*
X113976205Y-80914716D01*
X113375057Y-81163106D01*
X113257000Y-81280956D01*
X113257000Y-81280000D01*
X113257000Y-79934251D01*
X113541766Y-80124526D01*
X114115255Y-80238600D01*
X114484745Y-80238600D01*
X115058234Y-80124526D01*
X115544415Y-79799670D01*
X115869271Y-79313489D01*
X115983345Y-78740000D01*
X115869271Y-78166511D01*
X115544415Y-77680330D01*
X115229634Y-77470000D01*
X115544415Y-77259670D01*
X115869271Y-76773489D01*
X115983345Y-76200000D01*
X115869271Y-75626511D01*
X115544415Y-75140330D01*
X115229634Y-74930000D01*
X115544415Y-74719670D01*
X115869271Y-74233489D01*
X115983345Y-73660000D01*
X115869271Y-73086511D01*
X115544415Y-72600330D01*
X115229634Y-72390000D01*
X115544415Y-72179670D01*
X115658453Y-72009000D01*
X117348000Y-72009000D01*
X117688205Y-71941329D01*
X117688206Y-71941329D01*
X117976618Y-71748618D01*
X120954691Y-68770544D01*
X121142935Y-68770709D01*
X121475500Y-68633296D01*
X121475500Y-69784762D01*
X121412001Y-70104000D01*
X121489338Y-70492807D01*
X121709580Y-70822420D01*
X122428000Y-71540840D01*
X122428000Y-77182569D01*
X122206570Y-77403613D01*
X121983754Y-77940214D01*
X121983247Y-78521237D01*
X122205126Y-79058226D01*
X122615613Y-79469430D01*
X123152214Y-79692246D01*
X123733237Y-79692753D01*
X124270226Y-79470874D01*
X124681430Y-79060387D01*
X124904246Y-78523786D01*
X124904753Y-77942763D01*
X124682874Y-77405774D01*
X124460000Y-77182510D01*
X124460000Y-71120000D01*
X124395492Y-70795700D01*
X124382662Y-70731194D01*
X124382662Y-70731193D01*
X124162421Y-70401580D01*
X123380500Y-69619659D01*
X123380500Y-69407357D01*
X123445673Y-69564699D01*
X123624302Y-69743327D01*
X123857691Y-69840000D01*
X124448250Y-69840000D01*
X124607000Y-69681250D01*
X124607000Y-68707000D01*
X124587000Y-68707000D01*
X124587000Y-68453000D01*
X124607000Y-68453000D01*
X124607000Y-67478750D01*
X124514450Y-67386200D01*
X124555250Y-67386200D01*
X124714000Y-67227450D01*
X124714000Y-66167000D01*
X123780550Y-66167000D01*
X123621800Y-66325750D01*
X123621800Y-66624891D01*
X123621800Y-66877510D01*
X123718473Y-67110899D01*
X123897102Y-67289527D01*
X123970670Y-67320000D01*
X123857691Y-67320000D01*
X123624302Y-67416673D01*
X123445673Y-67595301D01*
X123380500Y-67752642D01*
X123380500Y-58801000D01*
X123312600Y-58459646D01*
X123499160Y-58585577D01*
X123507500Y-58587249D01*
X123507500Y-60960000D01*
X123580005Y-61324506D01*
X123786481Y-61633519D01*
X124294480Y-62141519D01*
X124294481Y-62141519D01*
X124603494Y-62347995D01*
X124668705Y-62360966D01*
X124548423Y-62539160D01*
X124498360Y-62788800D01*
X124498360Y-64211200D01*
X124545337Y-64453323D01*
X124685127Y-64666127D01*
X124726123Y-64693800D01*
X124713998Y-64693800D01*
X124713998Y-64852548D01*
X124555250Y-64693800D01*
X124130491Y-64693800D01*
X123897102Y-64790473D01*
X123718473Y-64969101D01*
X123621800Y-65202490D01*
X123621800Y-65455109D01*
X123621800Y-65754250D01*
X123780550Y-65913000D01*
X124714000Y-65913000D01*
X124714000Y-65893000D01*
X124968000Y-65893000D01*
X124968000Y-65913000D01*
X124988000Y-65913000D01*
X124988000Y-66167000D01*
X124968000Y-66167000D01*
X124968000Y-67227450D01*
X125060550Y-67320000D01*
X125019750Y-67320000D01*
X124861000Y-67478750D01*
X124861000Y-68453000D01*
X124881000Y-68453000D01*
X124881000Y-68707000D01*
X124861000Y-68707000D01*
X124861000Y-69681250D01*
X125019750Y-69840000D01*
X125610309Y-69840000D01*
X125843698Y-69743327D01*
X125985176Y-69601849D01*
X126023327Y-69659927D01*
X126234360Y-69802377D01*
X126484000Y-69852440D01*
X127984000Y-69852440D01*
X128226123Y-69805463D01*
X128438927Y-69665673D01*
X128581377Y-69454640D01*
X128631440Y-69205000D01*
X128631440Y-67955000D01*
X128584463Y-67712877D01*
X128444673Y-67500073D01*
X128233640Y-67357623D01*
X128186500Y-67348169D01*
X128186500Y-66816085D01*
X128325973Y-66788342D01*
X128325974Y-66788342D01*
X128588756Y-66612756D01*
X130958756Y-64242757D01*
X130958756Y-64242756D01*
X131046549Y-64111365D01*
X131134342Y-63979974D01*
X131134342Y-63979973D01*
X131195999Y-63670000D01*
X131196000Y-63670000D01*
X131196000Y-62524695D01*
X131228123Y-62518463D01*
X131440927Y-62378673D01*
X131583377Y-62167640D01*
X131633440Y-61918000D01*
X131633440Y-61018000D01*
X131586463Y-60775877D01*
X131580920Y-60767440D01*
X132276000Y-60767440D01*
X132518123Y-60720463D01*
X132730927Y-60580673D01*
X132873377Y-60369640D01*
X132923440Y-60120000D01*
X132923440Y-58920000D01*
X132876463Y-58677877D01*
X132736673Y-58465073D01*
X132670471Y-58420386D01*
X132730927Y-58380673D01*
X132873377Y-58169640D01*
X132923440Y-57920000D01*
X132923440Y-56720000D01*
X132876463Y-56477877D01*
X132778500Y-56328746D01*
X132778500Y-54864000D01*
X132705995Y-54499494D01*
X132499519Y-54190481D01*
X132499519Y-54190480D01*
X132461000Y-54151961D01*
X132461000Y-52835810D01*
X132461000Y-51412140D01*
X131361180Y-51412140D01*
X131202430Y-51570890D01*
X131202430Y-52485869D01*
X131299103Y-52719258D01*
X131477731Y-52897887D01*
X131711120Y-52994560D01*
X131963739Y-52994560D01*
X132302250Y-52994560D01*
X132461000Y-52835810D01*
X132461000Y-54151961D01*
X129959519Y-51650481D01*
X129731674Y-51498240D01*
X130556000Y-51498240D01*
X130798123Y-51451263D01*
X131010927Y-51311473D01*
X131153377Y-51100440D01*
X131202430Y-50855836D01*
X131202430Y-50999390D01*
X131361180Y-51158140D01*
X132461000Y-51158140D01*
X132461000Y-51138140D01*
X132715000Y-51138140D01*
X132715000Y-51158140D01*
X133814820Y-51158140D01*
X133973570Y-50999390D01*
X133973570Y-50084411D01*
X133876897Y-49851022D01*
X133813780Y-49787904D01*
X133935947Y-49606920D01*
X133986010Y-49357280D01*
X133986010Y-49212500D01*
X135513808Y-49212500D01*
X135543537Y-49365723D01*
X135683327Y-49578527D01*
X135894360Y-49720977D01*
X135986645Y-49739483D01*
X135809268Y-49897964D01*
X135555291Y-50425209D01*
X135552642Y-50440974D01*
X135673783Y-50673000D01*
X137033000Y-50673000D01*
X137033000Y-50653000D01*
X137287000Y-50653000D01*
X137287000Y-50673000D01*
X137307000Y-50673000D01*
X137307000Y-50927000D01*
X137287000Y-50927000D01*
X137287000Y-50947000D01*
X137033000Y-50947000D01*
X137033000Y-50927000D01*
X135673783Y-50927000D01*
X135552642Y-51159026D01*
X135555291Y-51174791D01*
X135809268Y-51702036D01*
X136225069Y-52073539D01*
X135915585Y-52280330D01*
X135590729Y-52766511D01*
X135476655Y-53340000D01*
X135590729Y-53913489D01*
X135915585Y-54399670D01*
X136230365Y-54610000D01*
X135915585Y-54820330D01*
X135590729Y-55306511D01*
X135476655Y-55880000D01*
X135590729Y-56453489D01*
X135915585Y-56939670D01*
X136230365Y-57150000D01*
X135915585Y-57360330D01*
X135590729Y-57846511D01*
X135476655Y-58420000D01*
X135590729Y-58993489D01*
X135915585Y-59479670D01*
X136230365Y-59690000D01*
X135915585Y-59900330D01*
X135590729Y-60386511D01*
X135476655Y-60960000D01*
X135590729Y-61533489D01*
X135915585Y-62019670D01*
X136230365Y-62230000D01*
X135915585Y-62440330D01*
X135590729Y-62926511D01*
X135476655Y-63500000D01*
X135590729Y-64073489D01*
X135915585Y-64559670D01*
X136230365Y-64770000D01*
X135915585Y-64980330D01*
X135590729Y-65466511D01*
X135476655Y-66040000D01*
X135586255Y-66591000D01*
X133973570Y-66591000D01*
X133973570Y-52485869D01*
X133973570Y-51570890D01*
X133814820Y-51412140D01*
X132715000Y-51412140D01*
X132715000Y-52835810D01*
X132873750Y-52994560D01*
X133212261Y-52994560D01*
X133464880Y-52994560D01*
X133698269Y-52897887D01*
X133876897Y-52719258D01*
X133973570Y-52485869D01*
X133973570Y-66591000D01*
X131321669Y-66591000D01*
X131212673Y-66425073D01*
X131001640Y-66282623D01*
X130752000Y-66232560D01*
X129852000Y-66232560D01*
X129609877Y-66279537D01*
X129397073Y-66419327D01*
X129254623Y-66630360D01*
X129204560Y-66880000D01*
X129204560Y-68080000D01*
X129251537Y-68322123D01*
X129391327Y-68534927D01*
X129455637Y-68578337D01*
X129313673Y-68720302D01*
X129217000Y-68953691D01*
X129217000Y-69394250D01*
X129375750Y-69553000D01*
X130175000Y-69553000D01*
X130175000Y-69533000D01*
X130429000Y-69533000D01*
X130429000Y-69553000D01*
X131228250Y-69553000D01*
X131387000Y-69394250D01*
X131387000Y-68953691D01*
X131290327Y-68720302D01*
X131148849Y-68578823D01*
X131206927Y-68540673D01*
X131322808Y-68369000D01*
X135518625Y-68369000D01*
X135476655Y-68580000D01*
X135590729Y-69153489D01*
X135915585Y-69639670D01*
X136225069Y-69846460D01*
X135809268Y-70217964D01*
X135555291Y-70745209D01*
X135552642Y-70760974D01*
X135673783Y-70993000D01*
X137033000Y-70993000D01*
X137033000Y-70973000D01*
X137287000Y-70973000D01*
X137287000Y-70993000D01*
X137307000Y-70993000D01*
X137307000Y-71247000D01*
X137287000Y-71247000D01*
X137287000Y-71267000D01*
X137033000Y-71267000D01*
X137033000Y-71247000D01*
X135673783Y-71247000D01*
X135552642Y-71479026D01*
X135555291Y-71494791D01*
X135809268Y-72022036D01*
X136225069Y-72393539D01*
X135915585Y-72600330D01*
X135590729Y-73086511D01*
X135476655Y-73660000D01*
X135590729Y-74233489D01*
X135915585Y-74719670D01*
X136230365Y-74930000D01*
X135915585Y-75140330D01*
X135590729Y-75626511D01*
X135476655Y-76200000D01*
X135590729Y-76773489D01*
X135915585Y-77259670D01*
X136230365Y-77470000D01*
X135915585Y-77680330D01*
X135590729Y-78166511D01*
X135476655Y-78740000D01*
X135590729Y-79313489D01*
X135915585Y-79799670D01*
X136401766Y-80124526D01*
X136975255Y-80238600D01*
X137344745Y-80238600D01*
X137918234Y-80124526D01*
X138203000Y-79934251D01*
X138203000Y-81280000D01*
X138203000Y-81535005D01*
M02*
