G04 #@! TF.FileFunction,Copper,L1,Top,Signal*
%FSLAX46Y46*%
G04 Gerber Fmt 4.6, Leading zero omitted, Abs format (unit mm)*
G04 Created by KiCad (PCBNEW (2015-01-16 BZR 5376)-product) date 7/15/2015 11:03:25 AM*
%MOMM*%
G01*
G04 APERTURE LIST*
%ADD10C,0.100000*%
%ADD11C,0.200000*%
%ADD12R,2.500000X1.200000*%
%ADD13R,1.200000X2.500000*%
%ADD14C,2.000000*%
%ADD15R,2.032000X1.727200*%
%ADD16O,2.032000X1.727200*%
%ADD17C,1.651000*%
%ADD18R,1.727200X2.032000*%
%ADD19O,1.727200X2.032000*%
%ADD20C,1.143000*%
%ADD21C,0.350000*%
%ADD22C,0.762000*%
%ADD23C,0.635000*%
%ADD24C,0.508000*%
%ADD25C,0.381000*%
%ADD26C,0.254000*%
G04 APERTURE END LIST*
D10*
D11*
X138938000Y-84582000D02*
X138938000Y-81280000D01*
X112522000Y-84582000D02*
X138938000Y-84582000D01*
X112522000Y-81280000D02*
X112522000Y-84582000D01*
X118094286Y-81383143D02*
X118046667Y-81430762D01*
X117903810Y-81478381D01*
X117808572Y-81478381D01*
X117665714Y-81430762D01*
X117570476Y-81335524D01*
X117522857Y-81240286D01*
X117475238Y-81049810D01*
X117475238Y-80906952D01*
X117522857Y-80716476D01*
X117570476Y-80621238D01*
X117665714Y-80526000D01*
X117808572Y-80478381D01*
X117903810Y-80478381D01*
X118046667Y-80526000D01*
X118094286Y-80573619D01*
X118713333Y-80478381D02*
X118903810Y-80478381D01*
X118999048Y-80526000D01*
X119094286Y-80621238D01*
X119141905Y-80811714D01*
X119141905Y-81145048D01*
X119094286Y-81335524D01*
X118999048Y-81430762D01*
X118903810Y-81478381D01*
X118713333Y-81478381D01*
X118618095Y-81430762D01*
X118522857Y-81335524D01*
X118475238Y-81145048D01*
X118475238Y-80811714D01*
X118522857Y-80621238D01*
X118618095Y-80526000D01*
X118713333Y-80478381D01*
X119570476Y-81478381D02*
X119570476Y-80478381D01*
X119903810Y-81192667D01*
X120237143Y-80478381D01*
X120237143Y-81478381D01*
X120713333Y-81478381D02*
X120713333Y-80478381D01*
X121094286Y-80478381D01*
X121189524Y-80526000D01*
X121237143Y-80573619D01*
X121284762Y-80668857D01*
X121284762Y-80811714D01*
X121237143Y-80906952D01*
X121189524Y-80954571D01*
X121094286Y-81002190D01*
X120713333Y-81002190D01*
X138938000Y-41148000D02*
X112522000Y-41148000D01*
X138938000Y-81280000D02*
X138938000Y-41148000D01*
X112522000Y-41148000D02*
X112522000Y-81280000D01*
D12*
X118730000Y-55468000D03*
X118730000Y-57468000D03*
X118730000Y-59468000D03*
X118730000Y-61468000D03*
X118730000Y-63468000D03*
X118730000Y-65468000D03*
X118730000Y-67468000D03*
X118730000Y-69468000D03*
D13*
X120730000Y-71968000D03*
X122730000Y-71968000D03*
X126730000Y-71968000D03*
X128730000Y-71968000D03*
X130730000Y-71968000D03*
D12*
X132730000Y-69468000D03*
X132730000Y-67468000D03*
D13*
X124730000Y-71968000D03*
D12*
X132730000Y-65468000D03*
X132730000Y-63468000D03*
X132730000Y-61468000D03*
X132730000Y-59468000D03*
X132730000Y-57468000D03*
X132730000Y-55468000D03*
D14*
X136906000Y-43180000D03*
X114300000Y-43180000D03*
X114300000Y-82550000D03*
X136906000Y-82550000D03*
D15*
X137160000Y-48260000D03*
D16*
X137160000Y-50800000D03*
X137160000Y-53340000D03*
X137160000Y-55880000D03*
X137160000Y-58420000D03*
X137160000Y-60960000D03*
X137160000Y-63500000D03*
X137160000Y-66040000D03*
X137160000Y-68580000D03*
X137160000Y-71120000D03*
X137160000Y-73660000D03*
X137160000Y-76200000D03*
X137160000Y-78740000D03*
D15*
X114300000Y-48260000D03*
D16*
X114300000Y-50800000D03*
X114300000Y-53340000D03*
X114300000Y-55880000D03*
X114300000Y-58420000D03*
X114300000Y-60960000D03*
X114300000Y-63500000D03*
X114300000Y-66040000D03*
X114300000Y-68580000D03*
X114300000Y-71120000D03*
X114300000Y-73660000D03*
X114300000Y-76200000D03*
X114300000Y-78740000D03*
D17*
X128524000Y-78232000D03*
X123444000Y-78232000D03*
D18*
X117856000Y-42926000D03*
D19*
X120396000Y-42926000D03*
X122936000Y-42926000D03*
X125476000Y-42926000D03*
X128016000Y-42926000D03*
X130556000Y-42926000D03*
X133096000Y-42926000D03*
D20*
X134112000Y-72390000D03*
X129540000Y-54864000D03*
X120904000Y-67564000D03*
X119888000Y-45720000D03*
X125984000Y-59944000D03*
X128778000Y-63500000D03*
X120904000Y-54102000D03*
X127762000Y-53848000D03*
D21*
X133730000Y-69468000D02*
X133730000Y-70484000D01*
X134112000Y-72390000D02*
X134366000Y-72136000D01*
D22*
X117856000Y-49022000D02*
X116078000Y-50800000D01*
X116078000Y-50800000D02*
X114300000Y-50800000D01*
X117856000Y-42926000D02*
X117856000Y-49022000D01*
D23*
X133604000Y-50800000D02*
X129540000Y-54864000D01*
X137160000Y-50800000D02*
X133604000Y-50800000D01*
D22*
X133730000Y-72008000D02*
X134112000Y-72390000D01*
X133730000Y-69468000D02*
X133730000Y-72008000D01*
X135382000Y-71120000D02*
X134112000Y-72390000D01*
X137160000Y-71120000D02*
X135382000Y-71120000D01*
D24*
X120904000Y-67564000D02*
X127762000Y-60706000D01*
X127762000Y-60706000D02*
X127762000Y-59182000D01*
X127762000Y-59182000D02*
X123190000Y-54610000D01*
X123190000Y-54610000D02*
X123190000Y-49022000D01*
X123190000Y-49022000D02*
X119888000Y-45720000D01*
X116078000Y-71120000D02*
X114300000Y-71120000D01*
X117730000Y-69468000D02*
X116078000Y-71120000D01*
X118230000Y-69468000D02*
X117730000Y-69468000D01*
D21*
X136048000Y-67468000D02*
X137160000Y-68580000D01*
X133730000Y-67468000D02*
X136048000Y-67468000D01*
D24*
X136048000Y-67468000D02*
X137160000Y-68580000D01*
X133230000Y-67468000D02*
X136048000Y-67468000D01*
D21*
X115888000Y-57468000D02*
X114300000Y-55880000D01*
X117730000Y-57468000D02*
X115888000Y-57468000D01*
X115348000Y-59468000D02*
X114300000Y-58420000D01*
X117730000Y-59468000D02*
X115348000Y-59468000D01*
D24*
X125984000Y-59944000D02*
X125508000Y-59468000D01*
X125508000Y-59468000D02*
X117730000Y-59468000D01*
D21*
X114808000Y-61468000D02*
X114300000Y-60960000D01*
X117730000Y-61468000D02*
X114808000Y-61468000D01*
D24*
X114808000Y-61468000D02*
X114300000Y-60960000D01*
X118230000Y-61468000D02*
X114808000Y-61468000D01*
D21*
X114332000Y-63468000D02*
X114300000Y-63500000D01*
X117730000Y-63468000D02*
X114332000Y-63468000D01*
D24*
X114332000Y-63468000D02*
X114300000Y-63500000D01*
X118230000Y-63468000D02*
X114332000Y-63468000D01*
D21*
X114872000Y-65468000D02*
X114300000Y-66040000D01*
X117730000Y-65468000D02*
X114872000Y-65468000D01*
D24*
X114872000Y-65468000D02*
X114300000Y-66040000D01*
X118230000Y-65468000D02*
X114872000Y-65468000D01*
X115062000Y-68580000D02*
X114300000Y-68580000D01*
X116174000Y-67468000D02*
X115062000Y-68580000D01*
X118230000Y-67468000D02*
X116174000Y-67468000D01*
D21*
X114460000Y-73500000D02*
X114300000Y-73660000D01*
D24*
X119888000Y-73660000D02*
X114300000Y-73660000D01*
X120730000Y-72818000D02*
X119888000Y-73660000D01*
X120730000Y-71468000D02*
X120730000Y-72818000D01*
D21*
X121666000Y-76200000D02*
X122730000Y-75136000D01*
X114300000Y-76200000D02*
X121666000Y-76200000D01*
D24*
X121666000Y-76200000D02*
X114300000Y-76200000D01*
X122730000Y-75136000D02*
X121666000Y-76200000D01*
X122730000Y-71468000D02*
X122730000Y-75136000D01*
X126730000Y-75454000D02*
X126484002Y-75699998D01*
X126484002Y-75699998D02*
X126484002Y-78986002D01*
X126484002Y-78986002D02*
X128016000Y-80518000D01*
X128016000Y-80518000D02*
X131572000Y-80518000D01*
X131572000Y-80518000D02*
X133350000Y-78740000D01*
X133350000Y-78740000D02*
X137160000Y-78740000D01*
X126730000Y-71468000D02*
X126730000Y-75454000D01*
X128730000Y-74120000D02*
X130810000Y-76200000D01*
X130810000Y-76200000D02*
X137160000Y-76200000D01*
X128730000Y-71468000D02*
X128730000Y-74120000D01*
D21*
X130730000Y-71468000D02*
X130730000Y-72818000D01*
D24*
X130730000Y-74088000D02*
X131318000Y-74676000D01*
X131318000Y-74676000D02*
X134620000Y-74676000D01*
X134620000Y-74676000D02*
X135636000Y-73660000D01*
X135636000Y-73660000D02*
X137160000Y-73660000D01*
X130730000Y-71468000D02*
X130730000Y-74088000D01*
X120904000Y-78740000D02*
X122174000Y-80010000D01*
X122174000Y-80010000D02*
X124460000Y-80010000D01*
X124460000Y-80010000D02*
X125476000Y-78994000D01*
X125476000Y-78994000D02*
X125476000Y-75438000D01*
X125476000Y-75438000D02*
X124730000Y-74692000D01*
X124730000Y-74692000D02*
X124730000Y-71468000D01*
X114300000Y-78740000D02*
X120904000Y-78740000D01*
D21*
X136588000Y-65468000D02*
X137160000Y-66040000D01*
D24*
X136398000Y-66040000D02*
X137160000Y-66040000D01*
X135826000Y-65468000D02*
X136398000Y-66040000D01*
X133230000Y-65468000D02*
X135826000Y-65468000D01*
D21*
X137128000Y-63468000D02*
X137160000Y-63500000D01*
X133730000Y-63468000D02*
X137128000Y-63468000D01*
X128778000Y-63500000D02*
X128810000Y-63468000D01*
D23*
X128810000Y-63468000D02*
X133730000Y-63468000D01*
D24*
X137128000Y-63468000D02*
X137160000Y-63500000D01*
X133230000Y-63468000D02*
X137128000Y-63468000D01*
D21*
X136652000Y-61468000D02*
X137160000Y-60960000D01*
D24*
X136144000Y-60960000D02*
X137160000Y-60960000D01*
X135636000Y-61468000D02*
X136144000Y-60960000D01*
X133230000Y-61468000D02*
X135636000Y-61468000D01*
X136144000Y-58420000D02*
X137160000Y-58420000D01*
X135096000Y-59468000D02*
X136144000Y-58420000D01*
X133230000Y-59468000D02*
X135096000Y-59468000D01*
D21*
X133730000Y-54230000D02*
X134620000Y-53340000D01*
X134620000Y-53340000D02*
X137160000Y-53340000D01*
X133730000Y-55468000D02*
X133730000Y-54230000D01*
D25*
X128016000Y-42926000D02*
X128016000Y-43942000D01*
D24*
X128270000Y-56388000D02*
X126746000Y-54864000D01*
X126746000Y-54864000D02*
X126492000Y-54610000D01*
D25*
X126492000Y-54610000D02*
X126492000Y-54610000D01*
D24*
X130048000Y-56388000D02*
X128270000Y-56388000D01*
X130968000Y-55468000D02*
X130048000Y-56388000D01*
X133730000Y-55468000D02*
X130968000Y-55468000D01*
X125984000Y-54102000D02*
X128270000Y-56388000D01*
X125984000Y-46736000D02*
X128016000Y-44704000D01*
X125984000Y-53848000D02*
X125984000Y-46736000D01*
X128016000Y-42926000D02*
X128016000Y-44704000D01*
X125984000Y-54102000D02*
X125984000Y-53848000D01*
X134620000Y-53340000D02*
X137160000Y-53340000D01*
X133230000Y-54730000D02*
X134620000Y-53340000D01*
X133230000Y-55468000D02*
X133230000Y-54730000D01*
X127254000Y-56896000D02*
X125476000Y-55118000D01*
D25*
X131826000Y-57468000D02*
X130492000Y-57468000D01*
X133730000Y-57468000D02*
X131826000Y-57468000D01*
D24*
X130302000Y-57658000D02*
X128016000Y-57658000D01*
X127254000Y-56896000D02*
X128016000Y-57658000D01*
X125476000Y-44196000D02*
X124714000Y-44958000D01*
X124714000Y-44958000D02*
X124714000Y-54356000D01*
X124714000Y-54356000D02*
X125476000Y-55118000D01*
X125476000Y-42926000D02*
X125476000Y-44196000D01*
X131762000Y-57468000D02*
X131826000Y-57404000D01*
X131826000Y-57404000D02*
X131826000Y-57468000D01*
X130492000Y-57468000D02*
X131762000Y-57468000D01*
X130302000Y-57658000D02*
X130492000Y-57468000D01*
X136398000Y-55880000D02*
X137160000Y-55880000D01*
X134810000Y-57468000D02*
X136398000Y-55880000D01*
X133230000Y-57468000D02*
X134810000Y-57468000D01*
D21*
X117730000Y-55468000D02*
X116428000Y-55468000D01*
D25*
X117730000Y-54230000D02*
X116840000Y-53340000D01*
X116840000Y-53340000D02*
X114300000Y-53340000D01*
X120904000Y-54102000D02*
X120142000Y-53340000D01*
D23*
X127762000Y-49022000D02*
X127762000Y-53848000D01*
X133096000Y-43688000D02*
X127762000Y-49022000D01*
X133096000Y-42926000D02*
X133096000Y-43688000D01*
X120142000Y-53340000D02*
X120904000Y-54102000D01*
X114300000Y-53340000D02*
X120142000Y-53340000D01*
X116840000Y-53340000D02*
X114300000Y-53340000D01*
X117730000Y-54230000D02*
X116840000Y-53340000D01*
X117730000Y-55468000D02*
X117730000Y-54230000D01*
D26*
G36*
X116840000Y-48601159D02*
X115657159Y-49784000D01*
X115573594Y-49784000D01*
X115544415Y-49740330D01*
X115522219Y-49725499D01*
X115675698Y-49661927D01*
X115854327Y-49483299D01*
X115951000Y-49249910D01*
X115951000Y-48997291D01*
X115951000Y-48545750D01*
X115951000Y-47974250D01*
X115951000Y-47522709D01*
X115951000Y-47270090D01*
X115854327Y-47036701D01*
X115675698Y-46858073D01*
X115442309Y-46761400D01*
X114585750Y-46761400D01*
X114427000Y-46920150D01*
X114427000Y-48133000D01*
X115792250Y-48133000D01*
X115951000Y-47974250D01*
X115951000Y-48545750D01*
X115792250Y-48387000D01*
X114427000Y-48387000D01*
X114427000Y-48407000D01*
X114173000Y-48407000D01*
X114173000Y-48387000D01*
X114153000Y-48387000D01*
X114153000Y-48133000D01*
X114173000Y-48133000D01*
X114173000Y-46920150D01*
X114014250Y-46761400D01*
X113257000Y-46761400D01*
X113257000Y-44449438D01*
X113372637Y-44565278D01*
X113973352Y-44814716D01*
X114623795Y-44815284D01*
X115224943Y-44566894D01*
X115685278Y-44107363D01*
X115934716Y-43506648D01*
X115935284Y-42856205D01*
X115686894Y-42255057D01*
X115315486Y-41883000D01*
X116350374Y-41883000D01*
X116344960Y-41910000D01*
X116344960Y-43942000D01*
X116391937Y-44184123D01*
X116531727Y-44396927D01*
X116742760Y-44539377D01*
X116840000Y-44558877D01*
X116840000Y-48601159D01*
X116840000Y-48601159D01*
G37*
X116840000Y-48601159D02*
X115657159Y-49784000D01*
X115573594Y-49784000D01*
X115544415Y-49740330D01*
X115522219Y-49725499D01*
X115675698Y-49661927D01*
X115854327Y-49483299D01*
X115951000Y-49249910D01*
X115951000Y-48997291D01*
X115951000Y-48545750D01*
X115951000Y-47974250D01*
X115951000Y-47522709D01*
X115951000Y-47270090D01*
X115854327Y-47036701D01*
X115675698Y-46858073D01*
X115442309Y-46761400D01*
X114585750Y-46761400D01*
X114427000Y-46920150D01*
X114427000Y-48133000D01*
X115792250Y-48133000D01*
X115951000Y-47974250D01*
X115951000Y-48545750D01*
X115792250Y-48387000D01*
X114427000Y-48387000D01*
X114427000Y-48407000D01*
X114173000Y-48407000D01*
X114173000Y-48387000D01*
X114153000Y-48387000D01*
X114153000Y-48133000D01*
X114173000Y-48133000D01*
X114173000Y-46920150D01*
X114014250Y-46761400D01*
X113257000Y-46761400D01*
X113257000Y-44449438D01*
X113372637Y-44565278D01*
X113973352Y-44814716D01*
X114623795Y-44815284D01*
X115224943Y-44566894D01*
X115685278Y-44107363D01*
X115934716Y-43506648D01*
X115935284Y-42856205D01*
X115686894Y-42255057D01*
X115315486Y-41883000D01*
X116350374Y-41883000D01*
X116344960Y-41910000D01*
X116344960Y-43942000D01*
X116391937Y-44184123D01*
X116531727Y-44396927D01*
X116742760Y-44539377D01*
X116840000Y-44558877D01*
X116840000Y-48601159D01*
G36*
X130983675Y-68468654D02*
X130882623Y-68618360D01*
X130832560Y-68868000D01*
X130832560Y-70068000D01*
X130833056Y-70070560D01*
X130130000Y-70070560D01*
X129887877Y-70117537D01*
X129729345Y-70221675D01*
X129579640Y-70120623D01*
X129330000Y-70070560D01*
X128130000Y-70070560D01*
X127887877Y-70117537D01*
X127729345Y-70221675D01*
X127579640Y-70120623D01*
X127330000Y-70070560D01*
X126130000Y-70070560D01*
X125887877Y-70117537D01*
X125729345Y-70221675D01*
X125579640Y-70120623D01*
X125330000Y-70070560D01*
X124130000Y-70070560D01*
X123887877Y-70117537D01*
X123729345Y-70221675D01*
X123579640Y-70120623D01*
X123330000Y-70070560D01*
X122130000Y-70070560D01*
X121887877Y-70117537D01*
X121729345Y-70221675D01*
X121579640Y-70120623D01*
X121330000Y-70070560D01*
X120615000Y-70070560D01*
X120615000Y-69753750D01*
X120456250Y-69595000D01*
X118857000Y-69595000D01*
X118857000Y-70544250D01*
X119015750Y-70703000D01*
X119485568Y-70703000D01*
X119482560Y-70718000D01*
X119482560Y-72771000D01*
X118603000Y-72771000D01*
X118603000Y-70544250D01*
X118603000Y-69595000D01*
X117003750Y-69595000D01*
X116845000Y-69753750D01*
X116845000Y-70194309D01*
X116941673Y-70427698D01*
X117120301Y-70606327D01*
X117353690Y-70703000D01*
X117606309Y-70703000D01*
X118444250Y-70703000D01*
X118603000Y-70544250D01*
X118603000Y-72771000D01*
X115658453Y-72771000D01*
X115544415Y-72600330D01*
X115234930Y-72393539D01*
X115650732Y-72022036D01*
X115904709Y-71494791D01*
X115907358Y-71479026D01*
X115786217Y-71247000D01*
X114427000Y-71247000D01*
X114427000Y-71267000D01*
X114173000Y-71267000D01*
X114173000Y-71247000D01*
X114153000Y-71247000D01*
X114153000Y-70993000D01*
X114173000Y-70993000D01*
X114173000Y-70973000D01*
X114427000Y-70973000D01*
X114427000Y-70993000D01*
X115786217Y-70993000D01*
X115907358Y-70760974D01*
X115904709Y-70745209D01*
X115650732Y-70217964D01*
X115234930Y-69846460D01*
X115544415Y-69639670D01*
X115869271Y-69153489D01*
X115899942Y-68999293D01*
X116542236Y-68357000D01*
X116910330Y-68357000D01*
X116982741Y-68467232D01*
X116941673Y-68508302D01*
X116845000Y-68741691D01*
X116845000Y-69182250D01*
X117003750Y-69341000D01*
X118603000Y-69341000D01*
X118603000Y-69321000D01*
X118857000Y-69321000D01*
X118857000Y-69341000D01*
X120456250Y-69341000D01*
X120615000Y-69182250D01*
X120615000Y-68741691D01*
X120518327Y-68508302D01*
X120476745Y-68466720D01*
X120577377Y-68317640D01*
X120627440Y-68068000D01*
X120627440Y-66868000D01*
X120580463Y-66625877D01*
X120476324Y-66467345D01*
X120577377Y-66317640D01*
X120627440Y-66068000D01*
X120627440Y-64868000D01*
X120580463Y-64625877D01*
X120476324Y-64467345D01*
X120577377Y-64317640D01*
X120627440Y-64068000D01*
X120627440Y-62868000D01*
X120580463Y-62625877D01*
X120476324Y-62467345D01*
X120577377Y-62317640D01*
X120627440Y-62068000D01*
X120627440Y-60868000D01*
X120580463Y-60625877D01*
X120476324Y-60467345D01*
X120550808Y-60357000D01*
X124849212Y-60357000D01*
X124960582Y-60626535D01*
X125299680Y-60966225D01*
X125742959Y-61150290D01*
X126222935Y-61150709D01*
X126666535Y-60967418D01*
X127006225Y-60628320D01*
X127190290Y-60185041D01*
X127190709Y-59705065D01*
X127007418Y-59261465D01*
X126668320Y-58921775D01*
X126225041Y-58737710D01*
X125984140Y-58737499D01*
X125848206Y-58646671D01*
X125508000Y-58579000D01*
X120549669Y-58579000D01*
X120476324Y-58467345D01*
X120577377Y-58317640D01*
X120627440Y-58068000D01*
X120627440Y-56868000D01*
X120580463Y-56625877D01*
X120476324Y-56467345D01*
X120577377Y-56317640D01*
X120627440Y-56068000D01*
X120627440Y-55293541D01*
X120662959Y-55308290D01*
X121142935Y-55308709D01*
X121586535Y-55125418D01*
X121926225Y-54786320D01*
X122110290Y-54343041D01*
X122110709Y-53863065D01*
X121927418Y-53419465D01*
X121588320Y-53079775D01*
X121145041Y-52895710D01*
X121044660Y-52895622D01*
X120815519Y-52666481D01*
X120506506Y-52460005D01*
X120142000Y-52387500D01*
X116840000Y-52387500D01*
X115616023Y-52387500D01*
X115544415Y-52280330D01*
X115229634Y-52070000D01*
X115544415Y-51859670D01*
X115573594Y-51816000D01*
X116078000Y-51816000D01*
X116078000Y-51815999D01*
X116402299Y-51751492D01*
X116466806Y-51738662D01*
X116466807Y-51738662D01*
X116796420Y-51518420D01*
X118574420Y-49740420D01*
X118574421Y-49740420D01*
X118794662Y-49410807D01*
X118794662Y-49410806D01*
X118872000Y-49022000D01*
X118872000Y-44559871D01*
X118961723Y-44542463D01*
X119174527Y-44402673D01*
X119316977Y-44191640D01*
X119324718Y-44153037D01*
X119336330Y-44170415D01*
X119822511Y-44495271D01*
X120396000Y-44609345D01*
X120969489Y-44495271D01*
X121455670Y-44170415D01*
X121666000Y-43855634D01*
X121876330Y-44170415D01*
X122362511Y-44495271D01*
X122936000Y-44609345D01*
X123509489Y-44495271D01*
X123995670Y-44170415D01*
X124206000Y-43855634D01*
X124347444Y-44067319D01*
X124085382Y-44329382D01*
X123892671Y-44617794D01*
X123825000Y-44958000D01*
X123825000Y-54356000D01*
X123892671Y-54696206D01*
X124085382Y-54984618D01*
X124847382Y-55746618D01*
X126625382Y-57524618D01*
X127387382Y-58286618D01*
X127675794Y-58479329D01*
X127675795Y-58479329D01*
X128016000Y-58547000D01*
X130302000Y-58547000D01*
X130642205Y-58479329D01*
X130642206Y-58479329D01*
X130825283Y-58357000D01*
X130825284Y-58357000D01*
X130910330Y-58357000D01*
X130983675Y-58468654D01*
X130882623Y-58618360D01*
X130832560Y-58868000D01*
X130832560Y-60068000D01*
X130879537Y-60310123D01*
X130983675Y-60468654D01*
X130882623Y-60618360D01*
X130832560Y-60868000D01*
X130832560Y-62068000D01*
X130879537Y-62310123D01*
X130983675Y-62468654D01*
X130952054Y-62515500D01*
X129499979Y-62515500D01*
X129462320Y-62477775D01*
X129019041Y-62293710D01*
X128539065Y-62293291D01*
X128095465Y-62476582D01*
X127755775Y-62815680D01*
X127571710Y-63258959D01*
X127571291Y-63738935D01*
X127754582Y-64182535D01*
X128093680Y-64522225D01*
X128536959Y-64706290D01*
X129016935Y-64706709D01*
X129460535Y-64523418D01*
X129563632Y-64420500D01*
X130952043Y-64420500D01*
X130983675Y-64468654D01*
X130882623Y-64618360D01*
X130832560Y-64868000D01*
X130832560Y-66068000D01*
X130879537Y-66310123D01*
X130983675Y-66468654D01*
X130882623Y-66618360D01*
X130832560Y-66868000D01*
X130832560Y-68068000D01*
X130879537Y-68310123D01*
X130983675Y-68468654D01*
X130983675Y-68468654D01*
G37*
X130983675Y-68468654D02*
X130882623Y-68618360D01*
X130832560Y-68868000D01*
X130832560Y-70068000D01*
X130833056Y-70070560D01*
X130130000Y-70070560D01*
X129887877Y-70117537D01*
X129729345Y-70221675D01*
X129579640Y-70120623D01*
X129330000Y-70070560D01*
X128130000Y-70070560D01*
X127887877Y-70117537D01*
X127729345Y-70221675D01*
X127579640Y-70120623D01*
X127330000Y-70070560D01*
X126130000Y-70070560D01*
X125887877Y-70117537D01*
X125729345Y-70221675D01*
X125579640Y-70120623D01*
X125330000Y-70070560D01*
X124130000Y-70070560D01*
X123887877Y-70117537D01*
X123729345Y-70221675D01*
X123579640Y-70120623D01*
X123330000Y-70070560D01*
X122130000Y-70070560D01*
X121887877Y-70117537D01*
X121729345Y-70221675D01*
X121579640Y-70120623D01*
X121330000Y-70070560D01*
X120615000Y-70070560D01*
X120615000Y-69753750D01*
X120456250Y-69595000D01*
X118857000Y-69595000D01*
X118857000Y-70544250D01*
X119015750Y-70703000D01*
X119485568Y-70703000D01*
X119482560Y-70718000D01*
X119482560Y-72771000D01*
X118603000Y-72771000D01*
X118603000Y-70544250D01*
X118603000Y-69595000D01*
X117003750Y-69595000D01*
X116845000Y-69753750D01*
X116845000Y-70194309D01*
X116941673Y-70427698D01*
X117120301Y-70606327D01*
X117353690Y-70703000D01*
X117606309Y-70703000D01*
X118444250Y-70703000D01*
X118603000Y-70544250D01*
X118603000Y-72771000D01*
X115658453Y-72771000D01*
X115544415Y-72600330D01*
X115234930Y-72393539D01*
X115650732Y-72022036D01*
X115904709Y-71494791D01*
X115907358Y-71479026D01*
X115786217Y-71247000D01*
X114427000Y-71247000D01*
X114427000Y-71267000D01*
X114173000Y-71267000D01*
X114173000Y-71247000D01*
X114153000Y-71247000D01*
X114153000Y-70993000D01*
X114173000Y-70993000D01*
X114173000Y-70973000D01*
X114427000Y-70973000D01*
X114427000Y-70993000D01*
X115786217Y-70993000D01*
X115907358Y-70760974D01*
X115904709Y-70745209D01*
X115650732Y-70217964D01*
X115234930Y-69846460D01*
X115544415Y-69639670D01*
X115869271Y-69153489D01*
X115899942Y-68999293D01*
X116542236Y-68357000D01*
X116910330Y-68357000D01*
X116982741Y-68467232D01*
X116941673Y-68508302D01*
X116845000Y-68741691D01*
X116845000Y-69182250D01*
X117003750Y-69341000D01*
X118603000Y-69341000D01*
X118603000Y-69321000D01*
X118857000Y-69321000D01*
X118857000Y-69341000D01*
X120456250Y-69341000D01*
X120615000Y-69182250D01*
X120615000Y-68741691D01*
X120518327Y-68508302D01*
X120476745Y-68466720D01*
X120577377Y-68317640D01*
X120627440Y-68068000D01*
X120627440Y-66868000D01*
X120580463Y-66625877D01*
X120476324Y-66467345D01*
X120577377Y-66317640D01*
X120627440Y-66068000D01*
X120627440Y-64868000D01*
X120580463Y-64625877D01*
X120476324Y-64467345D01*
X120577377Y-64317640D01*
X120627440Y-64068000D01*
X120627440Y-62868000D01*
X120580463Y-62625877D01*
X120476324Y-62467345D01*
X120577377Y-62317640D01*
X120627440Y-62068000D01*
X120627440Y-60868000D01*
X120580463Y-60625877D01*
X120476324Y-60467345D01*
X120550808Y-60357000D01*
X124849212Y-60357000D01*
X124960582Y-60626535D01*
X125299680Y-60966225D01*
X125742959Y-61150290D01*
X126222935Y-61150709D01*
X126666535Y-60967418D01*
X127006225Y-60628320D01*
X127190290Y-60185041D01*
X127190709Y-59705065D01*
X127007418Y-59261465D01*
X126668320Y-58921775D01*
X126225041Y-58737710D01*
X125984140Y-58737499D01*
X125848206Y-58646671D01*
X125508000Y-58579000D01*
X120549669Y-58579000D01*
X120476324Y-58467345D01*
X120577377Y-58317640D01*
X120627440Y-58068000D01*
X120627440Y-56868000D01*
X120580463Y-56625877D01*
X120476324Y-56467345D01*
X120577377Y-56317640D01*
X120627440Y-56068000D01*
X120627440Y-55293541D01*
X120662959Y-55308290D01*
X121142935Y-55308709D01*
X121586535Y-55125418D01*
X121926225Y-54786320D01*
X122110290Y-54343041D01*
X122110709Y-53863065D01*
X121927418Y-53419465D01*
X121588320Y-53079775D01*
X121145041Y-52895710D01*
X121044660Y-52895622D01*
X120815519Y-52666481D01*
X120506506Y-52460005D01*
X120142000Y-52387500D01*
X116840000Y-52387500D01*
X115616023Y-52387500D01*
X115544415Y-52280330D01*
X115229634Y-52070000D01*
X115544415Y-51859670D01*
X115573594Y-51816000D01*
X116078000Y-51816000D01*
X116078000Y-51815999D01*
X116402299Y-51751492D01*
X116466806Y-51738662D01*
X116466807Y-51738662D01*
X116796420Y-51518420D01*
X118574420Y-49740420D01*
X118574421Y-49740420D01*
X118794662Y-49410807D01*
X118794662Y-49410806D01*
X118872000Y-49022000D01*
X118872000Y-44559871D01*
X118961723Y-44542463D01*
X119174527Y-44402673D01*
X119316977Y-44191640D01*
X119324718Y-44153037D01*
X119336330Y-44170415D01*
X119822511Y-44495271D01*
X120396000Y-44609345D01*
X120969489Y-44495271D01*
X121455670Y-44170415D01*
X121666000Y-43855634D01*
X121876330Y-44170415D01*
X122362511Y-44495271D01*
X122936000Y-44609345D01*
X123509489Y-44495271D01*
X123995670Y-44170415D01*
X124206000Y-43855634D01*
X124347444Y-44067319D01*
X124085382Y-44329382D01*
X123892671Y-44617794D01*
X123825000Y-44958000D01*
X123825000Y-54356000D01*
X123892671Y-54696206D01*
X124085382Y-54984618D01*
X124847382Y-55746618D01*
X126625382Y-57524618D01*
X127387382Y-58286618D01*
X127675794Y-58479329D01*
X127675795Y-58479329D01*
X128016000Y-58547000D01*
X130302000Y-58547000D01*
X130642205Y-58479329D01*
X130642206Y-58479329D01*
X130825283Y-58357000D01*
X130825284Y-58357000D01*
X130910330Y-58357000D01*
X130983675Y-58468654D01*
X130882623Y-58618360D01*
X130832560Y-58868000D01*
X130832560Y-60068000D01*
X130879537Y-60310123D01*
X130983675Y-60468654D01*
X130882623Y-60618360D01*
X130832560Y-60868000D01*
X130832560Y-62068000D01*
X130879537Y-62310123D01*
X130983675Y-62468654D01*
X130952054Y-62515500D01*
X129499979Y-62515500D01*
X129462320Y-62477775D01*
X129019041Y-62293710D01*
X128539065Y-62293291D01*
X128095465Y-62476582D01*
X127755775Y-62815680D01*
X127571710Y-63258959D01*
X127571291Y-63738935D01*
X127754582Y-64182535D01*
X128093680Y-64522225D01*
X128536959Y-64706290D01*
X129016935Y-64706709D01*
X129460535Y-64523418D01*
X129563632Y-64420500D01*
X130952043Y-64420500D01*
X130983675Y-64468654D01*
X130882623Y-64618360D01*
X130832560Y-64868000D01*
X130832560Y-66068000D01*
X130879537Y-66310123D01*
X130983675Y-66468654D01*
X130882623Y-66618360D01*
X130832560Y-66868000D01*
X130832560Y-68068000D01*
X130879537Y-68310123D01*
X130983675Y-68468654D01*
M02*
