G04 #@! TF.FileFunction,Legend,Top*
%FSLAX46Y46*%
G04 Gerber Fmt 4.6, Leading zero omitted, Abs format (unit mm)*
G04 Created by KiCad (PCBNEW (2015-01-16 BZR 5376)-product) date 7/15/2015 11:03:26 AM*
%MOMM*%
G01*
G04 APERTURE LIST*
%ADD10C,0.100000*%
%ADD11C,0.222250*%
%ADD12C,0.200000*%
%ADD13C,0.250000*%
%ADD14C,0.150000*%
%ADD15C,0.381000*%
G04 APERTURE END LIST*
D10*
D11*
X132080001Y-45487167D02*
X132080001Y-44598167D01*
X132291667Y-44598167D01*
X132418667Y-44640500D01*
X132503334Y-44725167D01*
X132545667Y-44809833D01*
X132588001Y-44979167D01*
X132588001Y-45106167D01*
X132545667Y-45275500D01*
X132503334Y-45360167D01*
X132418667Y-45444833D01*
X132291667Y-45487167D01*
X132080001Y-45487167D01*
X132842001Y-44598167D02*
X133350001Y-44598167D01*
X133096001Y-45487167D02*
X133096001Y-44598167D01*
X134154334Y-45487167D02*
X133858000Y-45063833D01*
X133646334Y-45487167D02*
X133646334Y-44598167D01*
X133985000Y-44598167D01*
X134069667Y-44640500D01*
X134112000Y-44682833D01*
X134154334Y-44767500D01*
X134154334Y-44894500D01*
X134112000Y-44979167D01*
X134069667Y-45021500D01*
X133985000Y-45063833D01*
X133646334Y-45063833D01*
X129984501Y-45487167D02*
X129984501Y-44598167D01*
X130492501Y-45487167D01*
X130492501Y-44598167D01*
X131423834Y-45402500D02*
X131381500Y-45444833D01*
X131254500Y-45487167D01*
X131169834Y-45487167D01*
X131042834Y-45444833D01*
X130958167Y-45360167D01*
X130915834Y-45275500D01*
X130873500Y-45106167D01*
X130873500Y-44979167D01*
X130915834Y-44809833D01*
X130958167Y-44725167D01*
X131042834Y-44640500D01*
X131169834Y-44598167D01*
X131254500Y-44598167D01*
X131381500Y-44640500D01*
X131423834Y-44682833D01*
X127338667Y-44598167D02*
X127846667Y-44598167D01*
X127592667Y-45487167D02*
X127592667Y-44598167D01*
X128058333Y-44598167D02*
X128651000Y-45487167D01*
X128651000Y-44598167D02*
X128058333Y-45487167D01*
X125327834Y-45487167D02*
X125031500Y-45063833D01*
X124819834Y-45487167D02*
X124819834Y-44598167D01*
X125158500Y-44598167D01*
X125243167Y-44640500D01*
X125285500Y-44682833D01*
X125327834Y-44767500D01*
X125327834Y-44894500D01*
X125285500Y-44979167D01*
X125243167Y-45021500D01*
X125158500Y-45063833D01*
X124819834Y-45063833D01*
X125624167Y-44598167D02*
X126216834Y-45487167D01*
X126216834Y-44598167D02*
X125624167Y-45487167D01*
X122766667Y-44598167D02*
X122343334Y-44598167D01*
X122301000Y-45021500D01*
X122343334Y-44979167D01*
X122428000Y-44936833D01*
X122639667Y-44936833D01*
X122724334Y-44979167D01*
X122766667Y-45021500D01*
X122809000Y-45106167D01*
X122809000Y-45317833D01*
X122766667Y-45402500D01*
X122724334Y-45444833D01*
X122639667Y-45487167D01*
X122428000Y-45487167D01*
X122343334Y-45444833D01*
X122301000Y-45402500D01*
X123063001Y-44598167D02*
X123359334Y-45487167D01*
X123655667Y-44598167D01*
X119697501Y-45487167D02*
X119697501Y-44598167D01*
X120205501Y-45487167D01*
X120205501Y-44598167D01*
X121136834Y-45402500D02*
X121094500Y-45444833D01*
X120967500Y-45487167D01*
X120882834Y-45487167D01*
X120755834Y-45444833D01*
X120671167Y-45360167D01*
X120628834Y-45275500D01*
X120586500Y-45106167D01*
X120586500Y-44979167D01*
X120628834Y-44809833D01*
X120671167Y-44725167D01*
X120755834Y-44640500D01*
X120882834Y-44598167D01*
X120967500Y-44598167D01*
X121094500Y-44640500D01*
X121136834Y-44682833D01*
X117834833Y-44767500D02*
X117750167Y-44725167D01*
X117623167Y-44725167D01*
X117496167Y-44767500D01*
X117411500Y-44852167D01*
X117369167Y-44936833D01*
X117326833Y-45106167D01*
X117326833Y-45233167D01*
X117369167Y-45402500D01*
X117411500Y-45487167D01*
X117496167Y-45571833D01*
X117623167Y-45614167D01*
X117707833Y-45614167D01*
X117834833Y-45571833D01*
X117877167Y-45529500D01*
X117877167Y-45233167D01*
X117707833Y-45233167D01*
D12*
X115964807Y-83508857D02*
X116231474Y-83508857D01*
X116345760Y-83927905D02*
X115964807Y-83927905D01*
X115964807Y-83127905D01*
X116345760Y-83127905D01*
X116612427Y-83927905D02*
X117031474Y-83394571D01*
X116612427Y-83394571D02*
X117031474Y-83927905D01*
X117336236Y-83394571D02*
X117336236Y-84194571D01*
X117336236Y-83432667D02*
X117412427Y-83394571D01*
X117564808Y-83394571D01*
X117640998Y-83432667D01*
X117679093Y-83470762D01*
X117717189Y-83546952D01*
X117717189Y-83775524D01*
X117679093Y-83851714D01*
X117640998Y-83889810D01*
X117564808Y-83927905D01*
X117412427Y-83927905D01*
X117336236Y-83889810D01*
X118174332Y-83927905D02*
X118098141Y-83889810D01*
X118060046Y-83813619D01*
X118060046Y-83127905D01*
X118593380Y-83927905D02*
X118517189Y-83889810D01*
X118479094Y-83851714D01*
X118440999Y-83775524D01*
X118440999Y-83546952D01*
X118479094Y-83470762D01*
X118517189Y-83432667D01*
X118593380Y-83394571D01*
X118707666Y-83394571D01*
X118783856Y-83432667D01*
X118821951Y-83470762D01*
X118860047Y-83546952D01*
X118860047Y-83775524D01*
X118821951Y-83851714D01*
X118783856Y-83889810D01*
X118707666Y-83927905D01*
X118593380Y-83927905D01*
X119202904Y-83927905D02*
X119202904Y-83394571D01*
X119202904Y-83546952D02*
X119240999Y-83470762D01*
X119279095Y-83432667D01*
X119355285Y-83394571D01*
X119431476Y-83394571D01*
X120002904Y-83889810D02*
X119926714Y-83927905D01*
X119774333Y-83927905D01*
X119698142Y-83889810D01*
X119660047Y-83813619D01*
X119660047Y-83508857D01*
X119698142Y-83432667D01*
X119774333Y-83394571D01*
X119926714Y-83394571D01*
X120002904Y-83432667D01*
X120040999Y-83508857D01*
X120040999Y-83585048D01*
X119660047Y-83661238D01*
X120993380Y-83508857D02*
X121260047Y-83508857D01*
X121374333Y-83927905D02*
X120993380Y-83927905D01*
X120993380Y-83127905D01*
X121374333Y-83127905D01*
X121679095Y-83889810D02*
X121793381Y-83927905D01*
X121983857Y-83927905D01*
X122060047Y-83889810D01*
X122098143Y-83851714D01*
X122136238Y-83775524D01*
X122136238Y-83699333D01*
X122098143Y-83623143D01*
X122060047Y-83585048D01*
X121983857Y-83546952D01*
X121831476Y-83508857D01*
X121755285Y-83470762D01*
X121717190Y-83432667D01*
X121679095Y-83356476D01*
X121679095Y-83280286D01*
X121717190Y-83204095D01*
X121755285Y-83166000D01*
X121831476Y-83127905D01*
X122021952Y-83127905D01*
X122136238Y-83166000D01*
X122479095Y-83927905D02*
X122479095Y-83127905D01*
X122783857Y-83127905D01*
X122860048Y-83166000D01*
X122898143Y-83204095D01*
X122936238Y-83280286D01*
X122936238Y-83394571D01*
X122898143Y-83470762D01*
X122860048Y-83508857D01*
X122783857Y-83546952D01*
X122479095Y-83546952D01*
X123393381Y-83470762D02*
X123317190Y-83432667D01*
X123279095Y-83394571D01*
X123241000Y-83318381D01*
X123241000Y-83280286D01*
X123279095Y-83204095D01*
X123317190Y-83166000D01*
X123393381Y-83127905D01*
X123545762Y-83127905D01*
X123621952Y-83166000D01*
X123660048Y-83204095D01*
X123698143Y-83280286D01*
X123698143Y-83318381D01*
X123660048Y-83394571D01*
X123621952Y-83432667D01*
X123545762Y-83470762D01*
X123393381Y-83470762D01*
X123317190Y-83508857D01*
X123279095Y-83546952D01*
X123241000Y-83623143D01*
X123241000Y-83775524D01*
X123279095Y-83851714D01*
X123317190Y-83889810D01*
X123393381Y-83927905D01*
X123545762Y-83927905D01*
X123621952Y-83889810D01*
X123660048Y-83851714D01*
X123698143Y-83775524D01*
X123698143Y-83623143D01*
X123660048Y-83546952D01*
X123621952Y-83508857D01*
X123545762Y-83470762D01*
X124002905Y-83204095D02*
X124041000Y-83166000D01*
X124117191Y-83127905D01*
X124307667Y-83127905D01*
X124383857Y-83166000D01*
X124421953Y-83204095D01*
X124460048Y-83280286D01*
X124460048Y-83356476D01*
X124421953Y-83470762D01*
X123964810Y-83927905D01*
X124460048Y-83927905D01*
X125145762Y-83127905D02*
X124993381Y-83127905D01*
X124917191Y-83166000D01*
X124879096Y-83204095D01*
X124802905Y-83318381D01*
X124764810Y-83470762D01*
X124764810Y-83775524D01*
X124802905Y-83851714D01*
X124841000Y-83889810D01*
X124917191Y-83927905D01*
X125069572Y-83927905D01*
X125145762Y-83889810D01*
X125183858Y-83851714D01*
X125221953Y-83775524D01*
X125221953Y-83585048D01*
X125183858Y-83508857D01*
X125145762Y-83470762D01*
X125069572Y-83432667D01*
X124917191Y-83432667D01*
X124841000Y-83470762D01*
X124802905Y-83508857D01*
X124764810Y-83585048D01*
X125907667Y-83127905D02*
X125755286Y-83127905D01*
X125679096Y-83166000D01*
X125641001Y-83204095D01*
X125564810Y-83318381D01*
X125526715Y-83470762D01*
X125526715Y-83775524D01*
X125564810Y-83851714D01*
X125602905Y-83889810D01*
X125679096Y-83927905D01*
X125831477Y-83927905D01*
X125907667Y-83889810D01*
X125945763Y-83851714D01*
X125983858Y-83775524D01*
X125983858Y-83585048D01*
X125945763Y-83508857D01*
X125907667Y-83470762D01*
X125831477Y-83432667D01*
X125679096Y-83432667D01*
X125602905Y-83470762D01*
X125564810Y-83508857D01*
X125526715Y-83585048D01*
X126860049Y-83127905D02*
X127050525Y-83927905D01*
X127202906Y-83356476D01*
X127355287Y-83927905D01*
X127545763Y-83127905D01*
X127850525Y-83927905D02*
X127850525Y-83394571D01*
X127850525Y-83127905D02*
X127812430Y-83166000D01*
X127850525Y-83204095D01*
X127888620Y-83166000D01*
X127850525Y-83127905D01*
X127850525Y-83204095D01*
X128498144Y-83508857D02*
X128231477Y-83508857D01*
X128231477Y-83927905D02*
X128231477Y-83127905D01*
X128612430Y-83127905D01*
X128917191Y-83927905D02*
X128917191Y-83394571D01*
X128917191Y-83127905D02*
X128879096Y-83166000D01*
X128917191Y-83204095D01*
X128955286Y-83166000D01*
X128917191Y-83127905D01*
X128917191Y-83204095D01*
X129907667Y-83927905D02*
X129907667Y-83127905D01*
X130174334Y-83699333D01*
X130441001Y-83127905D01*
X130441001Y-83927905D01*
X130936239Y-83927905D02*
X130860048Y-83889810D01*
X130821953Y-83851714D01*
X130783858Y-83775524D01*
X130783858Y-83546952D01*
X130821953Y-83470762D01*
X130860048Y-83432667D01*
X130936239Y-83394571D01*
X131050525Y-83394571D01*
X131126715Y-83432667D01*
X131164810Y-83470762D01*
X131202906Y-83546952D01*
X131202906Y-83775524D01*
X131164810Y-83851714D01*
X131126715Y-83889810D01*
X131050525Y-83927905D01*
X130936239Y-83927905D01*
X131888620Y-83927905D02*
X131888620Y-83127905D01*
X131888620Y-83889810D02*
X131812430Y-83927905D01*
X131660049Y-83927905D01*
X131583858Y-83889810D01*
X131545763Y-83851714D01*
X131507668Y-83775524D01*
X131507668Y-83546952D01*
X131545763Y-83470762D01*
X131583858Y-83432667D01*
X131660049Y-83394571D01*
X131812430Y-83394571D01*
X131888620Y-83432667D01*
X132612430Y-83394571D02*
X132612430Y-83927905D01*
X132269573Y-83394571D02*
X132269573Y-83813619D01*
X132307668Y-83889810D01*
X132383859Y-83927905D01*
X132498145Y-83927905D01*
X132574335Y-83889810D01*
X132612430Y-83851714D01*
X133107669Y-83927905D02*
X133031478Y-83889810D01*
X132993383Y-83813619D01*
X132993383Y-83127905D01*
X133717193Y-83889810D02*
X133641003Y-83927905D01*
X133488622Y-83927905D01*
X133412431Y-83889810D01*
X133374336Y-83813619D01*
X133374336Y-83508857D01*
X133412431Y-83432667D01*
X133488622Y-83394571D01*
X133641003Y-83394571D01*
X133717193Y-83432667D01*
X133755288Y-83508857D01*
X133755288Y-83585048D01*
X133374336Y-83661238D01*
D13*
X134199381Y-48450476D02*
X134199381Y-48926667D01*
X134675571Y-48974286D01*
X134627952Y-48926667D01*
X134580333Y-48831429D01*
X134580333Y-48593333D01*
X134627952Y-48498095D01*
X134675571Y-48450476D01*
X134770810Y-48402857D01*
X135008905Y-48402857D01*
X135104143Y-48450476D01*
X135151762Y-48498095D01*
X135199381Y-48593333D01*
X135199381Y-48831429D01*
X135151762Y-48926667D01*
X135104143Y-48974286D01*
X134199381Y-48117143D02*
X135199381Y-47783810D01*
X134199381Y-47450476D01*
X134247000Y-50665095D02*
X134199381Y-50760333D01*
X134199381Y-50903190D01*
X134247000Y-51046048D01*
X134342238Y-51141286D01*
X134437476Y-51188905D01*
X134627952Y-51236524D01*
X134770810Y-51236524D01*
X134961286Y-51188905D01*
X135056524Y-51141286D01*
X135151762Y-51046048D01*
X135199381Y-50903190D01*
X135199381Y-50807952D01*
X135151762Y-50665095D01*
X135104143Y-50617476D01*
X134770810Y-50617476D01*
X134770810Y-50807952D01*
X134326381Y-54228905D02*
X134326381Y-53657476D01*
X135326381Y-53943191D02*
X134326381Y-53943191D01*
X134326381Y-53419381D02*
X135326381Y-52752714D01*
X134326381Y-52752714D02*
X135326381Y-53419381D01*
D11*
X135453381Y-56173666D02*
X134977190Y-56507000D01*
X135453381Y-56745095D02*
X134453381Y-56745095D01*
X134453381Y-56364142D01*
X134501000Y-56268904D01*
X134548619Y-56221285D01*
X134643857Y-56173666D01*
X134786714Y-56173666D01*
X134881952Y-56221285D01*
X134929571Y-56268904D01*
X134977190Y-56364142D01*
X134977190Y-56745095D01*
X134453381Y-55840333D02*
X135453381Y-55173666D01*
X134453381Y-55173666D02*
X135453381Y-55840333D01*
D13*
X134453381Y-58181904D02*
X134453381Y-58658095D01*
X134929571Y-58705714D01*
X134881952Y-58658095D01*
X134834333Y-58562857D01*
X134834333Y-58324761D01*
X134881952Y-58229523D01*
X134929571Y-58181904D01*
X135024810Y-58134285D01*
X135262905Y-58134285D01*
X135358143Y-58181904D01*
X135405762Y-58229523D01*
X135453381Y-58324761D01*
X135453381Y-58562857D01*
X135405762Y-58658095D01*
X135358143Y-58705714D01*
X134786714Y-60769523D02*
X135453381Y-60769523D01*
X134405762Y-61007619D02*
X135120048Y-61245714D01*
X135120048Y-60626666D01*
X134453381Y-63547619D02*
X134453381Y-63452380D01*
X134501000Y-63357142D01*
X134548619Y-63309523D01*
X134643857Y-63261904D01*
X134834333Y-63214285D01*
X135072429Y-63214285D01*
X135262905Y-63261904D01*
X135358143Y-63309523D01*
X135405762Y-63357142D01*
X135453381Y-63452380D01*
X135453381Y-63547619D01*
X135405762Y-63642857D01*
X135358143Y-63690476D01*
X135262905Y-63738095D01*
X135072429Y-63785714D01*
X134834333Y-63785714D01*
X134643857Y-63738095D01*
X134548619Y-63690476D01*
X134501000Y-63642857D01*
X134453381Y-63547619D01*
X134548619Y-66325714D02*
X134501000Y-66278095D01*
X134453381Y-66182857D01*
X134453381Y-65944761D01*
X134501000Y-65849523D01*
X134548619Y-65801904D01*
X134643857Y-65754285D01*
X134739095Y-65754285D01*
X134881952Y-65801904D01*
X135453381Y-66373333D01*
X135453381Y-65754285D01*
X135453381Y-68770476D02*
X135453381Y-69341905D01*
X135453381Y-69056191D02*
X134453381Y-69056191D01*
X134596238Y-69151429D01*
X134691476Y-69246667D01*
X134739095Y-69341905D01*
X134453381Y-67865714D02*
X134453381Y-68341905D01*
X134929571Y-68389524D01*
X134881952Y-68341905D01*
X134834333Y-68246667D01*
X134834333Y-68008571D01*
X134881952Y-67913333D01*
X134929571Y-67865714D01*
X135024810Y-67818095D01*
X135262905Y-67818095D01*
X135358143Y-67865714D01*
X135405762Y-67913333D01*
X135453381Y-68008571D01*
X135453381Y-68246667D01*
X135405762Y-68341905D01*
X135358143Y-68389524D01*
X134628000Y-70858095D02*
X134580381Y-70953333D01*
X134580381Y-71096190D01*
X134628000Y-71239048D01*
X134723238Y-71334286D01*
X134818476Y-71381905D01*
X135008952Y-71429524D01*
X135151810Y-71429524D01*
X135342286Y-71381905D01*
X135437524Y-71334286D01*
X135532762Y-71239048D01*
X135580381Y-71096190D01*
X135580381Y-71000952D01*
X135532762Y-70858095D01*
X135485143Y-70810476D01*
X135151810Y-70810476D01*
X135151810Y-71000952D01*
D11*
X132969000Y-74019833D02*
X133096000Y-74062167D01*
X133307667Y-74062167D01*
X133392334Y-74019833D01*
X133434667Y-73977500D01*
X133477000Y-73892833D01*
X133477000Y-73808167D01*
X133434667Y-73723500D01*
X133392334Y-73681167D01*
X133307667Y-73638833D01*
X133138334Y-73596500D01*
X133053667Y-73554167D01*
X133011334Y-73511833D01*
X132969000Y-73427167D01*
X132969000Y-73342500D01*
X133011334Y-73257833D01*
X133053667Y-73215500D01*
X133138334Y-73173167D01*
X133350000Y-73173167D01*
X133477000Y-73215500D01*
X134366001Y-73977500D02*
X134323667Y-74019833D01*
X134196667Y-74062167D01*
X134112001Y-74062167D01*
X133985001Y-74019833D01*
X133900334Y-73935167D01*
X133858001Y-73850500D01*
X133815667Y-73681167D01*
X133815667Y-73554167D01*
X133858001Y-73384833D01*
X133900334Y-73300167D01*
X133985001Y-73215500D01*
X134112001Y-73173167D01*
X134196667Y-73173167D01*
X134323667Y-73215500D01*
X134366001Y-73257833D01*
X134747001Y-74062167D02*
X134747001Y-73173167D01*
X135255001Y-74062167D02*
X134874001Y-73554167D01*
X135255001Y-73173167D02*
X134747001Y-73681167D01*
D13*
X132286572Y-76652381D02*
X132286572Y-75652381D01*
X132619906Y-76366667D01*
X132953239Y-75652381D01*
X132953239Y-76652381D01*
X133619905Y-75652381D02*
X133810382Y-75652381D01*
X133905620Y-75700000D01*
X134000858Y-75795238D01*
X134048477Y-75985714D01*
X134048477Y-76319048D01*
X134000858Y-76509524D01*
X133905620Y-76604762D01*
X133810382Y-76652381D01*
X133619905Y-76652381D01*
X133524667Y-76604762D01*
X133429429Y-76509524D01*
X133381810Y-76319048D01*
X133381810Y-75985714D01*
X133429429Y-75795238D01*
X133524667Y-75700000D01*
X133619905Y-75652381D01*
X134429429Y-76604762D02*
X134572286Y-76652381D01*
X134810382Y-76652381D01*
X134905620Y-76604762D01*
X134953239Y-76557143D01*
X135000858Y-76461905D01*
X135000858Y-76366667D01*
X134953239Y-76271429D01*
X134905620Y-76223810D01*
X134810382Y-76176190D01*
X134619905Y-76128571D01*
X134524667Y-76080952D01*
X134477048Y-76033333D01*
X134429429Y-75938095D01*
X134429429Y-75842857D01*
X134477048Y-75747619D01*
X134524667Y-75700000D01*
X134619905Y-75652381D01*
X134858001Y-75652381D01*
X135000858Y-75700000D01*
X135429429Y-76652381D02*
X135429429Y-75652381D01*
X134429524Y-79192381D02*
X133858095Y-79192381D01*
X134143809Y-79192381D02*
X134143809Y-78192381D01*
X134048571Y-78335238D01*
X133953333Y-78430476D01*
X133858095Y-78478095D01*
X135048571Y-78192381D02*
X135143810Y-78192381D01*
X135239048Y-78240000D01*
X135286667Y-78287619D01*
X135334286Y-78382857D01*
X135381905Y-78573333D01*
X135381905Y-78811429D01*
X135334286Y-79001905D01*
X135286667Y-79097143D01*
X135239048Y-79144762D01*
X135143810Y-79192381D01*
X135048571Y-79192381D01*
X134953333Y-79144762D01*
X134905714Y-79097143D01*
X134858095Y-79001905D01*
X134810476Y-78811429D01*
X134810476Y-78573333D01*
X134858095Y-78382857D01*
X134905714Y-78287619D01*
X134953333Y-78240000D01*
X135048571Y-78192381D01*
X116395524Y-79192381D02*
X116586000Y-79192381D01*
X116681239Y-79144762D01*
X116728858Y-79097143D01*
X116824096Y-78954286D01*
X116871715Y-78763810D01*
X116871715Y-78382857D01*
X116824096Y-78287619D01*
X116776477Y-78240000D01*
X116681239Y-78192381D01*
X116490762Y-78192381D01*
X116395524Y-78240000D01*
X116347905Y-78287619D01*
X116300286Y-78382857D01*
X116300286Y-78620952D01*
X116347905Y-78716190D01*
X116395524Y-78763810D01*
X116490762Y-78811429D01*
X116681239Y-78811429D01*
X116776477Y-78763810D01*
X116824096Y-78716190D01*
X116871715Y-78620952D01*
X115903572Y-76652381D02*
X115903572Y-75652381D01*
X116236906Y-76366667D01*
X116570239Y-75652381D01*
X116570239Y-76652381D01*
X117046429Y-76652381D02*
X117046429Y-75652381D01*
X117475000Y-76604762D02*
X117617857Y-76652381D01*
X117855953Y-76652381D01*
X117951191Y-76604762D01*
X117998810Y-76557143D01*
X118046429Y-76461905D01*
X118046429Y-76366667D01*
X117998810Y-76271429D01*
X117951191Y-76223810D01*
X117855953Y-76176190D01*
X117665476Y-76128571D01*
X117570238Y-76080952D01*
X117522619Y-76033333D01*
X117475000Y-75938095D01*
X117475000Y-75842857D01*
X117522619Y-75747619D01*
X117570238Y-75700000D01*
X117665476Y-75652381D01*
X117903572Y-75652381D01*
X118046429Y-75700000D01*
X118665476Y-75652381D02*
X118855953Y-75652381D01*
X118951191Y-75700000D01*
X119046429Y-75795238D01*
X119094048Y-75985714D01*
X119094048Y-76319048D01*
X119046429Y-76509524D01*
X118951191Y-76604762D01*
X118855953Y-76652381D01*
X118665476Y-76652381D01*
X118570238Y-76604762D01*
X118475000Y-76509524D01*
X118427381Y-76319048D01*
X118427381Y-75985714D01*
X118475000Y-75795238D01*
X118570238Y-75700000D01*
X118665476Y-75652381D01*
X116530524Y-74017143D02*
X116482905Y-74064762D01*
X116340048Y-74112381D01*
X116244810Y-74112381D01*
X116101952Y-74064762D01*
X116006714Y-73969524D01*
X115959095Y-73874286D01*
X115911476Y-73683810D01*
X115911476Y-73540952D01*
X115959095Y-73350476D01*
X116006714Y-73255238D01*
X116101952Y-73160000D01*
X116244810Y-73112381D01*
X116340048Y-73112381D01*
X116482905Y-73160000D01*
X116530524Y-73207619D01*
X116911476Y-74064762D02*
X117054333Y-74112381D01*
X117292429Y-74112381D01*
X117387667Y-74064762D01*
X117435286Y-74017143D01*
X117482905Y-73921905D01*
X117482905Y-73826667D01*
X117435286Y-73731429D01*
X117387667Y-73683810D01*
X117292429Y-73636190D01*
X117101952Y-73588571D01*
X117006714Y-73540952D01*
X116959095Y-73493333D01*
X116911476Y-73398095D01*
X116911476Y-73302857D01*
X116959095Y-73207619D01*
X117006714Y-73160000D01*
X117101952Y-73112381D01*
X117340048Y-73112381D01*
X117482905Y-73160000D01*
X118101952Y-73112381D02*
X118292429Y-73112381D01*
X118387667Y-73160000D01*
X118482905Y-73255238D01*
X118530524Y-73445714D01*
X118530524Y-73779048D01*
X118482905Y-73969524D01*
X118387667Y-74064762D01*
X118292429Y-74112381D01*
X118101952Y-74112381D01*
X118006714Y-74064762D01*
X117911476Y-73969524D01*
X117863857Y-73779048D01*
X117863857Y-73445714D01*
X117911476Y-73255238D01*
X118006714Y-73160000D01*
X118101952Y-73112381D01*
X117006619Y-70072381D02*
X117006619Y-70691429D01*
X116625667Y-70358095D01*
X116625667Y-70500953D01*
X116578048Y-70596191D01*
X116530429Y-70643810D01*
X116435190Y-70691429D01*
X116197095Y-70691429D01*
X116101857Y-70643810D01*
X116054238Y-70596191D01*
X116006619Y-70500953D01*
X116006619Y-70215238D01*
X116054238Y-70120000D01*
X116101857Y-70072381D01*
X116101857Y-71120000D02*
X116054238Y-71167619D01*
X116006619Y-71120000D01*
X116054238Y-71072381D01*
X116101857Y-71120000D01*
X116006619Y-71120000D01*
X117006619Y-71500952D02*
X117006619Y-72120000D01*
X116625667Y-71786666D01*
X116625667Y-71929524D01*
X116578048Y-72024762D01*
X116530429Y-72072381D01*
X116435190Y-72120000D01*
X116197095Y-72120000D01*
X116101857Y-72072381D01*
X116054238Y-72024762D01*
X116006619Y-71929524D01*
X116006619Y-71643809D01*
X116054238Y-71548571D01*
X116101857Y-71500952D01*
X116006619Y-68389524D02*
X116006619Y-67818095D01*
X116006619Y-68103809D02*
X117006619Y-68103809D01*
X116863762Y-68008571D01*
X116768524Y-67913333D01*
X116720905Y-67818095D01*
X116911381Y-68770476D02*
X116959000Y-68818095D01*
X117006619Y-68913333D01*
X117006619Y-69151429D01*
X116959000Y-69246667D01*
X116911381Y-69294286D01*
X116816143Y-69341905D01*
X116720905Y-69341905D01*
X116578048Y-69294286D01*
X116006619Y-68722857D01*
X116006619Y-69341905D01*
X116006619Y-65849524D02*
X116006619Y-65278095D01*
X116006619Y-65563809D02*
X117006619Y-65563809D01*
X116863762Y-65468571D01*
X116768524Y-65373333D01*
X116720905Y-65278095D01*
X117006619Y-66182857D02*
X117006619Y-66801905D01*
X116625667Y-66468571D01*
X116625667Y-66611429D01*
X116578048Y-66706667D01*
X116530429Y-66754286D01*
X116435190Y-66801905D01*
X116197095Y-66801905D01*
X116101857Y-66754286D01*
X116054238Y-66706667D01*
X116006619Y-66611429D01*
X116006619Y-66325714D01*
X116054238Y-66230476D01*
X116101857Y-66182857D01*
X116006619Y-63309524D02*
X116006619Y-62738095D01*
X116006619Y-63023809D02*
X117006619Y-63023809D01*
X116863762Y-62928571D01*
X116768524Y-62833333D01*
X116720905Y-62738095D01*
X116673286Y-64166667D02*
X116006619Y-64166667D01*
X117054238Y-63928571D02*
X116339952Y-63690476D01*
X116339952Y-64309524D01*
X116006619Y-60769524D02*
X116006619Y-60198095D01*
X116006619Y-60483809D02*
X117006619Y-60483809D01*
X116863762Y-60388571D01*
X116768524Y-60293333D01*
X116720905Y-60198095D01*
X117006619Y-61626667D02*
X117006619Y-61436190D01*
X116959000Y-61340952D01*
X116911381Y-61293333D01*
X116768524Y-61198095D01*
X116578048Y-61150476D01*
X116197095Y-61150476D01*
X116101857Y-61198095D01*
X116054238Y-61245714D01*
X116006619Y-61340952D01*
X116006619Y-61531429D01*
X116054238Y-61626667D01*
X116101857Y-61674286D01*
X116197095Y-61721905D01*
X116435190Y-61721905D01*
X116530429Y-61674286D01*
X116578048Y-61626667D01*
X116625667Y-61531429D01*
X116625667Y-61340952D01*
X116578048Y-61245714D01*
X116530429Y-61198095D01*
X116435190Y-61150476D01*
X115974857Y-57848572D02*
X115927238Y-57800953D01*
X115879619Y-57658096D01*
X115879619Y-57562858D01*
X115927238Y-57420000D01*
X116022476Y-57324762D01*
X116117714Y-57277143D01*
X116308190Y-57229524D01*
X116451048Y-57229524D01*
X116641524Y-57277143D01*
X116736762Y-57324762D01*
X116832000Y-57420000D01*
X116879619Y-57562858D01*
X116879619Y-57658096D01*
X116832000Y-57800953D01*
X116784381Y-57848572D01*
X115784381Y-58039048D02*
X115784381Y-58800953D01*
X115879619Y-59039048D02*
X116879619Y-59039048D01*
X116879619Y-59420001D01*
X116832000Y-59515239D01*
X116784381Y-59562858D01*
X116689143Y-59610477D01*
X116546286Y-59610477D01*
X116451048Y-59562858D01*
X116403429Y-59515239D01*
X116355810Y-59420001D01*
X116355810Y-59039048D01*
X116292333Y-55141905D02*
X116292333Y-55618096D01*
X116006619Y-55046667D02*
X117006619Y-55380000D01*
X116006619Y-55713334D01*
X116006619Y-56046667D02*
X117006619Y-56046667D01*
X117006619Y-56284762D01*
X116959000Y-56427620D01*
X116863762Y-56522858D01*
X116768524Y-56570477D01*
X116578048Y-56618096D01*
X116435190Y-56618096D01*
X116244714Y-56570477D01*
X116149476Y-56522858D01*
X116054238Y-56427620D01*
X116006619Y-56284762D01*
X116006619Y-56046667D01*
X116133619Y-52665381D02*
X116609810Y-52332047D01*
X116133619Y-52093952D02*
X117133619Y-52093952D01*
X117133619Y-52474905D01*
X117086000Y-52570143D01*
X117038381Y-52617762D01*
X116943143Y-52665381D01*
X116800286Y-52665381D01*
X116705048Y-52617762D01*
X116657429Y-52570143D01*
X116609810Y-52474905D01*
X116609810Y-52093952D01*
X116181238Y-53046333D02*
X116133619Y-53189190D01*
X116133619Y-53427286D01*
X116181238Y-53522524D01*
X116228857Y-53570143D01*
X116324095Y-53617762D01*
X116419333Y-53617762D01*
X116514571Y-53570143D01*
X116562190Y-53522524D01*
X116609810Y-53427286D01*
X116657429Y-53236809D01*
X116705048Y-53141571D01*
X116752667Y-53093952D01*
X116847905Y-53046333D01*
X116943143Y-53046333D01*
X117038381Y-53093952D01*
X117086000Y-53141571D01*
X117133619Y-53236809D01*
X117133619Y-53474905D01*
X117086000Y-53617762D01*
X117133619Y-53903476D02*
X117133619Y-54474905D01*
X116133619Y-54189190D02*
X117133619Y-54189190D01*
X117213000Y-51061905D02*
X117260619Y-50966667D01*
X117260619Y-50823810D01*
X117213000Y-50680952D01*
X117117762Y-50585714D01*
X117022524Y-50538095D01*
X116832048Y-50490476D01*
X116689190Y-50490476D01*
X116498714Y-50538095D01*
X116403476Y-50585714D01*
X116308238Y-50680952D01*
X116260619Y-50823810D01*
X116260619Y-50919048D01*
X116308238Y-51061905D01*
X116355857Y-51109524D01*
X116689190Y-51109524D01*
X116689190Y-50919048D01*
X117260619Y-47212381D02*
X117260619Y-47831429D01*
X116879667Y-47498095D01*
X116879667Y-47640953D01*
X116832048Y-47736191D01*
X116784429Y-47783810D01*
X116689190Y-47831429D01*
X116451095Y-47831429D01*
X116355857Y-47783810D01*
X116308238Y-47736191D01*
X116260619Y-47640953D01*
X116260619Y-47355238D01*
X116308238Y-47260000D01*
X116355857Y-47212381D01*
X116355857Y-48260000D02*
X116308238Y-48307619D01*
X116260619Y-48260000D01*
X116308238Y-48212381D01*
X116355857Y-48260000D01*
X116260619Y-48260000D01*
X117260619Y-48640952D02*
X117260619Y-49260000D01*
X116879667Y-48926666D01*
X116879667Y-49069524D01*
X116832048Y-49164762D01*
X116784429Y-49212381D01*
X116689190Y-49260000D01*
X116451095Y-49260000D01*
X116355857Y-49212381D01*
X116308238Y-49164762D01*
X116260619Y-49069524D01*
X116260619Y-48783809D01*
X116308238Y-48688571D01*
X116355857Y-48640952D01*
D12*
X138938000Y-84582000D02*
X138938000Y-81280000D01*
X112522000Y-84582000D02*
X138938000Y-84582000D01*
X112522000Y-81280000D02*
X112522000Y-84582000D01*
X138938000Y-41148000D02*
X112522000Y-41148000D01*
X138938000Y-81280000D02*
X138938000Y-41148000D01*
X112522000Y-41148000D02*
X112522000Y-81280000D01*
D14*
X133730000Y-48468000D02*
X133730000Y-47468000D01*
X133730000Y-47468000D02*
X117730000Y-47468000D01*
X117730000Y-47468000D02*
X117730000Y-48468000D01*
X133730000Y-53468000D02*
X117730000Y-53468000D01*
X117730000Y-54468000D02*
X117730000Y-48468000D01*
X117730000Y-48468000D02*
X133730000Y-48468000D01*
X133730000Y-48468000D02*
X133730000Y-54468000D01*
X117730000Y-70468000D02*
X117730000Y-71468000D01*
X117730000Y-71468000D02*
X133730000Y-71468000D01*
X133730000Y-71468000D02*
X133730000Y-70468000D01*
X135890000Y-49530000D02*
X135890000Y-80010000D01*
X135890000Y-80010000D02*
X138430000Y-80010000D01*
X138430000Y-80010000D02*
X138430000Y-49530000D01*
X138710000Y-46710000D02*
X138710000Y-48260000D01*
X138430000Y-49530000D02*
X135890000Y-49530000D01*
X135610000Y-48260000D02*
X135610000Y-46710000D01*
X135610000Y-46710000D02*
X138710000Y-46710000D01*
X113030000Y-49530000D02*
X113030000Y-80010000D01*
X113030000Y-80010000D02*
X115570000Y-80010000D01*
X115570000Y-80010000D02*
X115570000Y-49530000D01*
X115850000Y-46710000D02*
X115850000Y-48260000D01*
X115570000Y-49530000D02*
X113030000Y-49530000D01*
X112750000Y-48260000D02*
X112750000Y-46710000D01*
X112750000Y-46710000D02*
X115850000Y-46710000D01*
D15*
X125984000Y-82042000D02*
X122174000Y-82042000D01*
X122174000Y-82042000D02*
X122174000Y-75057000D01*
X122174000Y-75057000D02*
X129794000Y-75057000D01*
X129794000Y-75057000D02*
X129794000Y-82042000D01*
X129794000Y-82042000D02*
X125984000Y-82042000D01*
X127254000Y-78232000D02*
G75*
G03X127254000Y-78232000I-1270000J0D01*
G01*
D14*
X119126000Y-41656000D02*
X134366000Y-41656000D01*
X134366000Y-41656000D02*
X134366000Y-44196000D01*
X134366000Y-44196000D02*
X119126000Y-44196000D01*
X116306000Y-41376000D02*
X117856000Y-41376000D01*
X119126000Y-41656000D02*
X119126000Y-44196000D01*
X117856000Y-44476000D02*
X116306000Y-44476000D01*
X116306000Y-44476000D02*
X116306000Y-41376000D01*
X120094476Y-75128381D02*
X120094476Y-74128381D01*
X120427810Y-74842667D01*
X120761143Y-74128381D01*
X120761143Y-75128381D01*
X121761143Y-75128381D02*
X121189714Y-75128381D01*
X121475428Y-75128381D02*
X121475428Y-74128381D01*
X121380190Y-74271238D01*
X121284952Y-74366476D01*
X121189714Y-74414095D01*
X134611334Y-44512667D02*
X134611334Y-43812667D01*
X134878000Y-43812667D01*
X134944667Y-43846000D01*
X134978000Y-43879333D01*
X135011334Y-43946000D01*
X135011334Y-44046000D01*
X134978000Y-44112667D01*
X134944667Y-44146000D01*
X134878000Y-44179333D01*
X134611334Y-44179333D01*
X135678000Y-44512667D02*
X135278000Y-44512667D01*
X135478000Y-44512667D02*
X135478000Y-43812667D01*
X135411334Y-43912667D01*
X135344667Y-43979333D01*
X135278000Y-44012667D01*
M02*
