<?xml version="1.0" standalone="no"?>
 <!DOCTYPE svg PUBLIC "-//W3C//DTD SVG 1.1//EN" 
 "http://www.w3.org/Graphics/SVG/1.1/DTD/svg11.dtd"> 
<svg xmlns="http://www.w3.org/2000/svg" version="1.1" 
    width="29.7002cm" height="21.0007cm" viewBox="0 0 116930 82680 ">
<title>SVG Picture created as ESP12E BOB_1-F_Cu.svg date 2015/07/13 13:00:17 </title>
  <desc>Picture generated by PCBNEW </desc>
<g style="fill:#000000; fill-opacity:1;stroke:#000000; stroke-opacity:1;
stroke-linecap:round; stroke-linejoin:round; "
 transform="translate(0 0) scale(1 1)">
</g>
<g style="fill:#000000; fill-opacity:0.0; 
stroke:#000000; stroke-width:78.7402; stroke-opacity:1; 
stroke-linecap:round; stroke-linejoin:round;">
<path d="M54700 33300
L54700 32000
" />
<path d="M44300 33300
L54700 33300
" />
<path d="M44300 32000
L44300 33300
" />
<path d="M46493 32040
L46475 32059
L46418 32078
L46381 32078
L46325 32059
L46287 32021
L46268 31984
L46250 31909
L46250 31853
L46268 31778
L46287 31740
L46325 31703
L46381 31684
L46418 31684
L46475 31703
L46493 31721
" />
<path d="M46737 31684
L46812 31684
L46850 31703
L46887 31740
L46906 31815
L46906 31946
L46887 32021
L46850 32059
L46812 32078
L46737 32078
L46700 32059
L46662 32021
L46643 31946
L46643 31815
L46662 31740
L46700 31703
L46737 31684
" />
<path d="M47074 32078
L47074 31684
L47206 31965
L47337 31684
L47337 32078
" />
<path d="M47524 32078
L47524 31684
L47674 31684
L47712 31703
L47731 31721
L47749 31759
L47749 31815
L47731 31853
L47712 31871
L47674 31890
L47524 31890
" />
<path d="M54700 16200
L44300 16200
" />
<path d="M54700 32000
L54700 16200
" />
<path d="M44300 16200
L44300 32000
" />
</g>
<g style="fill:#000000; fill-opacity:0.0; 
stroke:#000000; stroke-width:39.3701; stroke-opacity:1; 
stroke-linecap:round; stroke-linejoin:round;">
</g>
<g style="fill:#000000; fill-opacity:1.0; 
stroke:#000000; stroke-width:39.3701; stroke-opacity:1; 
stroke-linecap:round; stroke-linejoin:round;">
<polyline style="fill-rule:evenodd;"
points="46271,21621
47216,21621
47216,22054
46271,22054
46271,21621
" /> 
<polyline style="fill-rule:evenodd;"
points="46271,22408
47216,22408
47216,22841
46271,22841
46271,22408
" /> 
<polyline style="fill-rule:evenodd;"
points="46271,23196
47216,23196
47216,23629
46271,23629
46271,23196
" /> 
<polyline style="fill-rule:evenodd;"
points="46271,23983
47216,23983
47216,24416
46271,24416
46271,23983
" /> 
<polyline style="fill-rule:evenodd;"
points="46271,24770
47216,24770
47216,25203
46271,25203
46271,24770
" /> 
<polyline style="fill-rule:evenodd;"
points="46271,25558
47216,25558
47216,25991
46271,25991
46271,25558
" /> 
<polyline style="fill-rule:evenodd;"
points="46271,26345
47216,26345
47216,26778
46271,26778
46271,26345
" /> 
<polyline style="fill-rule:evenodd;"
points="46271,27133
47216,27133
47216,27566
46271,27566
46271,27133
" /> 
<polyline style="fill-rule:evenodd;"
points="47748,27861
47748,28806
47314,28806
47314,27861
47748,27861
" /> 
<polyline style="fill-rule:evenodd;"
points="48535,27861
48535,28806
48102,28806
48102,27861
48535,27861
" /> 
<polyline style="fill-rule:evenodd;"
points="50110,27861
50110,28806
49677,28806
49677,27861
50110,27861
" /> 
<polyline style="fill-rule:evenodd;"
points="50897,27861
50897,28806
50464,28806
50464,27861
50897,27861
" /> 
<polyline style="fill-rule:evenodd;"
points="51685,27861
51685,28806
51251,28806
51251,27861
51685,27861
" /> 
<polyline style="fill-rule:evenodd;"
points="51783,27133
52728,27133
52728,27566
51783,27566
51783,27133
" /> 
<polyline style="fill-rule:evenodd;"
points="51783,26345
52728,26345
52728,26778
51783,26778
51783,26345
" /> 
<polyline style="fill-rule:evenodd;"
points="49322,27861
49322,28806
48889,28806
48889,27861
49322,27861
" /> 
<polyline style="fill-rule:evenodd;"
points="51783,25558
52728,25558
52728,25991
51783,25991
51783,25558
" /> 
<polyline style="fill-rule:evenodd;"
points="51783,24770
52728,24770
52728,25203
51783,25203
51783,24770
" /> 
<polyline style="fill-rule:evenodd;"
points="51783,23983
52728,23983
52728,24416
51783,24416
51783,23983
" /> 
<polyline style="fill-rule:evenodd;"
points="51783,23196
52728,23196
52728,23629
51783,23629
51783,23196
" /> 
<polyline style="fill-rule:evenodd;"
points="51783,22408
52728,22408
52728,22841
51783,22841
51783,22408
" /> 
<polyline style="fill-rule:evenodd;"
points="51783,21621
52728,21621
52728,22054
51783,22054
51783,21621
" /> 
<circle cx="53900" cy="17000" r="374.016" /> 
<circle cx="45000" cy="17000" r="374.016" /> 
<circle cx="45000" cy="32500" r="374.016" /> 
<circle cx="53900" cy="32500" r="374.016" /> 
<polyline style="fill-rule:evenodd;"
points="53619,19320
53619,18679
54380,18679
54380,19320
53619,19320
" /> 
</g>
<g style="fill:#000000; fill-opacity:1.0; 
stroke:#000000; stroke-width:680; stroke-opacity:1; 
stroke-linecap:round; stroke-linejoin:round;">
</g>
<g style="fill:#000000; fill-opacity:0.0; 
stroke:#000000; stroke-width:680; stroke-opacity:1; 
stroke-linecap:round; stroke-linejoin:round;">
<path d="M53940 20000
L54060 20000
" />
<path d="M53940 21000
L54060 21000
" />
<path d="M53940 22000
L54060 22000
" />
<path d="M53940 23000
L54060 23000
" />
<path d="M53940 24000
L54060 24000
" />
<path d="M53940 25000
L54060 25000
" />
<path d="M53940 26000
L54060 26000
" />
<path d="M53940 27000
L54060 27000
" />
<path d="M53940 28000
L54060 28000
" />
<path d="M53940 29000
L54060 29000
" />
<path d="M53940 30000
L54060 30000
" />
<path d="M53940 31000
L54060 31000
" />
</g>
<g style="fill:#000000; fill-opacity:0.0; 
stroke:#000000; stroke-width:39.3701; stroke-opacity:1; 
stroke-linecap:round; stroke-linejoin:round;">
</g>
<g style="fill:#000000; fill-opacity:1.0; 
stroke:#000000; stroke-width:39.3701; stroke-opacity:1; 
stroke-linecap:round; stroke-linejoin:round;">
<polyline style="fill-rule:evenodd;"
points="44619,19320
44619,18679
45380,18679
45380,19320
44619,19320
" /> 
</g>
<g style="fill:#000000; fill-opacity:1.0; 
stroke:#000000; stroke-width:680; stroke-opacity:1; 
stroke-linecap:round; stroke-linejoin:round;">
</g>
<g style="fill:#000000; fill-opacity:0.0; 
stroke:#000000; stroke-width:680; stroke-opacity:1; 
stroke-linecap:round; stroke-linejoin:round;">
<path d="M44940 20000
L45060 20000
" />
<path d="M44940 21000
L45060 21000
" />
<path d="M44940 22000
L45060 22000
" />
<path d="M44940 23000
L45060 23000
" />
<path d="M44940 24000
L45060 24000
" />
<path d="M44940 25000
L45060 25000
" />
<path d="M44940 26000
L45060 26000
" />
<path d="M44940 27000
L45060 27000
" />
<path d="M44940 28000
L45060 28000
" />
<path d="M44940 29000
L45060 29000
" />
<path d="M44940 30000
L45060 30000
" />
<path d="M44940 31000
L45060 31000
" />
</g>
<g style="fill:#000000; fill-opacity:0.0; 
stroke:#000000; stroke-width:39.3701; stroke-opacity:1; 
stroke-linecap:round; stroke-linejoin:round;">
</g>
<g style="fill:#000000; fill-opacity:1.0; 
stroke:#000000; stroke-width:39.3701; stroke-opacity:1; 
stroke-linecap:round; stroke-linejoin:round;">
<circle cx="50600" cy="30800" r="305.315" /> 
<circle cx="48600" cy="30800" r="305.315" /> 
<polyline style="fill-rule:evenodd;"
points="46720,17280
46079,17280
46079,16519
46720,16519
46720,17280
" /> 
</g>
<g style="fill:#000000; fill-opacity:1.0; 
stroke:#000000; stroke-width:680; stroke-opacity:1; 
stroke-linecap:round; stroke-linejoin:round;">
</g>
<g style="fill:#000000; fill-opacity:0.0; 
stroke:#000000; stroke-width:680; stroke-opacity:1; 
stroke-linecap:round; stroke-linejoin:round;">
<path d="M47400 16960
L47400 16840
" />
<path d="M48400 16960
L48400 16840
" />
<path d="M49400 16960
L49400 16840
" />
<path d="M50400 16960
L50400 16840
" />
<path d="M51400 16960
L51400 16840
" />
<path d="M52400 16960
L52400 16840
" />
</g>
<g style="fill:#000000; fill-opacity:0.0; 
stroke:#000000; stroke-width:39.3701; stroke-opacity:1; 
stroke-linecap:round; stroke-linejoin:round;">
</g>
<g style="fill:#000000; fill-opacity:1.0; 
stroke:#000000; stroke-width:39.3701; stroke-opacity:1; 
stroke-linecap:round; stroke-linejoin:round;">
<circle cx="52800" cy="28500" r="205.315" /> 
<circle cx="51000" cy="21600" r="205.315" /> 
<circle cx="47600" cy="26600" r="205.315" /> 
<circle cx="47200" cy="18000" r="205.315" /> 
<circle cx="49600" cy="23600" r="205.315" /> 
<circle cx="50700" cy="25000" r="205.315" /> 
<circle cx="47600" cy="21300" r="205.315" /> 
<circle cx="50300" cy="21200" r="205.315" /> 
</g>
<g style="fill:#000000; fill-opacity:1.0; 
stroke:#000000; stroke-width:137.795; stroke-opacity:1; 
stroke-linecap:round; stroke-linejoin:round;">
</g>
<g style="fill:#000000; fill-opacity:0.0; 
stroke:#000000; stroke-width:137.795; stroke-opacity:1; 
stroke-linecap:round; stroke-linejoin:round;">
<path d="M52649 27349
L52649 27749
" />
<path d="M52800 28500
L52900 28400
" />
</g>
<g style="fill:#000000; fill-opacity:0.0; 
stroke:#000000; stroke-width:300; stroke-opacity:1; 
stroke-linecap:round; stroke-linejoin:round;">
<path d="M46400 19300
L45700 20000
" />
<path d="M45700 20000
L45000 20000
" />
<path d="M46400 16900
L46400 19300
" />
</g>
<g style="fill:#000000; fill-opacity:0.0; 
stroke:#000000; stroke-width:250; stroke-opacity:1; 
stroke-linecap:round; stroke-linejoin:round;">
<path d="M52600 20000
L51000 21600
" />
<path d="M54000 20000
L52600 20000
" />
</g>
<g style="fill:#000000; fill-opacity:0.0; 
stroke:#000000; stroke-width:300; stroke-opacity:1; 
stroke-linecap:round; stroke-linejoin:round;">
<path d="M52649 28349
L52800 28500
" />
<path d="M52649 27349
L52649 28349
" />
<path d="M53300 28000
L52800 28500
" />
<path d="M54000 28000
L53300 28000
" />
</g>
<g style="fill:#000000; fill-opacity:0.0; 
stroke:#000000; stroke-width:200; stroke-opacity:1; 
stroke-linecap:round; stroke-linejoin:round;">
<path d="M47600 26600
L50300 23900
" />
<path d="M50300 23900
L50300 23300
" />
<path d="M50300 23300
L48500 21500
" />
<path d="M48500 21500
L48500 19300
" />
<path d="M48500 19300
L47200 18000
" />
<path d="M45700 28000
L45000 28000
" />
<path d="M46350 27349
L45700 28000
" />
<path d="M46547 27349
L46350 27349
" />
</g>
<g style="fill:#000000; fill-opacity:0.0; 
stroke:#000000; stroke-width:137.795; stroke-opacity:1; 
stroke-linecap:round; stroke-linejoin:round;">
<path d="M53562 26562
L54000 27000
" />
<path d="M52649 26562
L53562 26562
" />
</g>
<g style="fill:#000000; fill-opacity:0.0; 
stroke:#000000; stroke-width:200; stroke-opacity:1; 
stroke-linecap:round; stroke-linejoin:round;">
<path d="M53562 26562
L54000 27000
" />
<path d="M52452 26562
L53562 26562
" />
</g>
<g style="fill:#000000; fill-opacity:0.0; 
stroke:#000000; stroke-width:137.795; stroke-opacity:1; 
stroke-linecap:round; stroke-linejoin:round;">
<path d="M45625 22625
L45000 22000
" />
<path d="M46350 22625
L45625 22625
" />
<path d="M45412 23412
L45000 23000
" />
<path d="M46350 23412
L45412 23412
" />
</g>
<g style="fill:#000000; fill-opacity:0.0; 
stroke:#000000; stroke-width:200; stroke-opacity:1; 
stroke-linecap:round; stroke-linejoin:round;">
<path d="M49600 23600
L49412 23412
" />
<path d="M49412 23412
L46350 23412
" />
</g>
<g style="fill:#000000; fill-opacity:0.0; 
stroke:#000000; stroke-width:137.795; stroke-opacity:1; 
stroke-linecap:round; stroke-linejoin:round;">
<path d="M45200 24200
L45000 24000
" />
<path d="M46350 24200
L45200 24200
" />
</g>
<g style="fill:#000000; fill-opacity:0.0; 
stroke:#000000; stroke-width:200; stroke-opacity:1; 
stroke-linecap:round; stroke-linejoin:round;">
<path d="M45200 24200
L45000 24000
" />
<path d="M46547 24200
L45200 24200
" />
</g>
<g style="fill:#000000; fill-opacity:0.0; 
stroke:#000000; stroke-width:137.795; stroke-opacity:1; 
stroke-linecap:round; stroke-linejoin:round;">
<path d="M45012 24987
L45000 25000
" />
<path d="M46350 24987
L45012 24987
" />
</g>
<g style="fill:#000000; fill-opacity:0.0; 
stroke:#000000; stroke-width:200; stroke-opacity:1; 
stroke-linecap:round; stroke-linejoin:round;">
<path d="M45012 24987
L45000 25000
" />
<path d="M46547 24987
L45012 24987
" />
</g>
<g style="fill:#000000; fill-opacity:0.0; 
stroke:#000000; stroke-width:137.795; stroke-opacity:1; 
stroke-linecap:round; stroke-linejoin:round;">
<path d="M45225 25774
L45000 26000
" />
<path d="M46350 25774
L45225 25774
" />
</g>
<g style="fill:#000000; fill-opacity:0.0; 
stroke:#000000; stroke-width:200; stroke-opacity:1; 
stroke-linecap:round; stroke-linejoin:round;">
<path d="M45225 25774
L45000 26000
" />
<path d="M46547 25774
L45225 25774
" />
<path d="M45300 27000
L45000 27000
" />
<path d="M45737 26562
L45300 27000
" />
<path d="M46547 26562
L45737 26562
" />
</g>
<g style="fill:#000000; fill-opacity:0.0; 
stroke:#000000; stroke-width:137.795; stroke-opacity:1; 
stroke-linecap:round; stroke-linejoin:round;">
<path d="M45062 28937
L45000 29000
" />
</g>
<g style="fill:#000000; fill-opacity:0.0; 
stroke:#000000; stroke-width:200; stroke-opacity:1; 
stroke-linecap:round; stroke-linejoin:round;">
<path d="M47200 29000
L45000 29000
" />
<path d="M47531 28668
L47200 29000
" />
<path d="M47531 28137
L47531 28668
" />
</g>
<g style="fill:#000000; fill-opacity:0.0; 
stroke:#000000; stroke-width:137.795; stroke-opacity:1; 
stroke-linecap:round; stroke-linejoin:round;">
<path d="M47900 30000
L48318 29581
" />
<path d="M45000 30000
L47900 30000
" />
</g>
<g style="fill:#000000; fill-opacity:0.0; 
stroke:#000000; stroke-width:200; stroke-opacity:1; 
stroke-linecap:round; stroke-linejoin:round;">
<path d="M47900 30000
L45000 30000
" />
<path d="M48318 29581
L47900 30000
" />
<path d="M48318 28137
L48318 29581
" />
<path d="M49893 29706
L49796 29803
" />
<path d="M49796 29803
L49796 31096
" />
<path d="M49796 31096
L50400 31700
" />
<path d="M50400 31700
L51800 31700
" />
<path d="M51800 31700
L52500 31000
" />
<path d="M52500 31000
L54000 31000
" />
<path d="M49893 28137
L49893 29706
" />
<path d="M50681 29181
L51500 30000
" />
<path d="M51500 30000
L54000 30000
" />
<path d="M50681 28137
L50681 29181
" />
</g>
<g style="fill:#000000; fill-opacity:0.0; 
stroke:#000000; stroke-width:137.795; stroke-opacity:1; 
stroke-linecap:round; stroke-linejoin:round;">
<path d="M51468 28137
L51468 28668
" />
</g>
<g style="fill:#000000; fill-opacity:0.0; 
stroke:#000000; stroke-width:200; stroke-opacity:1; 
stroke-linecap:round; stroke-linejoin:round;">
<path d="M51468 29168
L51700 29400
" />
<path d="M51700 29400
L53000 29400
" />
<path d="M53000 29400
L53400 29000
" />
<path d="M53400 29000
L54000 29000
" />
<path d="M51468 28137
L51468 29168
" />
<path d="M47600 31000
L48100 31500
" />
<path d="M48100 31500
L49000 31500
" />
<path d="M49000 31500
L49400 31100
" />
<path d="M49400 31100
L49400 29700
" />
<path d="M49400 29700
L49106 29406
" />
<path d="M49106 29406
L49106 28137
" />
<path d="M45000 31000
L47600 31000
" />
</g>
<g style="fill:#000000; fill-opacity:0.0; 
stroke:#000000; stroke-width:137.795; stroke-opacity:1; 
stroke-linecap:round; stroke-linejoin:round;">
<path d="M53774 25774
L54000 26000
" />
</g>
<g style="fill:#000000; fill-opacity:0.0; 
stroke:#000000; stroke-width:200; stroke-opacity:1; 
stroke-linecap:round; stroke-linejoin:round;">
<path d="M53700 26000
L54000 26000
" />
<path d="M53474 25774
L53700 26000
" />
<path d="M52452 25774
L53474 25774
" />
</g>
<g style="fill:#000000; fill-opacity:0.0; 
stroke:#000000; stroke-width:137.795; stroke-opacity:1; 
stroke-linecap:round; stroke-linejoin:round;">
<path d="M53987 24987
L54000 25000
" />
<path d="M52649 24987
L53987 24987
" />
<path d="M50700 25000
L50712 24987
" />
</g>
<g style="fill:#000000; fill-opacity:0.0; 
stroke:#000000; stroke-width:250; stroke-opacity:1; 
stroke-linecap:round; stroke-linejoin:round;">
<path d="M50712 24987
L52649 24987
" />
</g>
<g style="fill:#000000; fill-opacity:0.0; 
stroke:#000000; stroke-width:200; stroke-opacity:1; 
stroke-linecap:round; stroke-linejoin:round;">
<path d="M53987 24987
L54000 25000
" />
<path d="M52452 24987
L53987 24987
" />
</g>
<g style="fill:#000000; fill-opacity:0.0; 
stroke:#000000; stroke-width:137.795; stroke-opacity:1; 
stroke-linecap:round; stroke-linejoin:round;">
<path d="M53800 24200
L54000 24000
" />
</g>
<g style="fill:#000000; fill-opacity:0.0; 
stroke:#000000; stroke-width:200; stroke-opacity:1; 
stroke-linecap:round; stroke-linejoin:round;">
<path d="M53600 24000
L54000 24000
" />
<path d="M53400 24200
L53600 24000
" />
<path d="M52452 24200
L53400 24200
" />
<path d="M53600 23000
L54000 23000
" />
<path d="M53187 23412
L53600 23000
" />
<path d="M52452 23412
L53187 23412
" />
</g>
<g style="fill:#000000; fill-opacity:0.0; 
stroke:#000000; stroke-width:137.795; stroke-opacity:1; 
stroke-linecap:round; stroke-linejoin:round;">
<path d="M52649 21350
L53000 21000
" />
<path d="M53000 21000
L54000 21000
" />
<path d="M52649 21837
L52649 21350
" />
</g>
<g style="fill:#000000; fill-opacity:0.0; 
stroke:#000000; stroke-width:150; stroke-opacity:1; 
stroke-linecap:round; stroke-linejoin:round;">
<path d="M50400 16900
L50400 17300
" />
</g>
<g style="fill:#000000; fill-opacity:0.0; 
stroke:#000000; stroke-width:200; stroke-opacity:1; 
stroke-linecap:round; stroke-linejoin:round;">
<path d="M50500 22200
L49900 21600
" />
<path d="M49900 21600
L49800 21500
" />
</g>
<g style="fill:#000000; fill-opacity:0.0; 
stroke:#000000; stroke-width:150; stroke-opacity:1; 
stroke-linecap:round; stroke-linejoin:round;">
<path d="M49800 21500
L49800 21500
" />
</g>
<g style="fill:#000000; fill-opacity:0.0; 
stroke:#000000; stroke-width:200; stroke-opacity:1; 
stroke-linecap:round; stroke-linejoin:round;">
<path d="M51200 22200
L50500 22200
" />
<path d="M51562 21837
L51200 22200
" />
<path d="M52649 21837
L51562 21837
" />
<path d="M49600 21300
L50500 22200
" />
<path d="M49600 18400
L50400 17600
" />
<path d="M49600 21200
L49600 18400
" />
<path d="M50400 16900
L50400 17600
" />
<path d="M49600 21300
L49600 21200
" />
<path d="M53000 21000
L54000 21000
" />
<path d="M52452 21547
L53000 21000
" />
<path d="M52452 21837
L52452 21547
" />
<path d="M50100 22400
L49400 21700
" />
</g>
<g style="fill:#000000; fill-opacity:0.0; 
stroke:#000000; stroke-width:150; stroke-opacity:1; 
stroke-linecap:round; stroke-linejoin:round;">
<path d="M51900 22625
L51374 22625
" />
<path d="M52649 22625
L51900 22625
" />
</g>
<g style="fill:#000000; fill-opacity:0.0; 
stroke:#000000; stroke-width:200; stroke-opacity:1; 
stroke-linecap:round; stroke-linejoin:round;">
<path d="M51300 22700
L50400 22700
" />
<path d="M50100 22400
L50400 22700
" />
<path d="M49400 17400
L49100 17700
" />
<path d="M49100 17700
L49100 21400
" />
<path d="M49100 21400
L49400 21700
" />
<path d="M49400 16900
L49400 17400
" />
<path d="M51874 22625
L51900 22600
" />
<path d="M51900 22600
L51900 22625
" />
<path d="M51374 22625
L51874 22625
" />
<path d="M51300 22700
L51374 22625
" />
<path d="M53700 22000
L54000 22000
" />
<path d="M53074 22625
L53700 22000
" />
<path d="M52452 22625
L53074 22625
" />
</g>
<g style="fill:#000000; fill-opacity:0.0; 
stroke:#000000; stroke-width:137.795; stroke-opacity:1; 
stroke-linecap:round; stroke-linejoin:round;">
<path d="M46350 21837
L45837 21837
" />
</g>
<g style="fill:#000000; fill-opacity:0.0; 
stroke:#000000; stroke-width:150; stroke-opacity:1; 
stroke-linecap:round; stroke-linejoin:round;">
<path d="M46350 21350
L46000 21000
" />
<path d="M46000 21000
L45000 21000
" />
<path d="M47600 21300
L47300 21000
" />
</g>
<g style="fill:#000000; fill-opacity:0.0; 
stroke:#000000; stroke-width:250; stroke-opacity:1; 
stroke-linecap:round; stroke-linejoin:round;">
<path d="M50300 19300
L50300 21200
" />
<path d="M52400 17200
L50300 19300
" />
<path d="M52400 16900
L52400 17200
" />
<path d="M47300 21000
L47600 21300
" />
<path d="M45000 21000
L47300 21000
" />
<path d="M46000 21000
L45000 21000
" />
<path d="M46350 21350
L46000 21000
" />
<path d="M46350 21837
L46350 21350
" />
</g> 
</svg>
