<?xml version="1.0" standalone="no"?>
 <!DOCTYPE svg PUBLIC "-//W3C//DTD SVG 1.1//EN" 
 "http://www.w3.org/Graphics/SVG/1.1/DTD/svg11.dtd"> 
<svg xmlns="http://www.w3.org/2000/svg" version="1.1" 
    width="29.7002cm" height="21.0007cm" viewBox="0 0 116930 82680 ">
<title>SVG Picture created as ESP12E BOB_1-F_SilkS.svg date 2015/07/13 13:00:17 </title>
  <desc>Picture generated by PCBNEW </desc>
<g style="fill:#000000; fill-opacity:1;stroke:#000000; stroke-opacity:1;
stroke-linecap:round; stroke-linejoin:round; "
 transform="translate(0 0) scale(1 1)">
</g>
<g style="fill:#000000; fill-opacity:0.0; 
stroke:#000000; stroke-width:87.5; stroke-opacity:1; 
stroke-linecap:round; stroke-linejoin:round;">
<path d="M52000 17908
L52000 17558
L52083 17558
L52133 17575
L52166 17608
L52183 17641
L52200 17708
L52200 17758
L52183 17825
L52166 17858
L52133 17891
L52083 17908
L52000 17908
" />
<path d="M52300 17558
L52500 17558
" />
<path d="M52400 17908
L52400 17558
" />
<path d="M52816 17908
L52700 17741
" />
<path d="M52616 17908
L52616 17558
L52750 17558
L52783 17575
L52800 17591
L52816 17625
L52816 17675
L52800 17708
L52783 17725
L52750 17741
L52616 17741
" />
<path d="M51175 17908
L51175 17558
L51375 17908
L51375 17558
" />
<path d="M51741 17875
L51725 17891
L51675 17908
L51641 17908
L51591 17891
L51558 17858
L51541 17825
L51525 17758
L51525 17708
L51541 17641
L51558 17608
L51591 17575
L51641 17558
L51675 17558
L51725 17575
L51741 17591
" />
<path d="M50133 17558
L50333 17558
" />
<path d="M50233 17908
L50233 17558
" />
<path d="M50416 17558
L50650 17908
" />
<path d="M50650 17558
L50416 17908
" />
<path d="M49341 17908
L49225 17741
" />
<path d="M49141 17908
L49141 17558
L49275 17558
L49308 17575
L49325 17591
L49341 17625
L49341 17675
L49325 17708
L49308 17725
L49275 17741
L49141 17741
" />
<path d="M49458 17558
L49691 17908
" />
<path d="M49691 17558
L49458 17908
" />
<path d="M48333 17558
L48166 17558
L48150 17725
L48166 17708
L48200 17691
L48283 17691
L48316 17708
L48333 17725
L48350 17758
L48350 17841
L48333 17875
L48316 17891
L48283 17908
L48200 17908
L48166 17891
L48150 17875
" />
<path d="M48450 17558
L48566 17908
L48683 17558
" />
<path d="M47125 17908
L47125 17558
L47325 17908
L47325 17558
" />
<path d="M47691 17875
L47675 17891
L47625 17908
L47591 17908
L47541 17891
L47508 17858
L47491 17825
L47475 17758
L47475 17708
L47491 17641
L47508 17608
L47541 17575
L47591 17558
L47625 17558
L47675 17575
L47691 17591
" />
<path d="M46391 17625
L46358 17608
L46308 17608
L46258 17625
L46225 17658
L46208 17691
L46191 17758
L46191 17808
L46208 17875
L46225 17908
L46258 17941
L46308 17958
L46341 17958
L46391 17941
L46408 17925
L46408 17808
L46341 17808
" />
</g>
<g style="fill:#000000; fill-opacity:0.0; 
stroke:#000000; stroke-width:118.11; stroke-opacity:1; 
stroke-linecap:round; stroke-linejoin:round;">
<path d="M47070 32857
L47267 32857
" />
<path d="M47351 33167
L47070 33167
L47070 32576
L47351 32576
" />
<path d="M47576 33139
L47661 33167
L47801 33167
L47858 33139
L47886 33110
L47914 33054
L47914 32998
L47886 32942
L47858 32914
L47801 32885
L47689 32857
L47633 32829
L47604 32801
L47576 32745
L47576 32689
L47604 32632
L47633 32604
L47689 32576
L47829 32576
L47914 32604
" />
<path d="M48167 33167
L48167 32576
L48392 32576
L48448 32604
L48476 32632
L48504 32689
L48504 32773
L48476 32829
L48448 32857
L48392 32885
L48167 32885
" />
<path d="M49067 33167
L48729 33167
" />
<path d="M48898 33167
L48898 32576
L48842 32660
L48786 32717
L48729 32745
" />
<path d="M49292 32632
L49320 32604
L49376 32576
L49517 32576
L49573 32604
L49601 32632
L49629 32689
L49629 32745
L49601 32829
L49264 33167
L49629 33167
" />
<path d="M49882 32857
L50079 32857
" />
<path d="M50164 33167
L49882 33167
L49882 32576
L50164 32576
" />
<path d="M50810 32576
L50951 33167
L51063 32745
L51176 33167
L51316 32576
" />
<path d="M51541 33167
L51541 32576
" />
<path d="M52020 32857
L51823 32857
" />
<path d="M51823 33167
L51823 32576
L52104 32576
" />
<path d="M52329 33167
L52329 32576
" />
</g>
<g style="fill:#000000; fill-opacity:0.0; 
stroke:#000000; stroke-width:98.4252; stroke-opacity:1; 
stroke-linecap:round; stroke-linejoin:round;">
<path d="M52834 19074
L52834 19262
L53021 19281
L53003 19262
L52984 19224
L52984 19131
L53003 19093
L53021 19074
L53059 19056
L53153 19056
L53190 19074
L53209 19093
L53228 19131
L53228 19224
L53209 19262
L53190 19281
" />
<path d="M52834 18943
L53228 18812
L52834 18681
" />
<path d="M52853 19946
L52834 19984
L52834 20040
L52853 20096
L52890 20134
L52928 20153
L53003 20171
L53059 20171
L53134 20153
L53171 20134
L53209 20096
L53228 20040
L53228 20003
L53209 19946
L53190 19928
L53059 19928
L53059 20003
" />
<path d="M52884 21349
L52884 21124
" />
<path d="M53278 21237
L52884 21237
" />
<path d="M52884 21031
L53278 20768
" />
<path d="M52884 20768
L53278 21031
" />
</g>
<g style="fill:#000000; fill-opacity:0.0; 
stroke:#000000; stroke-width:87.5; stroke-opacity:1; 
stroke-linecap:round; stroke-linejoin:round;">
<path d="M53328 22115
L53140 22246
" />
<path d="M53328 22340
L52934 22340
L52934 22190
L52953 22153
L52971 22134
L53009 22115
L53065 22115
L53103 22134
L53121 22153
L53140 22190
L53140 22340
" />
<path d="M52934 21984
L53328 21721
" />
<path d="M52934 21721
L53328 21984
" />
</g>
<g style="fill:#000000; fill-opacity:0.0; 
stroke:#000000; stroke-width:98.4252; stroke-opacity:1; 
stroke-linecap:round; stroke-linejoin:round;">
<path d="M52934 22906
L52934 23093
L53121 23112
L53103 23093
L53084 23056
L53084 22962
L53103 22925
L53121 22906
L53159 22887
L53253 22887
L53290 22906
L53309 22925
L53328 22962
L53328 23056
L53309 23093
L53290 23112
" />
<path d="M53065 23925
L53328 23925
" />
<path d="M52915 24018
L53196 24112
L53196 23868
" />
<path d="M52934 25018
L52934 24981
L52953 24943
L52971 24925
L53009 24906
L53084 24887
L53178 24887
L53253 24906
L53290 24925
L53309 24943
L53328 24981
L53328 25018
L53309 25056
L53290 25074
L53253 25093
L53178 25112
L53084 25112
L53009 25093
L52971 25074
L52953 25056
L52934 25018
" />
<path d="M52971 26112
L52953 26093
L52934 26056
L52934 25962
L52953 25925
L52971 25906
L53009 25887
L53046 25887
L53103 25906
L53328 26131
L53328 25887
" />
<path d="M53328 27074
L53328 27299
" />
<path d="M53328 27187
L52934 27187
L52990 27224
L53028 27262
L53046 27299
" />
<path d="M52934 26718
L52934 26906
L53121 26925
L53103 26906
L53084 26868
L53084 26775
L53103 26737
L53121 26718
L53159 26700
L53253 26700
L53290 26718
L53309 26737
L53328 26775
L53328 26868
L53309 26906
L53290 26925
" />
<path d="M53003 27896
L52984 27934
L52984 27990
L53003 28046
L53040 28084
L53078 28103
L53153 28121
L53209 28121
L53284 28103
L53321 28084
L53359 28046
L53378 27990
L53378 27953
L53359 27896
L53340 27878
L53209 27878
L53209 27953
" />
</g>
<g style="fill:#000000; fill-opacity:0.0; 
stroke:#000000; stroke-width:87.5; stroke-opacity:1; 
stroke-linecap:round; stroke-linejoin:round;">
<path d="M52350 29141
L52400 29158
L52483 29158
L52516 29141
L52533 29125
L52550 29091
L52550 29058
L52533 29025
L52516 29008
L52483 28991
L52416 28975
L52383 28958
L52366 28941
L52350 28908
L52350 28875
L52366 28841
L52383 28825
L52416 28808
L52500 28808
L52550 28825
" />
<path d="M52900 29125
L52883 29141
L52833 29158
L52800 29158
L52750 29141
L52716 29108
L52700 29075
L52683 29008
L52683 28958
L52700 28891
L52716 28858
L52750 28825
L52800 28808
L52833 28808
L52883 28825
L52900 28841
" />
<path d="M53050 29158
L53050 28808
" />
<path d="M53250 29158
L53100 28958
" />
<path d="M53250 28808
L53050 29008
" />
</g>
<g style="fill:#000000; fill-opacity:0.0; 
stroke:#000000; stroke-width:98.4252; stroke-opacity:1; 
stroke-linecap:round; stroke-linejoin:round;">
<path d="M52081 30178
L52081 29784
L52212 30065
L52343 29784
L52343 30178
" />
<path d="M52606 29784
L52681 29784
L52718 29803
L52756 29840
L52774 29915
L52774 30046
L52756 30121
L52718 30159
L52681 30178
L52606 30178
L52568 30159
L52531 30121
L52512 30046
L52512 29915
L52531 29840
L52568 29803
L52606 29784
" />
<path d="M52924 30159
L52981 30178
L53074 30178
L53112 30159
L53131 30140
L53149 30103
L53149 30065
L53131 30028
L53112 30009
L53074 29990
L52999 29971
L52962 29953
L52943 29934
L52924 29896
L52924 29859
L52943 29821
L52962 29803
L52999 29784
L53093 29784
L53149 29803
" />
<path d="M53318 30178
L53318 29784
" />
<path d="M52925 31178
L52700 31178
" />
<path d="M52812 31178
L52812 30784
L52775 30840
L52737 30878
L52700 30896
" />
<path d="M53168 30784
L53206 30784
L53243 30803
L53262 30821
L53281 30859
L53299 30934
L53299 31028
L53281 31103
L53262 31140
L53243 31159
L53206 31178
L53168 31178
L53131 31159
L53112 31140
L53093 31103
L53074 31028
L53074 30934
L53093 30859
L53112 30821
L53131 30803
L53168 30784
" />
<path d="M45825 31178
L45900 31178
L45937 31159
L45956 31140
L45993 31084
L46012 31009
L46012 30859
L45993 30821
L45974 30803
L45937 30784
L45862 30784
L45825 30803
L45806 30821
L45787 30859
L45787 30953
L45806 30990
L45825 31009
L45862 31028
L45937 31028
L45974 31009
L45993 30990
L46012 30953
" />
<path d="M45631 30178
L45631 29784
L45762 30065
L45893 29784
L45893 30178
" />
<path d="M46081 30178
L46081 29784
" />
<path d="M46250 30159
L46306 30178
L46399 30178
L46437 30159
L46456 30140
L46474 30103
L46474 30065
L46456 30028
L46437 30009
L46399 29990
L46324 29971
L46287 29953
L46268 29934
L46250 29896
L46250 29859
L46268 29821
L46287 29803
L46324 29784
L46418 29784
L46474 29803
" />
<path d="M46718 29784
L46793 29784
L46831 29803
L46868 29840
L46887 29915
L46887 30046
L46868 30121
L46831 30159
L46793 30178
L46718 30178
L46681 30159
L46643 30121
L46624 30046
L46624 29915
L46643 29840
L46681 29803
L46718 29784
" />
<path d="M45878 29140
L45859 29159
L45803 29178
L45765 29178
L45709 29159
L45671 29121
L45653 29084
L45634 29009
L45634 28953
L45653 28878
L45671 28840
L45709 28803
L45765 28784
L45803 28784
L45859 28803
L45878 28821
" />
<path d="M46028 29159
L46084 29178
L46178 29178
L46215 29159
L46234 29140
L46253 29103
L46253 29065
L46234 29028
L46215 29009
L46178 28990
L46103 28971
L46065 28953
L46046 28934
L46028 28896
L46028 28859
L46046 28821
L46065 28803
L46103 28784
L46196 28784
L46253 28803
" />
<path d="M46496 28784
L46571 28784
L46609 28803
L46646 28840
L46665 28915
L46665 29046
L46646 29121
L46609 29159
L46571 29178
L46496 29178
L46459 29159
L46421 29121
L46403 29046
L46403 28915
L46421 28840
L46459 28803
L46496 28784
" />
<path d="M46065 27587
L46065 27831
L45915 27700
L45915 27756
L45896 27793
L45878 27812
L45840 27831
L45746 27831
L45709 27812
L45690 27793
L45671 27756
L45671 27643
L45690 27606
L45709 27587
" />
<path d="M45709 28000
L45690 28018
L45671 28000
L45690 27981
L45709 28000
L45671 28000
" />
<path d="M46065 28149
L46065 28393
L45915 28262
L45915 28318
L45896 28356
L45878 28374
L45840 28393
L45746 28393
L45709 28374
L45690 28356
L45671 28318
L45671 28206
L45690 28168
L45709 28149
" />
<path d="M45671 26925
L45671 26700
" />
<path d="M45671 26812
L46065 26812
L46009 26775
L45971 26737
L45953 26700
" />
<path d="M46028 27074
L46046 27093
L46065 27131
L46065 27224
L46046 27262
L46028 27281
L45990 27299
L45953 27299
L45896 27281
L45671 27056
L45671 27299
" />
<path d="M45671 25925
L45671 25700
" />
<path d="M45671 25812
L46065 25812
L46009 25775
L45971 25737
L45953 25700
" />
<path d="M46065 26056
L46065 26299
L45915 26168
L45915 26224
L45896 26262
L45878 26281
L45840 26299
L45746 26299
L45709 26281
L45690 26262
L45671 26224
L45671 26112
L45690 26074
L45709 26056
" />
<path d="M45671 24925
L45671 24700
" />
<path d="M45671 24812
L46065 24812
L46009 24775
L45971 24737
L45953 24700
" />
<path d="M45934 25262
L45671 25262
" />
<path d="M46084 25168
L45803 25074
L45803 25318
" />
<path d="M45671 23925
L45671 23700
" />
<path d="M45671 23812
L46065 23812
L46009 23775
L45971 23737
L45953 23700
" />
<path d="M46065 24262
L46065 24187
L46046 24149
L46028 24131
L45971 24093
L45896 24074
L45746 24074
L45709 24093
L45690 24112
L45671 24149
L45671 24224
L45690 24262
L45709 24281
L45746 24299
L45840 24299
L45878 24281
L45896 24262
L45915 24224
L45915 24149
L45896 24112
L45878 24093
L45840 24074
" />
<path d="M45659 22775
L45640 22756
L45621 22700
L45621 22662
L45640 22606
L45678 22568
L45715 22550
L45790 22531
L45846 22531
L45921 22550
L45959 22568
L45996 22606
L46015 22662
L46015 22700
L45996 22756
L45978 22775
" />
<path d="M45584 22850
L45584 23149
" />
<path d="M45621 23243
L46015 23243
L46015 23393
L45996 23431
L45978 23449
L45940 23468
L45884 23468
L45846 23449
L45828 23431
L45809 23393
L45809 23243
" />
<path d="M45784 21709
L45784 21896
" />
<path d="M45671 21671
L46065 21803
L45671 21934
" />
<path d="M45671 22065
L46065 22065
L46065 22159
L46046 22215
L46009 22253
L45971 22271
L45896 22290
L45840 22290
L45765 22271
L45728 22253
L45690 22215
L45671 22159
L45671 22065
" />
<path d="M45721 20734
L45909 20603
" />
<path d="M45721 20509
L46115 20509
L46115 20659
L46096 20696
L46078 20715
L46040 20734
L45984 20734
L45946 20715
L45928 20696
L45909 20659
L45909 20509
" />
<path d="M45740 20884
L45721 20940
L45721 21034
L45740 21071
L45759 21090
L45796 21109
L45834 21109
L45871 21090
L45890 21071
L45909 21034
L45928 20959
L45946 20921
L45965 20903
L46003 20884
L46040 20884
L46078 20903
L46096 20921
L46115 20959
L46115 21053
L46096 21109
" />
<path d="M46115 21221
L46115 21446
" />
<path d="M45721 21334
L46115 21334
" />
<path d="M46146 20103
L46165 20065
L46165 20009
L46146 19953
L46109 19915
L46071 19896
L45996 19878
L45940 19878
L45865 19896
L45828 19915
L45790 19953
L45771 20009
L45771 20046
L45790 20103
L45809 20121
L45940 20121
L45940 20046
" />
<path d="M46165 18587
L46165 18831
L46015 18700
L46015 18756
L45996 18793
L45978 18812
L45940 18831
L45846 18831
L45809 18812
L45790 18793
L45771 18756
L45771 18643
L45790 18606
L45809 18587
" />
<path d="M45809 19000
L45790 19018
L45771 19000
L45790 18981
L45809 19000
L45771 19000
" />
<path d="M46165 19149
L46165 19393
L46015 19262
L46015 19318
L45996 19356
L45978 19374
L45940 19393
L45846 19393
L45809 19374
L45790 19356
L45771 19318
L45771 19206
L45790 19168
L45809 19149
" />
</g>
<g style="fill:#000000; fill-opacity:0.0; 
stroke:#000000; stroke-width:78.7402; stroke-opacity:1; 
stroke-linecap:round; stroke-linejoin:round;">
<path d="M54700 33300
L54700 32000
" />
<path d="M44300 33300
L54700 33300
" />
<path d="M44300 32000
L44300 33300
" />
<path d="M54700 16200
L44300 16200
" />
<path d="M54700 32000
L54700 16200
" />
<path d="M44300 16200
L44300 32000
" />
</g>
<g style="fill:#000000; fill-opacity:0.0; 
stroke:#000000; stroke-width:59.0551; stroke-opacity:1; 
stroke-linecap:round; stroke-linejoin:round;">
<path d="M52649 19081
L52649 18688
" />
<path d="M52649 18688
L46350 18688
" />
<path d="M46350 18688
L46350 19081
" />
<path d="M52649 21050
L46350 21050
" />
<path d="M46350 21444
L46350 19081
" />
<path d="M46350 19081
L52649 19081
" />
<path d="M52649 19081
L52649 21444
" />
<path d="M46350 27743
L46350 28137
" />
<path d="M46350 28137
L52649 28137
" />
<path d="M52649 28137
L52649 27743
" />
<path d="M53500 19500
L53500 31500
" />
<path d="M53500 31500
L54500 31500
" />
<path d="M54500 31500
L54500 19500
" />
<path d="M54610 18389
L54610 19000
" />
<path d="M54500 19500
L53500 19500
" />
<path d="M53389 19000
L53389 18389
" />
<path d="M53389 18389
L54610 18389
" />
<path d="M44500 19500
L44500 31500
" />
<path d="M44500 31500
L45500 31500
" />
<path d="M45500 31500
L45500 19500
" />
<path d="M45610 18389
L45610 19000
" />
<path d="M45500 19500
L44500 19500
" />
<path d="M44389 19000
L44389 18389
" />
<path d="M44389 18389
L45610 18389
" />
</g>
<g style="fill:#000000; fill-opacity:0.0; 
stroke:#000000; stroke-width:150; stroke-opacity:1; 
stroke-linecap:round; stroke-linejoin:round;">
<path d="M49600 32300
L48100 32300
" />
<path d="M48100 32300
L48100 29550
" />
<path d="M48100 29550
L51100 29550
" />
<path d="M51100 29550
L51100 32300
" />
<path d="M51100 32300
L49600 32300
" />
<circle cx="49600" cy="30800" r="500" /> 
</g>
<g style="fill:#000000; fill-opacity:0.0; 
stroke:#000000; stroke-width:59.0551; stroke-opacity:1; 
stroke-linecap:round; stroke-linejoin:round;">
<path d="M46900 16400
L52900 16400
" />
<path d="M52900 16400
L52900 17400
" />
<path d="M52900 17400
L46900 17400
" />
<path d="M45789 16289
L46400 16289
" />
<path d="M46900 16400
L46900 17400
" />
<path d="M46400 17510
L45789 17510
" />
<path d="M45789 17510
L45789 16289
" />
<path d="M47281 29578
L47281 29184
L47412 29465
L47543 29184
L47543 29578
" />
<path d="M47937 29578
L47712 29578
" />
<path d="M47824 29578
L47824 29184
L47787 29240
L47749 29278
L47712 29296
" />
<path d="M52946 32024
L52946 31749
L53051 31749
L53077 31762
L53090 31775
L53104 31801
L53104 31840
L53090 31867
L53077 31880
L53051 31893
L52946 31893
" />
<path d="M53209 31775
L53222 31762
L53248 31749
L53314 31749
L53340 31762
L53353 31775
L53366 31801
L53366 31827
L53353 31867
L53195 32024
L53366 32024
" />
<path d="M45546 32074
L45546 31799
L45651 31799
L45677 31812
L45690 31825
L45704 31851
L45704 31890
L45690 31917
L45677 31930
L45651 31943
L45546 31943
" />
<path d="M45795 31799
L45966 31799
L45874 31904
L45914 31904
L45940 31917
L45953 31930
L45966 31956
L45966 32022
L45953 32048
L45940 32061
L45914 32074
L45835 32074
L45809 32061
L45795 32048
" />
</g>
<g style="fill:#000000; fill-opacity:0.0; 
stroke:#000000; stroke-width:80; stroke-opacity:1; 
stroke-linecap:round; stroke-linejoin:round;">
<path d="M51266 32161
L51323 32180
L51419 32180
L51457 32161
L51476 32142
L51495 32104
L51495 32066
L51476 32028
L51457 32009
L51419 31990
L51342 31971
L51304 31952
L51285 31933
L51266 31895
L51266 31857
L51285 31819
L51304 31800
L51342 31780
L51438 31780
L51495 31800
" />
<path d="M51628 31780
L51723 32180
L51800 31895
L51876 32180
L51971 31780
" />
<path d="M52333 32180
L52104 32180
" />
<path d="M52219 32180
L52219 31780
L52180 31838
L52142 31876
L52104 31895
" />
</g>
<g style="fill:#000000; fill-opacity:0.0; 
stroke:#000000; stroke-width:59.0551; stroke-opacity:1; 
stroke-linecap:round; stroke-linejoin:round;">
<path d="M52996 17524
L52996 17249
L53101 17249
L53127 17262
L53140 17275
L53154 17301
L53154 17340
L53140 17367
L53127 17380
L53101 17393
L52996 17393
" />
<path d="M53416 17524
L53259 17524
" />
<path d="M53337 17524
L53337 17249
L53311 17288
L53285 17314
L53259 17327
" />
</g> 
</svg>
