G04 #@! TF.FileFunction,Copper,L1,Top,Signal*
%FSLAX46Y46*%
G04 Gerber Fmt 4.6, Leading zero omitted, Abs format (unit mm)*
G04 Created by KiCad (PCBNEW (2015-01-16 BZR 5376)-product) date 6/19/2015 1:22:51 PM*
%MOMM*%
G01*
G04 APERTURE LIST*
%ADD10C,0.100000*%
%ADD11C,0.200000*%
%ADD12R,1.727200X2.032000*%
%ADD13O,1.727200X2.032000*%
%ADD14C,1.651000*%
%ADD15R,2.032000X1.727200*%
%ADD16O,2.032000X1.727200*%
%ADD17R,3.000000X1.200000*%
%ADD18R,1.200000X3.000000*%
%ADD19C,2.000000*%
%ADD20C,1.143000*%
%ADD21C,0.508000*%
%ADD22C,0.381000*%
%ADD23C,0.350000*%
G04 APERTURE END LIST*
D10*
D11*
X146685000Y-74676000D02*
X146685000Y-114808000D01*
X173101000Y-114808000D02*
X173101000Y-74676000D01*
X173101000Y-74676000D02*
X146685000Y-74676000D01*
X151749286Y-111355143D02*
X151701667Y-111402762D01*
X151558810Y-111450381D01*
X151463572Y-111450381D01*
X151320714Y-111402762D01*
X151225476Y-111307524D01*
X151177857Y-111212286D01*
X151130238Y-111021810D01*
X151130238Y-110878952D01*
X151177857Y-110688476D01*
X151225476Y-110593238D01*
X151320714Y-110498000D01*
X151463572Y-110450381D01*
X151558810Y-110450381D01*
X151701667Y-110498000D01*
X151749286Y-110545619D01*
X152368333Y-110450381D02*
X152558810Y-110450381D01*
X152654048Y-110498000D01*
X152749286Y-110593238D01*
X152796905Y-110783714D01*
X152796905Y-111117048D01*
X152749286Y-111307524D01*
X152654048Y-111402762D01*
X152558810Y-111450381D01*
X152368333Y-111450381D01*
X152273095Y-111402762D01*
X152177857Y-111307524D01*
X152130238Y-111117048D01*
X152130238Y-110783714D01*
X152177857Y-110593238D01*
X152273095Y-110498000D01*
X152368333Y-110450381D01*
X153225476Y-111450381D02*
X153225476Y-110450381D01*
X153558810Y-111164667D01*
X153892143Y-110450381D01*
X153892143Y-111450381D01*
X154368333Y-111450381D02*
X154368333Y-110450381D01*
X154749286Y-110450381D01*
X154844524Y-110498000D01*
X154892143Y-110545619D01*
X154939762Y-110640857D01*
X154939762Y-110783714D01*
X154892143Y-110878952D01*
X154844524Y-110926571D01*
X154749286Y-110974190D01*
X154368333Y-110974190D01*
X146685000Y-114808000D02*
X146685000Y-118110000D01*
X146685000Y-118110000D02*
X173101000Y-118110000D01*
X173101000Y-118110000D02*
X173101000Y-114808000D01*
X120142000Y-74676000D02*
X120142000Y-114808000D01*
X146558000Y-114808000D02*
X146558000Y-74676000D01*
X146558000Y-74676000D02*
X120142000Y-74676000D01*
X125206286Y-111355143D02*
X125158667Y-111402762D01*
X125015810Y-111450381D01*
X124920572Y-111450381D01*
X124777714Y-111402762D01*
X124682476Y-111307524D01*
X124634857Y-111212286D01*
X124587238Y-111021810D01*
X124587238Y-110878952D01*
X124634857Y-110688476D01*
X124682476Y-110593238D01*
X124777714Y-110498000D01*
X124920572Y-110450381D01*
X125015810Y-110450381D01*
X125158667Y-110498000D01*
X125206286Y-110545619D01*
X125825333Y-110450381D02*
X126015810Y-110450381D01*
X126111048Y-110498000D01*
X126206286Y-110593238D01*
X126253905Y-110783714D01*
X126253905Y-111117048D01*
X126206286Y-111307524D01*
X126111048Y-111402762D01*
X126015810Y-111450381D01*
X125825333Y-111450381D01*
X125730095Y-111402762D01*
X125634857Y-111307524D01*
X125587238Y-111117048D01*
X125587238Y-110783714D01*
X125634857Y-110593238D01*
X125730095Y-110498000D01*
X125825333Y-110450381D01*
X126682476Y-111450381D02*
X126682476Y-110450381D01*
X127015810Y-111164667D01*
X127349143Y-110450381D01*
X127349143Y-111450381D01*
X127825333Y-111450381D02*
X127825333Y-110450381D01*
X128206286Y-110450381D01*
X128301524Y-110498000D01*
X128349143Y-110545619D01*
X128396762Y-110640857D01*
X128396762Y-110783714D01*
X128349143Y-110878952D01*
X128301524Y-110926571D01*
X128206286Y-110974190D01*
X127825333Y-110974190D01*
X120142000Y-114808000D02*
X120142000Y-118110000D01*
X120142000Y-118110000D02*
X146558000Y-118110000D01*
X146558000Y-118110000D02*
X146558000Y-114808000D01*
X93599000Y-74676000D02*
X93599000Y-114808000D01*
X120015000Y-114808000D02*
X120015000Y-74676000D01*
X120015000Y-74676000D02*
X93599000Y-74676000D01*
X98663286Y-111355143D02*
X98615667Y-111402762D01*
X98472810Y-111450381D01*
X98377572Y-111450381D01*
X98234714Y-111402762D01*
X98139476Y-111307524D01*
X98091857Y-111212286D01*
X98044238Y-111021810D01*
X98044238Y-110878952D01*
X98091857Y-110688476D01*
X98139476Y-110593238D01*
X98234714Y-110498000D01*
X98377572Y-110450381D01*
X98472810Y-110450381D01*
X98615667Y-110498000D01*
X98663286Y-110545619D01*
X99282333Y-110450381D02*
X99472810Y-110450381D01*
X99568048Y-110498000D01*
X99663286Y-110593238D01*
X99710905Y-110783714D01*
X99710905Y-111117048D01*
X99663286Y-111307524D01*
X99568048Y-111402762D01*
X99472810Y-111450381D01*
X99282333Y-111450381D01*
X99187095Y-111402762D01*
X99091857Y-111307524D01*
X99044238Y-111117048D01*
X99044238Y-110783714D01*
X99091857Y-110593238D01*
X99187095Y-110498000D01*
X99282333Y-110450381D01*
X100139476Y-111450381D02*
X100139476Y-110450381D01*
X100472810Y-111164667D01*
X100806143Y-110450381D01*
X100806143Y-111450381D01*
X101282333Y-111450381D02*
X101282333Y-110450381D01*
X101663286Y-110450381D01*
X101758524Y-110498000D01*
X101806143Y-110545619D01*
X101853762Y-110640857D01*
X101853762Y-110783714D01*
X101806143Y-110878952D01*
X101758524Y-110926571D01*
X101663286Y-110974190D01*
X101282333Y-110974190D01*
X93599000Y-114808000D02*
X93599000Y-118110000D01*
X93599000Y-118110000D02*
X120015000Y-118110000D01*
X120015000Y-118110000D02*
X120015000Y-114808000D01*
X67056000Y-74676000D02*
X67056000Y-114808000D01*
X93472000Y-114808000D02*
X93472000Y-74676000D01*
X93472000Y-74676000D02*
X67056000Y-74676000D01*
X72120286Y-111355143D02*
X72072667Y-111402762D01*
X71929810Y-111450381D01*
X71834572Y-111450381D01*
X71691714Y-111402762D01*
X71596476Y-111307524D01*
X71548857Y-111212286D01*
X71501238Y-111021810D01*
X71501238Y-110878952D01*
X71548857Y-110688476D01*
X71596476Y-110593238D01*
X71691714Y-110498000D01*
X71834572Y-110450381D01*
X71929810Y-110450381D01*
X72072667Y-110498000D01*
X72120286Y-110545619D01*
X72739333Y-110450381D02*
X72929810Y-110450381D01*
X73025048Y-110498000D01*
X73120286Y-110593238D01*
X73167905Y-110783714D01*
X73167905Y-111117048D01*
X73120286Y-111307524D01*
X73025048Y-111402762D01*
X72929810Y-111450381D01*
X72739333Y-111450381D01*
X72644095Y-111402762D01*
X72548857Y-111307524D01*
X72501238Y-111117048D01*
X72501238Y-110783714D01*
X72548857Y-110593238D01*
X72644095Y-110498000D01*
X72739333Y-110450381D01*
X73596476Y-111450381D02*
X73596476Y-110450381D01*
X73929810Y-111164667D01*
X74263143Y-110450381D01*
X74263143Y-111450381D01*
X74739333Y-111450381D02*
X74739333Y-110450381D01*
X75120286Y-110450381D01*
X75215524Y-110498000D01*
X75263143Y-110545619D01*
X75310762Y-110640857D01*
X75310762Y-110783714D01*
X75263143Y-110878952D01*
X75215524Y-110926571D01*
X75120286Y-110974190D01*
X74739333Y-110974190D01*
X67056000Y-114808000D02*
X67056000Y-118110000D01*
X67056000Y-118110000D02*
X93472000Y-118110000D01*
X93472000Y-118110000D02*
X93472000Y-114808000D01*
X40513000Y-74676000D02*
X40513000Y-114808000D01*
X66929000Y-114808000D02*
X66929000Y-74676000D01*
X66929000Y-74676000D02*
X40513000Y-74676000D01*
X45577286Y-111355143D02*
X45529667Y-111402762D01*
X45386810Y-111450381D01*
X45291572Y-111450381D01*
X45148714Y-111402762D01*
X45053476Y-111307524D01*
X45005857Y-111212286D01*
X44958238Y-111021810D01*
X44958238Y-110878952D01*
X45005857Y-110688476D01*
X45053476Y-110593238D01*
X45148714Y-110498000D01*
X45291572Y-110450381D01*
X45386810Y-110450381D01*
X45529667Y-110498000D01*
X45577286Y-110545619D01*
X46196333Y-110450381D02*
X46386810Y-110450381D01*
X46482048Y-110498000D01*
X46577286Y-110593238D01*
X46624905Y-110783714D01*
X46624905Y-111117048D01*
X46577286Y-111307524D01*
X46482048Y-111402762D01*
X46386810Y-111450381D01*
X46196333Y-111450381D01*
X46101095Y-111402762D01*
X46005857Y-111307524D01*
X45958238Y-111117048D01*
X45958238Y-110783714D01*
X46005857Y-110593238D01*
X46101095Y-110498000D01*
X46196333Y-110450381D01*
X47053476Y-111450381D02*
X47053476Y-110450381D01*
X47386810Y-111164667D01*
X47720143Y-110450381D01*
X47720143Y-111450381D01*
X48196333Y-111450381D02*
X48196333Y-110450381D01*
X48577286Y-110450381D01*
X48672524Y-110498000D01*
X48720143Y-110545619D01*
X48767762Y-110640857D01*
X48767762Y-110783714D01*
X48720143Y-110878952D01*
X48672524Y-110926571D01*
X48577286Y-110974190D01*
X48196333Y-110974190D01*
X40513000Y-114808000D02*
X40513000Y-118110000D01*
X40513000Y-118110000D02*
X66929000Y-118110000D01*
X66929000Y-118110000D02*
X66929000Y-114808000D01*
X146685000Y-30988000D02*
X146685000Y-71120000D01*
X173101000Y-71120000D02*
X173101000Y-30988000D01*
X173101000Y-30988000D02*
X146685000Y-30988000D01*
X151749286Y-67667143D02*
X151701667Y-67714762D01*
X151558810Y-67762381D01*
X151463572Y-67762381D01*
X151320714Y-67714762D01*
X151225476Y-67619524D01*
X151177857Y-67524286D01*
X151130238Y-67333810D01*
X151130238Y-67190952D01*
X151177857Y-67000476D01*
X151225476Y-66905238D01*
X151320714Y-66810000D01*
X151463572Y-66762381D01*
X151558810Y-66762381D01*
X151701667Y-66810000D01*
X151749286Y-66857619D01*
X152368333Y-66762381D02*
X152558810Y-66762381D01*
X152654048Y-66810000D01*
X152749286Y-66905238D01*
X152796905Y-67095714D01*
X152796905Y-67429048D01*
X152749286Y-67619524D01*
X152654048Y-67714762D01*
X152558810Y-67762381D01*
X152368333Y-67762381D01*
X152273095Y-67714762D01*
X152177857Y-67619524D01*
X152130238Y-67429048D01*
X152130238Y-67095714D01*
X152177857Y-66905238D01*
X152273095Y-66810000D01*
X152368333Y-66762381D01*
X153225476Y-67762381D02*
X153225476Y-66762381D01*
X153558810Y-67476667D01*
X153892143Y-66762381D01*
X153892143Y-67762381D01*
X154368333Y-67762381D02*
X154368333Y-66762381D01*
X154749286Y-66762381D01*
X154844524Y-66810000D01*
X154892143Y-66857619D01*
X154939762Y-66952857D01*
X154939762Y-67095714D01*
X154892143Y-67190952D01*
X154844524Y-67238571D01*
X154749286Y-67286190D01*
X154368333Y-67286190D01*
X146685000Y-71120000D02*
X146685000Y-74422000D01*
X146685000Y-74422000D02*
X173101000Y-74422000D01*
X173101000Y-74422000D02*
X173101000Y-71120000D01*
X120142000Y-30988000D02*
X120142000Y-71120000D01*
X146558000Y-71120000D02*
X146558000Y-30988000D01*
X146558000Y-30988000D02*
X120142000Y-30988000D01*
X125206286Y-67667143D02*
X125158667Y-67714762D01*
X125015810Y-67762381D01*
X124920572Y-67762381D01*
X124777714Y-67714762D01*
X124682476Y-67619524D01*
X124634857Y-67524286D01*
X124587238Y-67333810D01*
X124587238Y-67190952D01*
X124634857Y-67000476D01*
X124682476Y-66905238D01*
X124777714Y-66810000D01*
X124920572Y-66762381D01*
X125015810Y-66762381D01*
X125158667Y-66810000D01*
X125206286Y-66857619D01*
X125825333Y-66762381D02*
X126015810Y-66762381D01*
X126111048Y-66810000D01*
X126206286Y-66905238D01*
X126253905Y-67095714D01*
X126253905Y-67429048D01*
X126206286Y-67619524D01*
X126111048Y-67714762D01*
X126015810Y-67762381D01*
X125825333Y-67762381D01*
X125730095Y-67714762D01*
X125634857Y-67619524D01*
X125587238Y-67429048D01*
X125587238Y-67095714D01*
X125634857Y-66905238D01*
X125730095Y-66810000D01*
X125825333Y-66762381D01*
X126682476Y-67762381D02*
X126682476Y-66762381D01*
X127015810Y-67476667D01*
X127349143Y-66762381D01*
X127349143Y-67762381D01*
X127825333Y-67762381D02*
X127825333Y-66762381D01*
X128206286Y-66762381D01*
X128301524Y-66810000D01*
X128349143Y-66857619D01*
X128396762Y-66952857D01*
X128396762Y-67095714D01*
X128349143Y-67190952D01*
X128301524Y-67238571D01*
X128206286Y-67286190D01*
X127825333Y-67286190D01*
X120142000Y-71120000D02*
X120142000Y-74422000D01*
X120142000Y-74422000D02*
X146558000Y-74422000D01*
X146558000Y-74422000D02*
X146558000Y-71120000D01*
X93599000Y-30988000D02*
X93599000Y-71120000D01*
X120015000Y-71120000D02*
X120015000Y-30988000D01*
X120015000Y-30988000D02*
X93599000Y-30988000D01*
X98663286Y-67667143D02*
X98615667Y-67714762D01*
X98472810Y-67762381D01*
X98377572Y-67762381D01*
X98234714Y-67714762D01*
X98139476Y-67619524D01*
X98091857Y-67524286D01*
X98044238Y-67333810D01*
X98044238Y-67190952D01*
X98091857Y-67000476D01*
X98139476Y-66905238D01*
X98234714Y-66810000D01*
X98377572Y-66762381D01*
X98472810Y-66762381D01*
X98615667Y-66810000D01*
X98663286Y-66857619D01*
X99282333Y-66762381D02*
X99472810Y-66762381D01*
X99568048Y-66810000D01*
X99663286Y-66905238D01*
X99710905Y-67095714D01*
X99710905Y-67429048D01*
X99663286Y-67619524D01*
X99568048Y-67714762D01*
X99472810Y-67762381D01*
X99282333Y-67762381D01*
X99187095Y-67714762D01*
X99091857Y-67619524D01*
X99044238Y-67429048D01*
X99044238Y-67095714D01*
X99091857Y-66905238D01*
X99187095Y-66810000D01*
X99282333Y-66762381D01*
X100139476Y-67762381D02*
X100139476Y-66762381D01*
X100472810Y-67476667D01*
X100806143Y-66762381D01*
X100806143Y-67762381D01*
X101282333Y-67762381D02*
X101282333Y-66762381D01*
X101663286Y-66762381D01*
X101758524Y-66810000D01*
X101806143Y-66857619D01*
X101853762Y-66952857D01*
X101853762Y-67095714D01*
X101806143Y-67190952D01*
X101758524Y-67238571D01*
X101663286Y-67286190D01*
X101282333Y-67286190D01*
X93599000Y-71120000D02*
X93599000Y-74422000D01*
X93599000Y-74422000D02*
X120015000Y-74422000D01*
X120015000Y-74422000D02*
X120015000Y-71120000D01*
X67056000Y-30988000D02*
X67056000Y-71120000D01*
X93472000Y-71120000D02*
X93472000Y-30988000D01*
X93472000Y-30988000D02*
X67056000Y-30988000D01*
X72120286Y-67667143D02*
X72072667Y-67714762D01*
X71929810Y-67762381D01*
X71834572Y-67762381D01*
X71691714Y-67714762D01*
X71596476Y-67619524D01*
X71548857Y-67524286D01*
X71501238Y-67333810D01*
X71501238Y-67190952D01*
X71548857Y-67000476D01*
X71596476Y-66905238D01*
X71691714Y-66810000D01*
X71834572Y-66762381D01*
X71929810Y-66762381D01*
X72072667Y-66810000D01*
X72120286Y-66857619D01*
X72739333Y-66762381D02*
X72929810Y-66762381D01*
X73025048Y-66810000D01*
X73120286Y-66905238D01*
X73167905Y-67095714D01*
X73167905Y-67429048D01*
X73120286Y-67619524D01*
X73025048Y-67714762D01*
X72929810Y-67762381D01*
X72739333Y-67762381D01*
X72644095Y-67714762D01*
X72548857Y-67619524D01*
X72501238Y-67429048D01*
X72501238Y-67095714D01*
X72548857Y-66905238D01*
X72644095Y-66810000D01*
X72739333Y-66762381D01*
X73596476Y-67762381D02*
X73596476Y-66762381D01*
X73929810Y-67476667D01*
X74263143Y-66762381D01*
X74263143Y-67762381D01*
X74739333Y-67762381D02*
X74739333Y-66762381D01*
X75120286Y-66762381D01*
X75215524Y-66810000D01*
X75263143Y-66857619D01*
X75310762Y-66952857D01*
X75310762Y-67095714D01*
X75263143Y-67190952D01*
X75215524Y-67238571D01*
X75120286Y-67286190D01*
X74739333Y-67286190D01*
X67056000Y-71120000D02*
X67056000Y-74422000D01*
X67056000Y-74422000D02*
X93472000Y-74422000D01*
X93472000Y-74422000D02*
X93472000Y-71120000D01*
X66929000Y-74422000D02*
X66929000Y-71120000D01*
X40513000Y-74422000D02*
X66929000Y-74422000D01*
X40513000Y-71120000D02*
X40513000Y-74422000D01*
X45577286Y-67667143D02*
X45529667Y-67714762D01*
X45386810Y-67762381D01*
X45291572Y-67762381D01*
X45148714Y-67714762D01*
X45053476Y-67619524D01*
X45005857Y-67524286D01*
X44958238Y-67333810D01*
X44958238Y-67190952D01*
X45005857Y-67000476D01*
X45053476Y-66905238D01*
X45148714Y-66810000D01*
X45291572Y-66762381D01*
X45386810Y-66762381D01*
X45529667Y-66810000D01*
X45577286Y-66857619D01*
X46196333Y-66762381D02*
X46386810Y-66762381D01*
X46482048Y-66810000D01*
X46577286Y-66905238D01*
X46624905Y-67095714D01*
X46624905Y-67429048D01*
X46577286Y-67619524D01*
X46482048Y-67714762D01*
X46386810Y-67762381D01*
X46196333Y-67762381D01*
X46101095Y-67714762D01*
X46005857Y-67619524D01*
X45958238Y-67429048D01*
X45958238Y-67095714D01*
X46005857Y-66905238D01*
X46101095Y-66810000D01*
X46196333Y-66762381D01*
X47053476Y-67762381D02*
X47053476Y-66762381D01*
X47386810Y-67476667D01*
X47720143Y-66762381D01*
X47720143Y-67762381D01*
X48196333Y-67762381D02*
X48196333Y-66762381D01*
X48577286Y-66762381D01*
X48672524Y-66810000D01*
X48720143Y-66857619D01*
X48767762Y-66952857D01*
X48767762Y-67095714D01*
X48720143Y-67190952D01*
X48672524Y-67238571D01*
X48577286Y-67286190D01*
X48196333Y-67286190D01*
X66929000Y-30988000D02*
X40513000Y-30988000D01*
X66929000Y-71120000D02*
X66929000Y-30988000D01*
X40513000Y-30988000D02*
X40513000Y-71120000D01*
D12*
X152095200Y-77012800D03*
D13*
X154635200Y-77012800D03*
X157175200Y-77012800D03*
X159715200Y-77012800D03*
X162255200Y-77012800D03*
X164795200Y-77012800D03*
X167335200Y-77012800D03*
D14*
X162687000Y-110744000D03*
X157607000Y-110744000D03*
D15*
X148463000Y-81788000D03*
D16*
X148463000Y-84328000D03*
X148463000Y-86868000D03*
X148463000Y-89408000D03*
X148463000Y-91948000D03*
X148463000Y-94488000D03*
X148463000Y-97028000D03*
X148463000Y-99568000D03*
X148463000Y-102108000D03*
X148463000Y-104648000D03*
X148463000Y-107188000D03*
X148463000Y-109728000D03*
X148463000Y-112268000D03*
D15*
X171323000Y-81788000D03*
D16*
X171323000Y-84328000D03*
X171323000Y-86868000D03*
X171323000Y-89408000D03*
X171323000Y-91948000D03*
X171323000Y-94488000D03*
X171323000Y-97028000D03*
X171323000Y-99568000D03*
X171323000Y-102108000D03*
X171323000Y-104648000D03*
X171323000Y-107188000D03*
X171323000Y-109728000D03*
X171323000Y-112268000D03*
D17*
X167893000Y-100996000D03*
X151893000Y-88996000D03*
X151893000Y-90996000D03*
X151893000Y-92996000D03*
X151893000Y-94996000D03*
X151893000Y-96996000D03*
X151893000Y-98996000D03*
X151893000Y-100996000D03*
X151893000Y-102996000D03*
D18*
X154893000Y-104996000D03*
X156893000Y-104996000D03*
X160893000Y-104996000D03*
X162893000Y-104996000D03*
X164893000Y-104996000D03*
D17*
X167893000Y-102996000D03*
X167893000Y-100996000D03*
D18*
X158893000Y-104996000D03*
D17*
X167893000Y-98996000D03*
X167893000Y-96996000D03*
X167893000Y-94996000D03*
X167893000Y-92996000D03*
X167893000Y-90996000D03*
X167893000Y-88996000D03*
D19*
X171069000Y-116078000D03*
X148463000Y-116078000D03*
X148463000Y-76708000D03*
X171069000Y-76708000D03*
D12*
X125552200Y-77012800D03*
D13*
X128092200Y-77012800D03*
X130632200Y-77012800D03*
X133172200Y-77012800D03*
X135712200Y-77012800D03*
X138252200Y-77012800D03*
X140792200Y-77012800D03*
D14*
X136144000Y-110744000D03*
X131064000Y-110744000D03*
D15*
X121920000Y-81788000D03*
D16*
X121920000Y-84328000D03*
X121920000Y-86868000D03*
X121920000Y-89408000D03*
X121920000Y-91948000D03*
X121920000Y-94488000D03*
X121920000Y-97028000D03*
X121920000Y-99568000D03*
X121920000Y-102108000D03*
X121920000Y-104648000D03*
X121920000Y-107188000D03*
X121920000Y-109728000D03*
X121920000Y-112268000D03*
D15*
X144780000Y-81788000D03*
D16*
X144780000Y-84328000D03*
X144780000Y-86868000D03*
X144780000Y-89408000D03*
X144780000Y-91948000D03*
X144780000Y-94488000D03*
X144780000Y-97028000D03*
X144780000Y-99568000D03*
X144780000Y-102108000D03*
X144780000Y-104648000D03*
X144780000Y-107188000D03*
X144780000Y-109728000D03*
X144780000Y-112268000D03*
D17*
X141350000Y-100996000D03*
X125350000Y-88996000D03*
X125350000Y-90996000D03*
X125350000Y-92996000D03*
X125350000Y-94996000D03*
X125350000Y-96996000D03*
X125350000Y-98996000D03*
X125350000Y-100996000D03*
X125350000Y-102996000D03*
D18*
X128350000Y-104996000D03*
X130350000Y-104996000D03*
X134350000Y-104996000D03*
X136350000Y-104996000D03*
X138350000Y-104996000D03*
D17*
X141350000Y-102996000D03*
X141350000Y-100996000D03*
D18*
X132350000Y-104996000D03*
D17*
X141350000Y-98996000D03*
X141350000Y-96996000D03*
X141350000Y-94996000D03*
X141350000Y-92996000D03*
X141350000Y-90996000D03*
X141350000Y-88996000D03*
D19*
X144526000Y-116078000D03*
X121920000Y-116078000D03*
X121920000Y-76708000D03*
X144526000Y-76708000D03*
D12*
X99009200Y-77012800D03*
D13*
X101549200Y-77012800D03*
X104089200Y-77012800D03*
X106629200Y-77012800D03*
X109169200Y-77012800D03*
X111709200Y-77012800D03*
X114249200Y-77012800D03*
D14*
X109601000Y-110744000D03*
X104521000Y-110744000D03*
D15*
X95377000Y-81788000D03*
D16*
X95377000Y-84328000D03*
X95377000Y-86868000D03*
X95377000Y-89408000D03*
X95377000Y-91948000D03*
X95377000Y-94488000D03*
X95377000Y-97028000D03*
X95377000Y-99568000D03*
X95377000Y-102108000D03*
X95377000Y-104648000D03*
X95377000Y-107188000D03*
X95377000Y-109728000D03*
X95377000Y-112268000D03*
D15*
X118237000Y-81788000D03*
D16*
X118237000Y-84328000D03*
X118237000Y-86868000D03*
X118237000Y-89408000D03*
X118237000Y-91948000D03*
X118237000Y-94488000D03*
X118237000Y-97028000D03*
X118237000Y-99568000D03*
X118237000Y-102108000D03*
X118237000Y-104648000D03*
X118237000Y-107188000D03*
X118237000Y-109728000D03*
X118237000Y-112268000D03*
D17*
X114807000Y-100996000D03*
X98807000Y-88996000D03*
X98807000Y-90996000D03*
X98807000Y-92996000D03*
X98807000Y-94996000D03*
X98807000Y-96996000D03*
X98807000Y-98996000D03*
X98807000Y-100996000D03*
X98807000Y-102996000D03*
D18*
X101807000Y-104996000D03*
X103807000Y-104996000D03*
X107807000Y-104996000D03*
X109807000Y-104996000D03*
X111807000Y-104996000D03*
D17*
X114807000Y-102996000D03*
X114807000Y-100996000D03*
D18*
X105807000Y-104996000D03*
D17*
X114807000Y-98996000D03*
X114807000Y-96996000D03*
X114807000Y-94996000D03*
X114807000Y-92996000D03*
X114807000Y-90996000D03*
X114807000Y-88996000D03*
D19*
X117983000Y-116078000D03*
X95377000Y-116078000D03*
X95377000Y-76708000D03*
X117983000Y-76708000D03*
D12*
X72466200Y-77012800D03*
D13*
X75006200Y-77012800D03*
X77546200Y-77012800D03*
X80086200Y-77012800D03*
X82626200Y-77012800D03*
X85166200Y-77012800D03*
X87706200Y-77012800D03*
D14*
X83058000Y-110744000D03*
X77978000Y-110744000D03*
D15*
X68834000Y-81788000D03*
D16*
X68834000Y-84328000D03*
X68834000Y-86868000D03*
X68834000Y-89408000D03*
X68834000Y-91948000D03*
X68834000Y-94488000D03*
X68834000Y-97028000D03*
X68834000Y-99568000D03*
X68834000Y-102108000D03*
X68834000Y-104648000D03*
X68834000Y-107188000D03*
X68834000Y-109728000D03*
X68834000Y-112268000D03*
D15*
X91694000Y-81788000D03*
D16*
X91694000Y-84328000D03*
X91694000Y-86868000D03*
X91694000Y-89408000D03*
X91694000Y-91948000D03*
X91694000Y-94488000D03*
X91694000Y-97028000D03*
X91694000Y-99568000D03*
X91694000Y-102108000D03*
X91694000Y-104648000D03*
X91694000Y-107188000D03*
X91694000Y-109728000D03*
X91694000Y-112268000D03*
D17*
X88264000Y-100996000D03*
X72264000Y-88996000D03*
X72264000Y-90996000D03*
X72264000Y-92996000D03*
X72264000Y-94996000D03*
X72264000Y-96996000D03*
X72264000Y-98996000D03*
X72264000Y-100996000D03*
X72264000Y-102996000D03*
D18*
X75264000Y-104996000D03*
X77264000Y-104996000D03*
X81264000Y-104996000D03*
X83264000Y-104996000D03*
X85264000Y-104996000D03*
D17*
X88264000Y-102996000D03*
X88264000Y-100996000D03*
D18*
X79264000Y-104996000D03*
D17*
X88264000Y-98996000D03*
X88264000Y-96996000D03*
X88264000Y-94996000D03*
X88264000Y-92996000D03*
X88264000Y-90996000D03*
X88264000Y-88996000D03*
D19*
X91440000Y-116078000D03*
X68834000Y-116078000D03*
X68834000Y-76708000D03*
X91440000Y-76708000D03*
D12*
X45923200Y-77012800D03*
D13*
X48463200Y-77012800D03*
X51003200Y-77012800D03*
X53543200Y-77012800D03*
X56083200Y-77012800D03*
X58623200Y-77012800D03*
X61163200Y-77012800D03*
D14*
X56515000Y-110744000D03*
X51435000Y-110744000D03*
D15*
X42291000Y-81788000D03*
D16*
X42291000Y-84328000D03*
X42291000Y-86868000D03*
X42291000Y-89408000D03*
X42291000Y-91948000D03*
X42291000Y-94488000D03*
X42291000Y-97028000D03*
X42291000Y-99568000D03*
X42291000Y-102108000D03*
X42291000Y-104648000D03*
X42291000Y-107188000D03*
X42291000Y-109728000D03*
X42291000Y-112268000D03*
D15*
X65151000Y-81788000D03*
D16*
X65151000Y-84328000D03*
X65151000Y-86868000D03*
X65151000Y-89408000D03*
X65151000Y-91948000D03*
X65151000Y-94488000D03*
X65151000Y-97028000D03*
X65151000Y-99568000D03*
X65151000Y-102108000D03*
X65151000Y-104648000D03*
X65151000Y-107188000D03*
X65151000Y-109728000D03*
X65151000Y-112268000D03*
D17*
X61721000Y-100996000D03*
X45721000Y-88996000D03*
X45721000Y-90996000D03*
X45721000Y-92996000D03*
X45721000Y-94996000D03*
X45721000Y-96996000D03*
X45721000Y-98996000D03*
X45721000Y-100996000D03*
X45721000Y-102996000D03*
D18*
X48721000Y-104996000D03*
X50721000Y-104996000D03*
X54721000Y-104996000D03*
X56721000Y-104996000D03*
X58721000Y-104996000D03*
D17*
X61721000Y-102996000D03*
X61721000Y-100996000D03*
D18*
X52721000Y-104996000D03*
D17*
X61721000Y-98996000D03*
X61721000Y-96996000D03*
X61721000Y-94996000D03*
X61721000Y-92996000D03*
X61721000Y-90996000D03*
X61721000Y-88996000D03*
D19*
X64897000Y-116078000D03*
X42291000Y-116078000D03*
X42291000Y-76708000D03*
X64897000Y-76708000D03*
D12*
X152095200Y-33324800D03*
D13*
X154635200Y-33324800D03*
X157175200Y-33324800D03*
X159715200Y-33324800D03*
X162255200Y-33324800D03*
X164795200Y-33324800D03*
X167335200Y-33324800D03*
D14*
X162687000Y-67056000D03*
X157607000Y-67056000D03*
D15*
X148463000Y-38100000D03*
D16*
X148463000Y-40640000D03*
X148463000Y-43180000D03*
X148463000Y-45720000D03*
X148463000Y-48260000D03*
X148463000Y-50800000D03*
X148463000Y-53340000D03*
X148463000Y-55880000D03*
X148463000Y-58420000D03*
X148463000Y-60960000D03*
X148463000Y-63500000D03*
X148463000Y-66040000D03*
X148463000Y-68580000D03*
D15*
X171323000Y-38100000D03*
D16*
X171323000Y-40640000D03*
X171323000Y-43180000D03*
X171323000Y-45720000D03*
X171323000Y-48260000D03*
X171323000Y-50800000D03*
X171323000Y-53340000D03*
X171323000Y-55880000D03*
X171323000Y-58420000D03*
X171323000Y-60960000D03*
X171323000Y-63500000D03*
X171323000Y-66040000D03*
X171323000Y-68580000D03*
D17*
X167893000Y-57308000D03*
X151893000Y-45308000D03*
X151893000Y-47308000D03*
X151893000Y-49308000D03*
X151893000Y-51308000D03*
X151893000Y-53308000D03*
X151893000Y-55308000D03*
X151893000Y-57308000D03*
X151893000Y-59308000D03*
D18*
X154893000Y-61308000D03*
X156893000Y-61308000D03*
X160893000Y-61308000D03*
X162893000Y-61308000D03*
X164893000Y-61308000D03*
D17*
X167893000Y-59308000D03*
X167893000Y-57308000D03*
D18*
X158893000Y-61308000D03*
D17*
X167893000Y-55308000D03*
X167893000Y-53308000D03*
X167893000Y-51308000D03*
X167893000Y-49308000D03*
X167893000Y-47308000D03*
X167893000Y-45308000D03*
D19*
X171069000Y-72390000D03*
X148463000Y-72390000D03*
X148463000Y-33020000D03*
X171069000Y-33020000D03*
D12*
X125552200Y-33324800D03*
D13*
X128092200Y-33324800D03*
X130632200Y-33324800D03*
X133172200Y-33324800D03*
X135712200Y-33324800D03*
X138252200Y-33324800D03*
X140792200Y-33324800D03*
D14*
X136144000Y-67056000D03*
X131064000Y-67056000D03*
D15*
X121920000Y-38100000D03*
D16*
X121920000Y-40640000D03*
X121920000Y-43180000D03*
X121920000Y-45720000D03*
X121920000Y-48260000D03*
X121920000Y-50800000D03*
X121920000Y-53340000D03*
X121920000Y-55880000D03*
X121920000Y-58420000D03*
X121920000Y-60960000D03*
X121920000Y-63500000D03*
X121920000Y-66040000D03*
X121920000Y-68580000D03*
D15*
X144780000Y-38100000D03*
D16*
X144780000Y-40640000D03*
X144780000Y-43180000D03*
X144780000Y-45720000D03*
X144780000Y-48260000D03*
X144780000Y-50800000D03*
X144780000Y-53340000D03*
X144780000Y-55880000D03*
X144780000Y-58420000D03*
X144780000Y-60960000D03*
X144780000Y-63500000D03*
X144780000Y-66040000D03*
X144780000Y-68580000D03*
D17*
X141350000Y-57308000D03*
X125350000Y-45308000D03*
X125350000Y-47308000D03*
X125350000Y-49308000D03*
X125350000Y-51308000D03*
X125350000Y-53308000D03*
X125350000Y-55308000D03*
X125350000Y-57308000D03*
X125350000Y-59308000D03*
D18*
X128350000Y-61308000D03*
X130350000Y-61308000D03*
X134350000Y-61308000D03*
X136350000Y-61308000D03*
X138350000Y-61308000D03*
D17*
X141350000Y-59308000D03*
X141350000Y-57308000D03*
D18*
X132350000Y-61308000D03*
D17*
X141350000Y-55308000D03*
X141350000Y-53308000D03*
X141350000Y-51308000D03*
X141350000Y-49308000D03*
X141350000Y-47308000D03*
X141350000Y-45308000D03*
D19*
X144526000Y-72390000D03*
X121920000Y-72390000D03*
X121920000Y-33020000D03*
X144526000Y-33020000D03*
D12*
X99009200Y-33324800D03*
D13*
X101549200Y-33324800D03*
X104089200Y-33324800D03*
X106629200Y-33324800D03*
X109169200Y-33324800D03*
X111709200Y-33324800D03*
X114249200Y-33324800D03*
D14*
X109601000Y-67056000D03*
X104521000Y-67056000D03*
D15*
X95377000Y-38100000D03*
D16*
X95377000Y-40640000D03*
X95377000Y-43180000D03*
X95377000Y-45720000D03*
X95377000Y-48260000D03*
X95377000Y-50800000D03*
X95377000Y-53340000D03*
X95377000Y-55880000D03*
X95377000Y-58420000D03*
X95377000Y-60960000D03*
X95377000Y-63500000D03*
X95377000Y-66040000D03*
X95377000Y-68580000D03*
D15*
X118237000Y-38100000D03*
D16*
X118237000Y-40640000D03*
X118237000Y-43180000D03*
X118237000Y-45720000D03*
X118237000Y-48260000D03*
X118237000Y-50800000D03*
X118237000Y-53340000D03*
X118237000Y-55880000D03*
X118237000Y-58420000D03*
X118237000Y-60960000D03*
X118237000Y-63500000D03*
X118237000Y-66040000D03*
X118237000Y-68580000D03*
D17*
X114807000Y-57308000D03*
X98807000Y-45308000D03*
X98807000Y-47308000D03*
X98807000Y-49308000D03*
X98807000Y-51308000D03*
X98807000Y-53308000D03*
X98807000Y-55308000D03*
X98807000Y-57308000D03*
X98807000Y-59308000D03*
D18*
X101807000Y-61308000D03*
X103807000Y-61308000D03*
X107807000Y-61308000D03*
X109807000Y-61308000D03*
X111807000Y-61308000D03*
D17*
X114807000Y-59308000D03*
X114807000Y-57308000D03*
D18*
X105807000Y-61308000D03*
D17*
X114807000Y-55308000D03*
X114807000Y-53308000D03*
X114807000Y-51308000D03*
X114807000Y-49308000D03*
X114807000Y-47308000D03*
X114807000Y-45308000D03*
D19*
X117983000Y-72390000D03*
X95377000Y-72390000D03*
X95377000Y-33020000D03*
X117983000Y-33020000D03*
D12*
X72466200Y-33324800D03*
D13*
X75006200Y-33324800D03*
X77546200Y-33324800D03*
X80086200Y-33324800D03*
X82626200Y-33324800D03*
X85166200Y-33324800D03*
X87706200Y-33324800D03*
D14*
X83058000Y-67056000D03*
X77978000Y-67056000D03*
D15*
X68834000Y-38100000D03*
D16*
X68834000Y-40640000D03*
X68834000Y-43180000D03*
X68834000Y-45720000D03*
X68834000Y-48260000D03*
X68834000Y-50800000D03*
X68834000Y-53340000D03*
X68834000Y-55880000D03*
X68834000Y-58420000D03*
X68834000Y-60960000D03*
X68834000Y-63500000D03*
X68834000Y-66040000D03*
X68834000Y-68580000D03*
D15*
X91694000Y-38100000D03*
D16*
X91694000Y-40640000D03*
X91694000Y-43180000D03*
X91694000Y-45720000D03*
X91694000Y-48260000D03*
X91694000Y-50800000D03*
X91694000Y-53340000D03*
X91694000Y-55880000D03*
X91694000Y-58420000D03*
X91694000Y-60960000D03*
X91694000Y-63500000D03*
X91694000Y-66040000D03*
X91694000Y-68580000D03*
D17*
X88264000Y-57308000D03*
X72264000Y-45308000D03*
X72264000Y-47308000D03*
X72264000Y-49308000D03*
X72264000Y-51308000D03*
X72264000Y-53308000D03*
X72264000Y-55308000D03*
X72264000Y-57308000D03*
X72264000Y-59308000D03*
D18*
X75264000Y-61308000D03*
X77264000Y-61308000D03*
X81264000Y-61308000D03*
X83264000Y-61308000D03*
X85264000Y-61308000D03*
D17*
X88264000Y-59308000D03*
X88264000Y-57308000D03*
D18*
X79264000Y-61308000D03*
D17*
X88264000Y-55308000D03*
X88264000Y-53308000D03*
X88264000Y-51308000D03*
X88264000Y-49308000D03*
X88264000Y-47308000D03*
X88264000Y-45308000D03*
D19*
X91440000Y-72390000D03*
X68834000Y-72390000D03*
X68834000Y-33020000D03*
X91440000Y-33020000D03*
X64897000Y-33020000D03*
X42291000Y-33020000D03*
X42291000Y-72390000D03*
X64897000Y-72390000D03*
D17*
X61721000Y-57308000D03*
X45721000Y-45308000D03*
X45721000Y-47308000D03*
X45721000Y-49308000D03*
X45721000Y-51308000D03*
X45721000Y-53308000D03*
X45721000Y-55308000D03*
X45721000Y-57308000D03*
X45721000Y-59308000D03*
D18*
X48721000Y-61308000D03*
X50721000Y-61308000D03*
X54721000Y-61308000D03*
X56721000Y-61308000D03*
X58721000Y-61308000D03*
D17*
X61721000Y-59308000D03*
X61721000Y-57308000D03*
D18*
X52721000Y-61308000D03*
D17*
X61721000Y-55308000D03*
X61721000Y-53308000D03*
X61721000Y-51308000D03*
X61721000Y-49308000D03*
X61721000Y-47308000D03*
X61721000Y-45308000D03*
D15*
X65151000Y-38100000D03*
D16*
X65151000Y-40640000D03*
X65151000Y-43180000D03*
X65151000Y-45720000D03*
X65151000Y-48260000D03*
X65151000Y-50800000D03*
X65151000Y-53340000D03*
X65151000Y-55880000D03*
X65151000Y-58420000D03*
X65151000Y-60960000D03*
X65151000Y-63500000D03*
X65151000Y-66040000D03*
X65151000Y-68580000D03*
D15*
X42291000Y-38100000D03*
D16*
X42291000Y-40640000D03*
X42291000Y-43180000D03*
X42291000Y-45720000D03*
X42291000Y-48260000D03*
X42291000Y-50800000D03*
X42291000Y-53340000D03*
X42291000Y-55880000D03*
X42291000Y-58420000D03*
X42291000Y-60960000D03*
X42291000Y-63500000D03*
X42291000Y-66040000D03*
X42291000Y-68580000D03*
D14*
X56515000Y-67056000D03*
X51435000Y-67056000D03*
D12*
X45923200Y-33324800D03*
D13*
X48463200Y-33324800D03*
X51003200Y-33324800D03*
X53543200Y-33324800D03*
X56083200Y-33324800D03*
X58623200Y-33324800D03*
X61163200Y-33324800D03*
D20*
X155016200Y-87604600D03*
X163499800Y-86817200D03*
X128473200Y-87604600D03*
X136956800Y-86817200D03*
X101930200Y-87604600D03*
X110413800Y-86817200D03*
X75387200Y-87604600D03*
X83870800Y-86817200D03*
X48844200Y-87604600D03*
X57327800Y-86817200D03*
X155016200Y-43916600D03*
X163499800Y-43129200D03*
X128473200Y-43916600D03*
X136956800Y-43129200D03*
X101930200Y-43916600D03*
X110413800Y-43129200D03*
X75387200Y-43916600D03*
X83870800Y-43129200D03*
X57327800Y-43129200D03*
X48844200Y-43916600D03*
X168275000Y-105918000D03*
X163906200Y-88366600D03*
X141732000Y-105918000D03*
X137363200Y-88366600D03*
X115189000Y-105918000D03*
X110820200Y-88366600D03*
X88646000Y-105918000D03*
X84277200Y-88366600D03*
X62103000Y-105918000D03*
X57734200Y-88366600D03*
X168275000Y-62230000D03*
X163906200Y-44678600D03*
X141732000Y-62230000D03*
X137363200Y-44678600D03*
X115189000Y-62230000D03*
X110820200Y-44678600D03*
X88646000Y-62230000D03*
X84277200Y-44678600D03*
X57734200Y-44678600D03*
X62103000Y-62230000D03*
X153720800Y-79502000D03*
X155143200Y-97155000D03*
X127177800Y-79502000D03*
X128600200Y-97155000D03*
X100634800Y-79502000D03*
X102057200Y-97155000D03*
X74091800Y-79502000D03*
X75514200Y-97155000D03*
X47548800Y-79502000D03*
X48971200Y-97155000D03*
X153720800Y-35814000D03*
X155143200Y-53467000D03*
X127177800Y-35814000D03*
X128600200Y-53467000D03*
X100634800Y-35814000D03*
X102057200Y-53467000D03*
X74091800Y-35814000D03*
X75514200Y-53467000D03*
X48971200Y-53467000D03*
X47548800Y-35814000D03*
X160909000Y-92964000D03*
X134366000Y-92964000D03*
X107823000Y-92964000D03*
X81280000Y-92964000D03*
X54737000Y-92964000D03*
X160909000Y-49276000D03*
X134366000Y-49276000D03*
X107823000Y-49276000D03*
X81280000Y-49276000D03*
X54737000Y-49276000D03*
X162941000Y-97028000D03*
X136398000Y-97028000D03*
X109855000Y-97028000D03*
X83312000Y-97028000D03*
X56769000Y-97028000D03*
X162941000Y-53340000D03*
X136398000Y-53340000D03*
X109855000Y-53340000D03*
X83312000Y-53340000D03*
X56769000Y-53340000D03*
D21*
X154279600Y-86868000D02*
X148463000Y-86868000D01*
X155016200Y-87604600D02*
X154279600Y-86868000D01*
D22*
X167335200Y-77012800D02*
X167335200Y-79171800D01*
X163499800Y-83007200D02*
X163499800Y-86817200D01*
X167335200Y-79171800D02*
X163499800Y-83007200D01*
D21*
X151893000Y-88996000D02*
X151893000Y-87275400D01*
X151893000Y-87275400D02*
X151485600Y-86868000D01*
X151485600Y-86868000D02*
X148463000Y-86868000D01*
D23*
X151893000Y-88996000D02*
X150591000Y-88996000D01*
D21*
X127736600Y-86868000D02*
X121920000Y-86868000D01*
X128473200Y-87604600D02*
X127736600Y-86868000D01*
D22*
X140792200Y-77012800D02*
X140792200Y-79171800D01*
X136956800Y-83007200D02*
X136956800Y-86817200D01*
X140792200Y-79171800D02*
X136956800Y-83007200D01*
D21*
X125350000Y-88996000D02*
X125350000Y-87275400D01*
X125350000Y-87275400D02*
X124942600Y-86868000D01*
X124942600Y-86868000D02*
X121920000Y-86868000D01*
D23*
X125350000Y-88996000D02*
X124048000Y-88996000D01*
D21*
X101193600Y-86868000D02*
X95377000Y-86868000D01*
X101930200Y-87604600D02*
X101193600Y-86868000D01*
D22*
X114249200Y-77012800D02*
X114249200Y-79171800D01*
X110413800Y-83007200D02*
X110413800Y-86817200D01*
X114249200Y-79171800D02*
X110413800Y-83007200D01*
D21*
X98807000Y-88996000D02*
X98807000Y-87275400D01*
X98807000Y-87275400D02*
X98399600Y-86868000D01*
X98399600Y-86868000D02*
X95377000Y-86868000D01*
D23*
X98807000Y-88996000D02*
X97505000Y-88996000D01*
D21*
X74650600Y-86868000D02*
X68834000Y-86868000D01*
X75387200Y-87604600D02*
X74650600Y-86868000D01*
D22*
X87706200Y-77012800D02*
X87706200Y-79171800D01*
X83870800Y-83007200D02*
X83870800Y-86817200D01*
X87706200Y-79171800D02*
X83870800Y-83007200D01*
D21*
X72264000Y-88996000D02*
X72264000Y-87275400D01*
X72264000Y-87275400D02*
X71856600Y-86868000D01*
X71856600Y-86868000D02*
X68834000Y-86868000D01*
D23*
X72264000Y-88996000D02*
X70962000Y-88996000D01*
D21*
X48107600Y-86868000D02*
X42291000Y-86868000D01*
X48844200Y-87604600D02*
X48107600Y-86868000D01*
D22*
X61163200Y-77012800D02*
X61163200Y-79171800D01*
X57327800Y-83007200D02*
X57327800Y-86817200D01*
X61163200Y-79171800D02*
X57327800Y-83007200D01*
D21*
X45721000Y-88996000D02*
X45721000Y-87275400D01*
X45721000Y-87275400D02*
X45313600Y-86868000D01*
X45313600Y-86868000D02*
X42291000Y-86868000D01*
D23*
X45721000Y-88996000D02*
X44419000Y-88996000D01*
D21*
X154279600Y-43180000D02*
X148463000Y-43180000D01*
X155016200Y-43916600D02*
X154279600Y-43180000D01*
D22*
X167335200Y-33324800D02*
X167335200Y-35483800D01*
X163499800Y-39319200D02*
X163499800Y-43129200D01*
X167335200Y-35483800D02*
X163499800Y-39319200D01*
D21*
X151893000Y-45308000D02*
X151893000Y-43587400D01*
X151893000Y-43587400D02*
X151485600Y-43180000D01*
X151485600Y-43180000D02*
X148463000Y-43180000D01*
D23*
X151893000Y-45308000D02*
X150591000Y-45308000D01*
D21*
X127736600Y-43180000D02*
X121920000Y-43180000D01*
X128473200Y-43916600D02*
X127736600Y-43180000D01*
D22*
X140792200Y-33324800D02*
X140792200Y-35483800D01*
X136956800Y-39319200D02*
X136956800Y-43129200D01*
X140792200Y-35483800D02*
X136956800Y-39319200D01*
D21*
X125350000Y-45308000D02*
X125350000Y-43587400D01*
X125350000Y-43587400D02*
X124942600Y-43180000D01*
X124942600Y-43180000D02*
X121920000Y-43180000D01*
D23*
X125350000Y-45308000D02*
X124048000Y-45308000D01*
D21*
X101193600Y-43180000D02*
X95377000Y-43180000D01*
X101930200Y-43916600D02*
X101193600Y-43180000D01*
D22*
X114249200Y-33324800D02*
X114249200Y-35483800D01*
X110413800Y-39319200D02*
X110413800Y-43129200D01*
X114249200Y-35483800D02*
X110413800Y-39319200D01*
D21*
X98807000Y-45308000D02*
X98807000Y-43587400D01*
X98807000Y-43587400D02*
X98399600Y-43180000D01*
X98399600Y-43180000D02*
X95377000Y-43180000D01*
D23*
X98807000Y-45308000D02*
X97505000Y-45308000D01*
D21*
X74650600Y-43180000D02*
X68834000Y-43180000D01*
X75387200Y-43916600D02*
X74650600Y-43180000D01*
D22*
X87706200Y-33324800D02*
X87706200Y-35483800D01*
X83870800Y-39319200D02*
X83870800Y-43129200D01*
X87706200Y-35483800D02*
X83870800Y-39319200D01*
D21*
X72264000Y-45308000D02*
X72264000Y-43587400D01*
X72264000Y-43587400D02*
X71856600Y-43180000D01*
X71856600Y-43180000D02*
X68834000Y-43180000D01*
D23*
X72264000Y-45308000D02*
X70962000Y-45308000D01*
X45721000Y-45308000D02*
X44419000Y-45308000D01*
D21*
X45313600Y-43180000D02*
X42291000Y-43180000D01*
X45721000Y-43587400D02*
X45313600Y-43180000D01*
X45721000Y-45308000D02*
X45721000Y-43587400D01*
D22*
X61163200Y-35483800D02*
X57327800Y-39319200D01*
X57327800Y-39319200D02*
X57327800Y-43129200D01*
X61163200Y-33324800D02*
X61163200Y-35483800D01*
D21*
X48844200Y-43916600D02*
X48107600Y-43180000D01*
X48107600Y-43180000D02*
X42291000Y-43180000D01*
X168275000Y-105918000D02*
X168275000Y-104470200D01*
X167893000Y-104088200D02*
X167893000Y-102996000D01*
X168275000Y-104470200D02*
X167893000Y-104088200D01*
X171323000Y-104648000D02*
X169545000Y-104648000D01*
X169545000Y-104648000D02*
X168275000Y-105918000D01*
X167944800Y-84328000D02*
X171323000Y-84328000D01*
X163906200Y-88366600D02*
X167944800Y-84328000D01*
X152095200Y-77012800D02*
X152095200Y-82727800D01*
X152095200Y-82727800D02*
X150495000Y-84328000D01*
X150495000Y-84328000D02*
X148463000Y-84328000D01*
D23*
X168275000Y-105918000D02*
X168529000Y-105664000D01*
D21*
X141732000Y-105918000D02*
X141732000Y-104470200D01*
X141350000Y-104088200D02*
X141350000Y-102996000D01*
X141732000Y-104470200D02*
X141350000Y-104088200D01*
X144780000Y-104648000D02*
X143002000Y-104648000D01*
X143002000Y-104648000D02*
X141732000Y-105918000D01*
X141401800Y-84328000D02*
X144780000Y-84328000D01*
X137363200Y-88366600D02*
X141401800Y-84328000D01*
X125552200Y-77012800D02*
X125552200Y-82727800D01*
X125552200Y-82727800D02*
X123952000Y-84328000D01*
X123952000Y-84328000D02*
X121920000Y-84328000D01*
D23*
X141732000Y-105918000D02*
X141986000Y-105664000D01*
D21*
X115189000Y-105918000D02*
X115189000Y-104470200D01*
X114807000Y-104088200D02*
X114807000Y-102996000D01*
X115189000Y-104470200D02*
X114807000Y-104088200D01*
X118237000Y-104648000D02*
X116459000Y-104648000D01*
X116459000Y-104648000D02*
X115189000Y-105918000D01*
X114858800Y-84328000D02*
X118237000Y-84328000D01*
X110820200Y-88366600D02*
X114858800Y-84328000D01*
X99009200Y-77012800D02*
X99009200Y-82727800D01*
X99009200Y-82727800D02*
X97409000Y-84328000D01*
X97409000Y-84328000D02*
X95377000Y-84328000D01*
D23*
X115189000Y-105918000D02*
X115443000Y-105664000D01*
D21*
X88646000Y-105918000D02*
X88646000Y-104470200D01*
X88264000Y-104088200D02*
X88264000Y-102996000D01*
X88646000Y-104470200D02*
X88264000Y-104088200D01*
X91694000Y-104648000D02*
X89916000Y-104648000D01*
X89916000Y-104648000D02*
X88646000Y-105918000D01*
X88315800Y-84328000D02*
X91694000Y-84328000D01*
X84277200Y-88366600D02*
X88315800Y-84328000D01*
X72466200Y-77012800D02*
X72466200Y-82727800D01*
X72466200Y-82727800D02*
X70866000Y-84328000D01*
X70866000Y-84328000D02*
X68834000Y-84328000D01*
D23*
X88646000Y-105918000D02*
X88900000Y-105664000D01*
D21*
X62103000Y-105918000D02*
X62103000Y-104470200D01*
X61721000Y-104088200D02*
X61721000Y-102996000D01*
X62103000Y-104470200D02*
X61721000Y-104088200D01*
X65151000Y-104648000D02*
X63373000Y-104648000D01*
X63373000Y-104648000D02*
X62103000Y-105918000D01*
X61772800Y-84328000D02*
X65151000Y-84328000D01*
X57734200Y-88366600D02*
X61772800Y-84328000D01*
X45923200Y-77012800D02*
X45923200Y-82727800D01*
X45923200Y-82727800D02*
X44323000Y-84328000D01*
X44323000Y-84328000D02*
X42291000Y-84328000D01*
D23*
X62103000Y-105918000D02*
X62357000Y-105664000D01*
D21*
X168275000Y-62230000D02*
X168275000Y-60782200D01*
X167893000Y-60400200D02*
X167893000Y-59308000D01*
X168275000Y-60782200D02*
X167893000Y-60400200D01*
X171323000Y-60960000D02*
X169545000Y-60960000D01*
X169545000Y-60960000D02*
X168275000Y-62230000D01*
X167944800Y-40640000D02*
X171323000Y-40640000D01*
X163906200Y-44678600D02*
X167944800Y-40640000D01*
X152095200Y-33324800D02*
X152095200Y-39039800D01*
X152095200Y-39039800D02*
X150495000Y-40640000D01*
X150495000Y-40640000D02*
X148463000Y-40640000D01*
D23*
X168275000Y-62230000D02*
X168529000Y-61976000D01*
D21*
X141732000Y-62230000D02*
X141732000Y-60782200D01*
X141350000Y-60400200D02*
X141350000Y-59308000D01*
X141732000Y-60782200D02*
X141350000Y-60400200D01*
X144780000Y-60960000D02*
X143002000Y-60960000D01*
X143002000Y-60960000D02*
X141732000Y-62230000D01*
X141401800Y-40640000D02*
X144780000Y-40640000D01*
X137363200Y-44678600D02*
X141401800Y-40640000D01*
X125552200Y-33324800D02*
X125552200Y-39039800D01*
X125552200Y-39039800D02*
X123952000Y-40640000D01*
X123952000Y-40640000D02*
X121920000Y-40640000D01*
D23*
X141732000Y-62230000D02*
X141986000Y-61976000D01*
D21*
X115189000Y-62230000D02*
X115189000Y-60782200D01*
X114807000Y-60400200D02*
X114807000Y-59308000D01*
X115189000Y-60782200D02*
X114807000Y-60400200D01*
X118237000Y-60960000D02*
X116459000Y-60960000D01*
X116459000Y-60960000D02*
X115189000Y-62230000D01*
X114858800Y-40640000D02*
X118237000Y-40640000D01*
X110820200Y-44678600D02*
X114858800Y-40640000D01*
X99009200Y-33324800D02*
X99009200Y-39039800D01*
X99009200Y-39039800D02*
X97409000Y-40640000D01*
X97409000Y-40640000D02*
X95377000Y-40640000D01*
D23*
X115189000Y-62230000D02*
X115443000Y-61976000D01*
D21*
X88646000Y-62230000D02*
X88646000Y-60782200D01*
X88264000Y-60400200D02*
X88264000Y-59308000D01*
X88646000Y-60782200D02*
X88264000Y-60400200D01*
X91694000Y-60960000D02*
X89916000Y-60960000D01*
X89916000Y-60960000D02*
X88646000Y-62230000D01*
X88315800Y-40640000D02*
X91694000Y-40640000D01*
X84277200Y-44678600D02*
X88315800Y-40640000D01*
X72466200Y-33324800D02*
X72466200Y-39039800D01*
X72466200Y-39039800D02*
X70866000Y-40640000D01*
X70866000Y-40640000D02*
X68834000Y-40640000D01*
D23*
X88646000Y-62230000D02*
X88900000Y-61976000D01*
X62103000Y-62230000D02*
X62357000Y-61976000D01*
D21*
X44323000Y-40640000D02*
X42291000Y-40640000D01*
X45923200Y-39039800D02*
X44323000Y-40640000D01*
X45923200Y-33324800D02*
X45923200Y-39039800D01*
X57734200Y-44678600D02*
X61772800Y-40640000D01*
X61772800Y-40640000D02*
X65151000Y-40640000D01*
X63373000Y-60960000D02*
X62103000Y-62230000D01*
X65151000Y-60960000D02*
X63373000Y-60960000D01*
X62103000Y-60782200D02*
X61721000Y-60400200D01*
X61721000Y-60400200D02*
X61721000Y-59308000D01*
X62103000Y-62230000D02*
X62103000Y-60782200D01*
X158457900Y-88760300D02*
X158457900Y-85178900D01*
X153720800Y-80441800D02*
X153720800Y-79502000D01*
X158457900Y-85178900D02*
X153720800Y-80441800D01*
X162610800Y-92913200D02*
X158457900Y-88760300D01*
X162610800Y-94462600D02*
X162610800Y-92913200D01*
X161696400Y-95377000D02*
X162610800Y-94462600D01*
X156921200Y-95377000D02*
X161696400Y-95377000D01*
X155143200Y-97155000D02*
X156921200Y-95377000D01*
D22*
X151893000Y-102996000D02*
X150115000Y-102996000D01*
X150115000Y-102996000D02*
X148463000Y-104648000D01*
D21*
X131914900Y-88760300D02*
X131914900Y-85178900D01*
X127177800Y-80441800D02*
X127177800Y-79502000D01*
X131914900Y-85178900D02*
X127177800Y-80441800D01*
X136067800Y-92913200D02*
X131914900Y-88760300D01*
X136067800Y-94462600D02*
X136067800Y-92913200D01*
X135153400Y-95377000D02*
X136067800Y-94462600D01*
X130378200Y-95377000D02*
X135153400Y-95377000D01*
X128600200Y-97155000D02*
X130378200Y-95377000D01*
D22*
X125350000Y-102996000D02*
X123572000Y-102996000D01*
X123572000Y-102996000D02*
X121920000Y-104648000D01*
D21*
X105371900Y-88760300D02*
X105371900Y-85178900D01*
X100634800Y-80441800D02*
X100634800Y-79502000D01*
X105371900Y-85178900D02*
X100634800Y-80441800D01*
X109524800Y-92913200D02*
X105371900Y-88760300D01*
X109524800Y-94462600D02*
X109524800Y-92913200D01*
X108610400Y-95377000D02*
X109524800Y-94462600D01*
X103835200Y-95377000D02*
X108610400Y-95377000D01*
X102057200Y-97155000D02*
X103835200Y-95377000D01*
D22*
X98807000Y-102996000D02*
X97029000Y-102996000D01*
X97029000Y-102996000D02*
X95377000Y-104648000D01*
D21*
X78828900Y-88760300D02*
X78828900Y-85178900D01*
X74091800Y-80441800D02*
X74091800Y-79502000D01*
X78828900Y-85178900D02*
X74091800Y-80441800D01*
X82981800Y-92913200D02*
X78828900Y-88760300D01*
X82981800Y-94462600D02*
X82981800Y-92913200D01*
X82067400Y-95377000D02*
X82981800Y-94462600D01*
X77292200Y-95377000D02*
X82067400Y-95377000D01*
X75514200Y-97155000D02*
X77292200Y-95377000D01*
D22*
X72264000Y-102996000D02*
X70486000Y-102996000D01*
X70486000Y-102996000D02*
X68834000Y-104648000D01*
D21*
X52285900Y-88760300D02*
X52285900Y-85178900D01*
X47548800Y-80441800D02*
X47548800Y-79502000D01*
X52285900Y-85178900D02*
X47548800Y-80441800D01*
X56438800Y-92913200D02*
X52285900Y-88760300D01*
X56438800Y-94462600D02*
X56438800Y-92913200D01*
X55524400Y-95377000D02*
X56438800Y-94462600D01*
X50749200Y-95377000D02*
X55524400Y-95377000D01*
X48971200Y-97155000D02*
X50749200Y-95377000D01*
D22*
X45721000Y-102996000D02*
X43943000Y-102996000D01*
X43943000Y-102996000D02*
X42291000Y-104648000D01*
D21*
X158457900Y-45072300D02*
X158457900Y-41490900D01*
X153720800Y-36753800D02*
X153720800Y-35814000D01*
X158457900Y-41490900D02*
X153720800Y-36753800D01*
X162610800Y-49225200D02*
X158457900Y-45072300D01*
X162610800Y-50774600D02*
X162610800Y-49225200D01*
X161696400Y-51689000D02*
X162610800Y-50774600D01*
X156921200Y-51689000D02*
X161696400Y-51689000D01*
X155143200Y-53467000D02*
X156921200Y-51689000D01*
D22*
X151893000Y-59308000D02*
X150115000Y-59308000D01*
X150115000Y-59308000D02*
X148463000Y-60960000D01*
D21*
X131914900Y-45072300D02*
X131914900Y-41490900D01*
X127177800Y-36753800D02*
X127177800Y-35814000D01*
X131914900Y-41490900D02*
X127177800Y-36753800D01*
X136067800Y-49225200D02*
X131914900Y-45072300D01*
X136067800Y-50774600D02*
X136067800Y-49225200D01*
X135153400Y-51689000D02*
X136067800Y-50774600D01*
X130378200Y-51689000D02*
X135153400Y-51689000D01*
X128600200Y-53467000D02*
X130378200Y-51689000D01*
D22*
X125350000Y-59308000D02*
X123572000Y-59308000D01*
X123572000Y-59308000D02*
X121920000Y-60960000D01*
D21*
X105371900Y-45072300D02*
X105371900Y-41490900D01*
X100634800Y-36753800D02*
X100634800Y-35814000D01*
X105371900Y-41490900D02*
X100634800Y-36753800D01*
X109524800Y-49225200D02*
X105371900Y-45072300D01*
X109524800Y-50774600D02*
X109524800Y-49225200D01*
X108610400Y-51689000D02*
X109524800Y-50774600D01*
X103835200Y-51689000D02*
X108610400Y-51689000D01*
X102057200Y-53467000D02*
X103835200Y-51689000D01*
D22*
X98807000Y-59308000D02*
X97029000Y-59308000D01*
X97029000Y-59308000D02*
X95377000Y-60960000D01*
D21*
X78828900Y-45072300D02*
X78828900Y-41490900D01*
X74091800Y-36753800D02*
X74091800Y-35814000D01*
X78828900Y-41490900D02*
X74091800Y-36753800D01*
X82981800Y-49225200D02*
X78828900Y-45072300D01*
X82981800Y-50774600D02*
X82981800Y-49225200D01*
X82067400Y-51689000D02*
X82981800Y-50774600D01*
X77292200Y-51689000D02*
X82067400Y-51689000D01*
X75514200Y-53467000D02*
X77292200Y-51689000D01*
D22*
X72264000Y-59308000D02*
X70486000Y-59308000D01*
X70486000Y-59308000D02*
X68834000Y-60960000D01*
X43943000Y-59308000D02*
X42291000Y-60960000D01*
X45721000Y-59308000D02*
X43943000Y-59308000D01*
D21*
X48971200Y-53467000D02*
X50749200Y-51689000D01*
X50749200Y-51689000D02*
X55524400Y-51689000D01*
X55524400Y-51689000D02*
X56438800Y-50774600D01*
X56438800Y-50774600D02*
X56438800Y-49225200D01*
X56438800Y-49225200D02*
X52285900Y-45072300D01*
X52285900Y-41490900D02*
X47548800Y-36753800D01*
X47548800Y-36753800D02*
X47548800Y-35814000D01*
X52285900Y-45072300D02*
X52285900Y-41490900D01*
X167893000Y-100996000D02*
X170211000Y-100996000D01*
X170211000Y-100996000D02*
X171323000Y-102108000D01*
X170211000Y-100996000D02*
X171323000Y-102108000D01*
X141350000Y-100996000D02*
X143668000Y-100996000D01*
X143668000Y-100996000D02*
X144780000Y-102108000D01*
X143668000Y-100996000D02*
X144780000Y-102108000D01*
X114807000Y-100996000D02*
X117125000Y-100996000D01*
X117125000Y-100996000D02*
X118237000Y-102108000D01*
X117125000Y-100996000D02*
X118237000Y-102108000D01*
X88264000Y-100996000D02*
X90582000Y-100996000D01*
X90582000Y-100996000D02*
X91694000Y-102108000D01*
X90582000Y-100996000D02*
X91694000Y-102108000D01*
X61721000Y-100996000D02*
X64039000Y-100996000D01*
X64039000Y-100996000D02*
X65151000Y-102108000D01*
X64039000Y-100996000D02*
X65151000Y-102108000D01*
X167893000Y-57308000D02*
X170211000Y-57308000D01*
X170211000Y-57308000D02*
X171323000Y-58420000D01*
X170211000Y-57308000D02*
X171323000Y-58420000D01*
X141350000Y-57308000D02*
X143668000Y-57308000D01*
X143668000Y-57308000D02*
X144780000Y-58420000D01*
X143668000Y-57308000D02*
X144780000Y-58420000D01*
X114807000Y-57308000D02*
X117125000Y-57308000D01*
X117125000Y-57308000D02*
X118237000Y-58420000D01*
X117125000Y-57308000D02*
X118237000Y-58420000D01*
X88264000Y-57308000D02*
X90582000Y-57308000D01*
X90582000Y-57308000D02*
X91694000Y-58420000D01*
X90582000Y-57308000D02*
X91694000Y-58420000D01*
X64039000Y-57308000D02*
X65151000Y-58420000D01*
X64039000Y-57308000D02*
X65151000Y-58420000D01*
X61721000Y-57308000D02*
X64039000Y-57308000D01*
D22*
X151893000Y-90996000D02*
X150051000Y-90996000D01*
X150051000Y-90996000D02*
X148463000Y-89408000D01*
D23*
X150051000Y-90996000D02*
X148463000Y-89408000D01*
D22*
X125350000Y-90996000D02*
X123508000Y-90996000D01*
X123508000Y-90996000D02*
X121920000Y-89408000D01*
D23*
X123508000Y-90996000D02*
X121920000Y-89408000D01*
D22*
X98807000Y-90996000D02*
X96965000Y-90996000D01*
X96965000Y-90996000D02*
X95377000Y-89408000D01*
D23*
X96965000Y-90996000D02*
X95377000Y-89408000D01*
D22*
X72264000Y-90996000D02*
X70422000Y-90996000D01*
X70422000Y-90996000D02*
X68834000Y-89408000D01*
D23*
X70422000Y-90996000D02*
X68834000Y-89408000D01*
D22*
X45721000Y-90996000D02*
X43879000Y-90996000D01*
X43879000Y-90996000D02*
X42291000Y-89408000D01*
D23*
X43879000Y-90996000D02*
X42291000Y-89408000D01*
D22*
X151893000Y-47308000D02*
X150051000Y-47308000D01*
X150051000Y-47308000D02*
X148463000Y-45720000D01*
D23*
X150051000Y-47308000D02*
X148463000Y-45720000D01*
D22*
X125350000Y-47308000D02*
X123508000Y-47308000D01*
X123508000Y-47308000D02*
X121920000Y-45720000D01*
D23*
X123508000Y-47308000D02*
X121920000Y-45720000D01*
D22*
X98807000Y-47308000D02*
X96965000Y-47308000D01*
X96965000Y-47308000D02*
X95377000Y-45720000D01*
D23*
X96965000Y-47308000D02*
X95377000Y-45720000D01*
D22*
X72264000Y-47308000D02*
X70422000Y-47308000D01*
X70422000Y-47308000D02*
X68834000Y-45720000D01*
D23*
X70422000Y-47308000D02*
X68834000Y-45720000D01*
X43879000Y-47308000D02*
X42291000Y-45720000D01*
D22*
X43879000Y-47308000D02*
X42291000Y-45720000D01*
X45721000Y-47308000D02*
X43879000Y-47308000D01*
X151893000Y-92996000D02*
X149511000Y-92996000D01*
X149511000Y-92996000D02*
X148463000Y-91948000D01*
X158623000Y-92996000D02*
X151893000Y-92996000D01*
D23*
X158655000Y-92996000D02*
X158623000Y-92996000D01*
D22*
X160877000Y-92996000D02*
X158655000Y-92996000D01*
D23*
X160909000Y-92964000D02*
X160877000Y-92996000D01*
X149511000Y-92996000D02*
X148463000Y-91948000D01*
D22*
X125350000Y-92996000D02*
X122968000Y-92996000D01*
X122968000Y-92996000D02*
X121920000Y-91948000D01*
X132080000Y-92996000D02*
X125350000Y-92996000D01*
D23*
X132112000Y-92996000D02*
X132080000Y-92996000D01*
D22*
X134334000Y-92996000D02*
X132112000Y-92996000D01*
D23*
X134366000Y-92964000D02*
X134334000Y-92996000D01*
X122968000Y-92996000D02*
X121920000Y-91948000D01*
D22*
X98807000Y-92996000D02*
X96425000Y-92996000D01*
X96425000Y-92996000D02*
X95377000Y-91948000D01*
X105537000Y-92996000D02*
X98807000Y-92996000D01*
D23*
X105569000Y-92996000D02*
X105537000Y-92996000D01*
D22*
X107791000Y-92996000D02*
X105569000Y-92996000D01*
D23*
X107823000Y-92964000D02*
X107791000Y-92996000D01*
X96425000Y-92996000D02*
X95377000Y-91948000D01*
D22*
X72264000Y-92996000D02*
X69882000Y-92996000D01*
X69882000Y-92996000D02*
X68834000Y-91948000D01*
X78994000Y-92996000D02*
X72264000Y-92996000D01*
D23*
X79026000Y-92996000D02*
X78994000Y-92996000D01*
D22*
X81248000Y-92996000D02*
X79026000Y-92996000D01*
D23*
X81280000Y-92964000D02*
X81248000Y-92996000D01*
X69882000Y-92996000D02*
X68834000Y-91948000D01*
D22*
X45721000Y-92996000D02*
X43339000Y-92996000D01*
X43339000Y-92996000D02*
X42291000Y-91948000D01*
X52451000Y-92996000D02*
X45721000Y-92996000D01*
D23*
X52483000Y-92996000D02*
X52451000Y-92996000D01*
D22*
X54705000Y-92996000D02*
X52483000Y-92996000D01*
D23*
X54737000Y-92964000D02*
X54705000Y-92996000D01*
X43339000Y-92996000D02*
X42291000Y-91948000D01*
D22*
X151893000Y-49308000D02*
X149511000Y-49308000D01*
X149511000Y-49308000D02*
X148463000Y-48260000D01*
X158623000Y-49308000D02*
X151893000Y-49308000D01*
D23*
X158655000Y-49308000D02*
X158623000Y-49308000D01*
D22*
X160877000Y-49308000D02*
X158655000Y-49308000D01*
D23*
X160909000Y-49276000D02*
X160877000Y-49308000D01*
X149511000Y-49308000D02*
X148463000Y-48260000D01*
D22*
X125350000Y-49308000D02*
X122968000Y-49308000D01*
X122968000Y-49308000D02*
X121920000Y-48260000D01*
X132080000Y-49308000D02*
X125350000Y-49308000D01*
D23*
X132112000Y-49308000D02*
X132080000Y-49308000D01*
D22*
X134334000Y-49308000D02*
X132112000Y-49308000D01*
D23*
X134366000Y-49276000D02*
X134334000Y-49308000D01*
X122968000Y-49308000D02*
X121920000Y-48260000D01*
D22*
X98807000Y-49308000D02*
X96425000Y-49308000D01*
X96425000Y-49308000D02*
X95377000Y-48260000D01*
X105537000Y-49308000D02*
X98807000Y-49308000D01*
D23*
X105569000Y-49308000D02*
X105537000Y-49308000D01*
D22*
X107791000Y-49308000D02*
X105569000Y-49308000D01*
D23*
X107823000Y-49276000D02*
X107791000Y-49308000D01*
X96425000Y-49308000D02*
X95377000Y-48260000D01*
D22*
X72264000Y-49308000D02*
X69882000Y-49308000D01*
X69882000Y-49308000D02*
X68834000Y-48260000D01*
X78994000Y-49308000D02*
X72264000Y-49308000D01*
D23*
X79026000Y-49308000D02*
X78994000Y-49308000D01*
D22*
X81248000Y-49308000D02*
X79026000Y-49308000D01*
D23*
X81280000Y-49276000D02*
X81248000Y-49308000D01*
X69882000Y-49308000D02*
X68834000Y-48260000D01*
X43339000Y-49308000D02*
X42291000Y-48260000D01*
X54737000Y-49276000D02*
X54705000Y-49308000D01*
D22*
X54705000Y-49308000D02*
X52483000Y-49308000D01*
D23*
X52483000Y-49308000D02*
X52451000Y-49308000D01*
D22*
X52451000Y-49308000D02*
X45721000Y-49308000D01*
X43339000Y-49308000D02*
X42291000Y-48260000D01*
X45721000Y-49308000D02*
X43339000Y-49308000D01*
X151893000Y-94996000D02*
X148971000Y-94996000D01*
X148971000Y-94996000D02*
X148463000Y-94488000D01*
D23*
X148971000Y-94996000D02*
X148463000Y-94488000D01*
D22*
X125350000Y-94996000D02*
X122428000Y-94996000D01*
X122428000Y-94996000D02*
X121920000Y-94488000D01*
D23*
X122428000Y-94996000D02*
X121920000Y-94488000D01*
D22*
X98807000Y-94996000D02*
X95885000Y-94996000D01*
X95885000Y-94996000D02*
X95377000Y-94488000D01*
D23*
X95885000Y-94996000D02*
X95377000Y-94488000D01*
D22*
X72264000Y-94996000D02*
X69342000Y-94996000D01*
X69342000Y-94996000D02*
X68834000Y-94488000D01*
D23*
X69342000Y-94996000D02*
X68834000Y-94488000D01*
D22*
X45721000Y-94996000D02*
X42799000Y-94996000D01*
X42799000Y-94996000D02*
X42291000Y-94488000D01*
D23*
X42799000Y-94996000D02*
X42291000Y-94488000D01*
D22*
X151893000Y-51308000D02*
X148971000Y-51308000D01*
X148971000Y-51308000D02*
X148463000Y-50800000D01*
D23*
X148971000Y-51308000D02*
X148463000Y-50800000D01*
D22*
X125350000Y-51308000D02*
X122428000Y-51308000D01*
X122428000Y-51308000D02*
X121920000Y-50800000D01*
D23*
X122428000Y-51308000D02*
X121920000Y-50800000D01*
D22*
X98807000Y-51308000D02*
X95885000Y-51308000D01*
X95885000Y-51308000D02*
X95377000Y-50800000D01*
D23*
X95885000Y-51308000D02*
X95377000Y-50800000D01*
D22*
X72264000Y-51308000D02*
X69342000Y-51308000D01*
X69342000Y-51308000D02*
X68834000Y-50800000D01*
D23*
X69342000Y-51308000D02*
X68834000Y-50800000D01*
X42799000Y-51308000D02*
X42291000Y-50800000D01*
D22*
X42799000Y-51308000D02*
X42291000Y-50800000D01*
X45721000Y-51308000D02*
X42799000Y-51308000D01*
X151893000Y-96996000D02*
X148495000Y-96996000D01*
X148495000Y-96996000D02*
X148463000Y-97028000D01*
D23*
X148495000Y-96996000D02*
X148463000Y-97028000D01*
D22*
X125350000Y-96996000D02*
X121952000Y-96996000D01*
X121952000Y-96996000D02*
X121920000Y-97028000D01*
D23*
X121952000Y-96996000D02*
X121920000Y-97028000D01*
D22*
X98807000Y-96996000D02*
X95409000Y-96996000D01*
X95409000Y-96996000D02*
X95377000Y-97028000D01*
D23*
X95409000Y-96996000D02*
X95377000Y-97028000D01*
D22*
X72264000Y-96996000D02*
X68866000Y-96996000D01*
X68866000Y-96996000D02*
X68834000Y-97028000D01*
D23*
X68866000Y-96996000D02*
X68834000Y-97028000D01*
D22*
X45721000Y-96996000D02*
X42323000Y-96996000D01*
X42323000Y-96996000D02*
X42291000Y-97028000D01*
D23*
X42323000Y-96996000D02*
X42291000Y-97028000D01*
D22*
X151893000Y-53308000D02*
X148495000Y-53308000D01*
X148495000Y-53308000D02*
X148463000Y-53340000D01*
D23*
X148495000Y-53308000D02*
X148463000Y-53340000D01*
D22*
X125350000Y-53308000D02*
X121952000Y-53308000D01*
X121952000Y-53308000D02*
X121920000Y-53340000D01*
D23*
X121952000Y-53308000D02*
X121920000Y-53340000D01*
D22*
X98807000Y-53308000D02*
X95409000Y-53308000D01*
X95409000Y-53308000D02*
X95377000Y-53340000D01*
D23*
X95409000Y-53308000D02*
X95377000Y-53340000D01*
D22*
X72264000Y-53308000D02*
X68866000Y-53308000D01*
X68866000Y-53308000D02*
X68834000Y-53340000D01*
D23*
X68866000Y-53308000D02*
X68834000Y-53340000D01*
X42323000Y-53308000D02*
X42291000Y-53340000D01*
D22*
X42323000Y-53308000D02*
X42291000Y-53340000D01*
X45721000Y-53308000D02*
X42323000Y-53308000D01*
X151893000Y-98996000D02*
X149035000Y-98996000D01*
X149035000Y-98996000D02*
X148463000Y-99568000D01*
D23*
X149035000Y-98996000D02*
X148463000Y-99568000D01*
D22*
X125350000Y-98996000D02*
X122492000Y-98996000D01*
X122492000Y-98996000D02*
X121920000Y-99568000D01*
D23*
X122492000Y-98996000D02*
X121920000Y-99568000D01*
D22*
X98807000Y-98996000D02*
X95949000Y-98996000D01*
X95949000Y-98996000D02*
X95377000Y-99568000D01*
D23*
X95949000Y-98996000D02*
X95377000Y-99568000D01*
D22*
X72264000Y-98996000D02*
X69406000Y-98996000D01*
X69406000Y-98996000D02*
X68834000Y-99568000D01*
D23*
X69406000Y-98996000D02*
X68834000Y-99568000D01*
D22*
X45721000Y-98996000D02*
X42863000Y-98996000D01*
X42863000Y-98996000D02*
X42291000Y-99568000D01*
D23*
X42863000Y-98996000D02*
X42291000Y-99568000D01*
D22*
X151893000Y-55308000D02*
X149035000Y-55308000D01*
X149035000Y-55308000D02*
X148463000Y-55880000D01*
D23*
X149035000Y-55308000D02*
X148463000Y-55880000D01*
D22*
X125350000Y-55308000D02*
X122492000Y-55308000D01*
X122492000Y-55308000D02*
X121920000Y-55880000D01*
D23*
X122492000Y-55308000D02*
X121920000Y-55880000D01*
D22*
X98807000Y-55308000D02*
X95949000Y-55308000D01*
X95949000Y-55308000D02*
X95377000Y-55880000D01*
D23*
X95949000Y-55308000D02*
X95377000Y-55880000D01*
D22*
X72264000Y-55308000D02*
X69406000Y-55308000D01*
X69406000Y-55308000D02*
X68834000Y-55880000D01*
D23*
X69406000Y-55308000D02*
X68834000Y-55880000D01*
X42863000Y-55308000D02*
X42291000Y-55880000D01*
D22*
X42863000Y-55308000D02*
X42291000Y-55880000D01*
X45721000Y-55308000D02*
X42863000Y-55308000D01*
X151893000Y-100996000D02*
X149575000Y-100996000D01*
X149575000Y-100996000D02*
X148463000Y-102108000D01*
X125350000Y-100996000D02*
X123032000Y-100996000D01*
X123032000Y-100996000D02*
X121920000Y-102108000D01*
X98807000Y-100996000D02*
X96489000Y-100996000D01*
X96489000Y-100996000D02*
X95377000Y-102108000D01*
X72264000Y-100996000D02*
X69946000Y-100996000D01*
X69946000Y-100996000D02*
X68834000Y-102108000D01*
X45721000Y-100996000D02*
X43403000Y-100996000D01*
X43403000Y-100996000D02*
X42291000Y-102108000D01*
X151893000Y-57308000D02*
X149575000Y-57308000D01*
X149575000Y-57308000D02*
X148463000Y-58420000D01*
X125350000Y-57308000D02*
X123032000Y-57308000D01*
X123032000Y-57308000D02*
X121920000Y-58420000D01*
X98807000Y-57308000D02*
X96489000Y-57308000D01*
X96489000Y-57308000D02*
X95377000Y-58420000D01*
X72264000Y-57308000D02*
X69946000Y-57308000D01*
X69946000Y-57308000D02*
X68834000Y-58420000D01*
X43403000Y-57308000D02*
X42291000Y-58420000D01*
X45721000Y-57308000D02*
X43403000Y-57308000D01*
D21*
X154893000Y-104996000D02*
X154893000Y-107438200D01*
X149961600Y-107188000D02*
X148463000Y-107188000D01*
X150876000Y-108102400D02*
X149961600Y-107188000D01*
X154228800Y-108102400D02*
X150876000Y-108102400D01*
X154893000Y-107438200D02*
X154228800Y-108102400D01*
D23*
X148623000Y-107028000D02*
X148463000Y-107188000D01*
D21*
X128350000Y-104996000D02*
X128350000Y-107438200D01*
X123418600Y-107188000D02*
X121920000Y-107188000D01*
X124333000Y-108102400D02*
X123418600Y-107188000D01*
X127685800Y-108102400D02*
X124333000Y-108102400D01*
X128350000Y-107438200D02*
X127685800Y-108102400D01*
D23*
X122080000Y-107028000D02*
X121920000Y-107188000D01*
D21*
X101807000Y-104996000D02*
X101807000Y-107438200D01*
X96875600Y-107188000D02*
X95377000Y-107188000D01*
X97790000Y-108102400D02*
X96875600Y-107188000D01*
X101142800Y-108102400D02*
X97790000Y-108102400D01*
X101807000Y-107438200D02*
X101142800Y-108102400D01*
D23*
X95537000Y-107028000D02*
X95377000Y-107188000D01*
D21*
X75264000Y-104996000D02*
X75264000Y-107438200D01*
X70332600Y-107188000D02*
X68834000Y-107188000D01*
X71247000Y-108102400D02*
X70332600Y-107188000D01*
X74599800Y-108102400D02*
X71247000Y-108102400D01*
X75264000Y-107438200D02*
X74599800Y-108102400D01*
D23*
X68994000Y-107028000D02*
X68834000Y-107188000D01*
D21*
X48721000Y-104996000D02*
X48721000Y-107438200D01*
X43789600Y-107188000D02*
X42291000Y-107188000D01*
X44704000Y-108102400D02*
X43789600Y-107188000D01*
X48056800Y-108102400D02*
X44704000Y-108102400D01*
X48721000Y-107438200D02*
X48056800Y-108102400D01*
D23*
X42451000Y-107028000D02*
X42291000Y-107188000D01*
D21*
X154893000Y-61308000D02*
X154893000Y-63750200D01*
X149961600Y-63500000D02*
X148463000Y-63500000D01*
X150876000Y-64414400D02*
X149961600Y-63500000D01*
X154228800Y-64414400D02*
X150876000Y-64414400D01*
X154893000Y-63750200D02*
X154228800Y-64414400D01*
D23*
X148623000Y-63340000D02*
X148463000Y-63500000D01*
D21*
X128350000Y-61308000D02*
X128350000Y-63750200D01*
X123418600Y-63500000D02*
X121920000Y-63500000D01*
X124333000Y-64414400D02*
X123418600Y-63500000D01*
X127685800Y-64414400D02*
X124333000Y-64414400D01*
X128350000Y-63750200D02*
X127685800Y-64414400D01*
D23*
X122080000Y-63340000D02*
X121920000Y-63500000D01*
D21*
X101807000Y-61308000D02*
X101807000Y-63750200D01*
X96875600Y-63500000D02*
X95377000Y-63500000D01*
X97790000Y-64414400D02*
X96875600Y-63500000D01*
X101142800Y-64414400D02*
X97790000Y-64414400D01*
X101807000Y-63750200D02*
X101142800Y-64414400D01*
D23*
X95537000Y-63340000D02*
X95377000Y-63500000D01*
D21*
X75264000Y-61308000D02*
X75264000Y-63750200D01*
X70332600Y-63500000D02*
X68834000Y-63500000D01*
X71247000Y-64414400D02*
X70332600Y-63500000D01*
X74599800Y-64414400D02*
X71247000Y-64414400D01*
X75264000Y-63750200D02*
X74599800Y-64414400D01*
D23*
X68994000Y-63340000D02*
X68834000Y-63500000D01*
X42451000Y-63340000D02*
X42291000Y-63500000D01*
D21*
X48721000Y-63750200D02*
X48056800Y-64414400D01*
X48056800Y-64414400D02*
X44704000Y-64414400D01*
X44704000Y-64414400D02*
X43789600Y-63500000D01*
X43789600Y-63500000D02*
X42291000Y-63500000D01*
X48721000Y-61308000D02*
X48721000Y-63750200D01*
X156893000Y-104996000D02*
X156893000Y-108664000D01*
X156893000Y-108664000D02*
X155829000Y-109728000D01*
X155829000Y-109728000D02*
X148463000Y-109728000D01*
D23*
X148463000Y-109728000D02*
X155829000Y-109728000D01*
X155829000Y-109728000D02*
X156893000Y-108664000D01*
D21*
X130350000Y-104996000D02*
X130350000Y-108664000D01*
X130350000Y-108664000D02*
X129286000Y-109728000D01*
X129286000Y-109728000D02*
X121920000Y-109728000D01*
D23*
X121920000Y-109728000D02*
X129286000Y-109728000D01*
X129286000Y-109728000D02*
X130350000Y-108664000D01*
D21*
X103807000Y-104996000D02*
X103807000Y-108664000D01*
X103807000Y-108664000D02*
X102743000Y-109728000D01*
X102743000Y-109728000D02*
X95377000Y-109728000D01*
D23*
X95377000Y-109728000D02*
X102743000Y-109728000D01*
X102743000Y-109728000D02*
X103807000Y-108664000D01*
D21*
X77264000Y-104996000D02*
X77264000Y-108664000D01*
X77264000Y-108664000D02*
X76200000Y-109728000D01*
X76200000Y-109728000D02*
X68834000Y-109728000D01*
D23*
X68834000Y-109728000D02*
X76200000Y-109728000D01*
X76200000Y-109728000D02*
X77264000Y-108664000D01*
D21*
X50721000Y-104996000D02*
X50721000Y-108664000D01*
X50721000Y-108664000D02*
X49657000Y-109728000D01*
X49657000Y-109728000D02*
X42291000Y-109728000D01*
D23*
X42291000Y-109728000D02*
X49657000Y-109728000D01*
X49657000Y-109728000D02*
X50721000Y-108664000D01*
D21*
X156893000Y-61308000D02*
X156893000Y-64976000D01*
X156893000Y-64976000D02*
X155829000Y-66040000D01*
X155829000Y-66040000D02*
X148463000Y-66040000D01*
D23*
X148463000Y-66040000D02*
X155829000Y-66040000D01*
X155829000Y-66040000D02*
X156893000Y-64976000D01*
D21*
X130350000Y-61308000D02*
X130350000Y-64976000D01*
X130350000Y-64976000D02*
X129286000Y-66040000D01*
X129286000Y-66040000D02*
X121920000Y-66040000D01*
D23*
X121920000Y-66040000D02*
X129286000Y-66040000D01*
X129286000Y-66040000D02*
X130350000Y-64976000D01*
D21*
X103807000Y-61308000D02*
X103807000Y-64976000D01*
X103807000Y-64976000D02*
X102743000Y-66040000D01*
X102743000Y-66040000D02*
X95377000Y-66040000D01*
D23*
X95377000Y-66040000D02*
X102743000Y-66040000D01*
X102743000Y-66040000D02*
X103807000Y-64976000D01*
D21*
X77264000Y-61308000D02*
X77264000Y-64976000D01*
X77264000Y-64976000D02*
X76200000Y-66040000D01*
X76200000Y-66040000D02*
X68834000Y-66040000D01*
D23*
X68834000Y-66040000D02*
X76200000Y-66040000D01*
X76200000Y-66040000D02*
X77264000Y-64976000D01*
X49657000Y-66040000D02*
X50721000Y-64976000D01*
X42291000Y-66040000D02*
X49657000Y-66040000D01*
D21*
X49657000Y-66040000D02*
X42291000Y-66040000D01*
X50721000Y-64976000D02*
X49657000Y-66040000D01*
X50721000Y-61308000D02*
X50721000Y-64976000D01*
X160893000Y-104996000D02*
X160893000Y-112455200D01*
X168706800Y-112268000D02*
X171323000Y-112268000D01*
X167462200Y-113512600D02*
X168706800Y-112268000D01*
X161950400Y-113512600D02*
X167462200Y-113512600D01*
X160893000Y-112455200D02*
X161950400Y-113512600D01*
X134350000Y-104996000D02*
X134350000Y-112455200D01*
X142163800Y-112268000D02*
X144780000Y-112268000D01*
X140919200Y-113512600D02*
X142163800Y-112268000D01*
X135407400Y-113512600D02*
X140919200Y-113512600D01*
X134350000Y-112455200D02*
X135407400Y-113512600D01*
X107807000Y-104996000D02*
X107807000Y-112455200D01*
X115620800Y-112268000D02*
X118237000Y-112268000D01*
X114376200Y-113512600D02*
X115620800Y-112268000D01*
X108864400Y-113512600D02*
X114376200Y-113512600D01*
X107807000Y-112455200D02*
X108864400Y-113512600D01*
X81264000Y-104996000D02*
X81264000Y-112455200D01*
X89077800Y-112268000D02*
X91694000Y-112268000D01*
X87833200Y-113512600D02*
X89077800Y-112268000D01*
X82321400Y-113512600D02*
X87833200Y-113512600D01*
X81264000Y-112455200D02*
X82321400Y-113512600D01*
X54721000Y-104996000D02*
X54721000Y-112455200D01*
X62534800Y-112268000D02*
X65151000Y-112268000D01*
X61290200Y-113512600D02*
X62534800Y-112268000D01*
X55778400Y-113512600D02*
X61290200Y-113512600D01*
X54721000Y-112455200D02*
X55778400Y-113512600D01*
X160893000Y-61308000D02*
X160893000Y-68767200D01*
X168706800Y-68580000D02*
X171323000Y-68580000D01*
X167462200Y-69824600D02*
X168706800Y-68580000D01*
X161950400Y-69824600D02*
X167462200Y-69824600D01*
X160893000Y-68767200D02*
X161950400Y-69824600D01*
X134350000Y-61308000D02*
X134350000Y-68767200D01*
X142163800Y-68580000D02*
X144780000Y-68580000D01*
X140919200Y-69824600D02*
X142163800Y-68580000D01*
X135407400Y-69824600D02*
X140919200Y-69824600D01*
X134350000Y-68767200D02*
X135407400Y-69824600D01*
X107807000Y-61308000D02*
X107807000Y-68767200D01*
X115620800Y-68580000D02*
X118237000Y-68580000D01*
X114376200Y-69824600D02*
X115620800Y-68580000D01*
X108864400Y-69824600D02*
X114376200Y-69824600D01*
X107807000Y-68767200D02*
X108864400Y-69824600D01*
X81264000Y-61308000D02*
X81264000Y-68767200D01*
X89077800Y-68580000D02*
X91694000Y-68580000D01*
X87833200Y-69824600D02*
X89077800Y-68580000D01*
X82321400Y-69824600D02*
X87833200Y-69824600D01*
X81264000Y-68767200D02*
X82321400Y-69824600D01*
X54721000Y-68767200D02*
X55778400Y-69824600D01*
X55778400Y-69824600D02*
X61290200Y-69824600D01*
X61290200Y-69824600D02*
X62534800Y-68580000D01*
X62534800Y-68580000D02*
X65151000Y-68580000D01*
X54721000Y-61308000D02*
X54721000Y-68767200D01*
X171323000Y-109728000D02*
X164896800Y-109728000D01*
X162893000Y-107724200D02*
X162893000Y-104996000D01*
X164896800Y-109728000D02*
X162893000Y-107724200D01*
X144780000Y-109728000D02*
X138353800Y-109728000D01*
X136350000Y-107724200D02*
X136350000Y-104996000D01*
X138353800Y-109728000D02*
X136350000Y-107724200D01*
X118237000Y-109728000D02*
X111810800Y-109728000D01*
X109807000Y-107724200D02*
X109807000Y-104996000D01*
X111810800Y-109728000D02*
X109807000Y-107724200D01*
X91694000Y-109728000D02*
X85267800Y-109728000D01*
X83264000Y-107724200D02*
X83264000Y-104996000D01*
X85267800Y-109728000D02*
X83264000Y-107724200D01*
X65151000Y-109728000D02*
X58724800Y-109728000D01*
X56721000Y-107724200D02*
X56721000Y-104996000D01*
X58724800Y-109728000D02*
X56721000Y-107724200D01*
X171323000Y-66040000D02*
X164896800Y-66040000D01*
X162893000Y-64036200D02*
X162893000Y-61308000D01*
X164896800Y-66040000D02*
X162893000Y-64036200D01*
X144780000Y-66040000D02*
X138353800Y-66040000D01*
X136350000Y-64036200D02*
X136350000Y-61308000D01*
X138353800Y-66040000D02*
X136350000Y-64036200D01*
X118237000Y-66040000D02*
X111810800Y-66040000D01*
X109807000Y-64036200D02*
X109807000Y-61308000D01*
X111810800Y-66040000D02*
X109807000Y-64036200D01*
X91694000Y-66040000D02*
X85267800Y-66040000D01*
X83264000Y-64036200D02*
X83264000Y-61308000D01*
X85267800Y-66040000D02*
X83264000Y-64036200D01*
X58724800Y-66040000D02*
X56721000Y-64036200D01*
X56721000Y-64036200D02*
X56721000Y-61308000D01*
X65151000Y-66040000D02*
X58724800Y-66040000D01*
X171323000Y-107188000D02*
X165430200Y-107188000D01*
X164893000Y-106650800D02*
X164893000Y-104996000D01*
X165430200Y-107188000D02*
X164893000Y-106650800D01*
D23*
X164893000Y-104996000D02*
X164893000Y-106346000D01*
X164893000Y-106346000D02*
X165735000Y-107188000D01*
X165735000Y-107188000D02*
X171323000Y-107188000D01*
D21*
X144780000Y-107188000D02*
X138887200Y-107188000D01*
X138350000Y-106650800D02*
X138350000Y-104996000D01*
X138887200Y-107188000D02*
X138350000Y-106650800D01*
D23*
X138350000Y-104996000D02*
X138350000Y-106346000D01*
X138350000Y-106346000D02*
X139192000Y-107188000D01*
X139192000Y-107188000D02*
X144780000Y-107188000D01*
D21*
X118237000Y-107188000D02*
X112344200Y-107188000D01*
X111807000Y-106650800D02*
X111807000Y-104996000D01*
X112344200Y-107188000D02*
X111807000Y-106650800D01*
D23*
X111807000Y-104996000D02*
X111807000Y-106346000D01*
X111807000Y-106346000D02*
X112649000Y-107188000D01*
X112649000Y-107188000D02*
X118237000Y-107188000D01*
D21*
X91694000Y-107188000D02*
X85801200Y-107188000D01*
X85264000Y-106650800D02*
X85264000Y-104996000D01*
X85801200Y-107188000D02*
X85264000Y-106650800D01*
D23*
X85264000Y-104996000D02*
X85264000Y-106346000D01*
X85264000Y-106346000D02*
X86106000Y-107188000D01*
X86106000Y-107188000D02*
X91694000Y-107188000D01*
D21*
X65151000Y-107188000D02*
X59258200Y-107188000D01*
X58721000Y-106650800D02*
X58721000Y-104996000D01*
X59258200Y-107188000D02*
X58721000Y-106650800D01*
D23*
X58721000Y-104996000D02*
X58721000Y-106346000D01*
X58721000Y-106346000D02*
X59563000Y-107188000D01*
X59563000Y-107188000D02*
X65151000Y-107188000D01*
D21*
X171323000Y-63500000D02*
X165430200Y-63500000D01*
X164893000Y-62962800D02*
X164893000Y-61308000D01*
X165430200Y-63500000D02*
X164893000Y-62962800D01*
D23*
X164893000Y-61308000D02*
X164893000Y-62658000D01*
X164893000Y-62658000D02*
X165735000Y-63500000D01*
X165735000Y-63500000D02*
X171323000Y-63500000D01*
D21*
X144780000Y-63500000D02*
X138887200Y-63500000D01*
X138350000Y-62962800D02*
X138350000Y-61308000D01*
X138887200Y-63500000D02*
X138350000Y-62962800D01*
D23*
X138350000Y-61308000D02*
X138350000Y-62658000D01*
X138350000Y-62658000D02*
X139192000Y-63500000D01*
X139192000Y-63500000D02*
X144780000Y-63500000D01*
D21*
X118237000Y-63500000D02*
X112344200Y-63500000D01*
X111807000Y-62962800D02*
X111807000Y-61308000D01*
X112344200Y-63500000D02*
X111807000Y-62962800D01*
D23*
X111807000Y-61308000D02*
X111807000Y-62658000D01*
X111807000Y-62658000D02*
X112649000Y-63500000D01*
X112649000Y-63500000D02*
X118237000Y-63500000D01*
D21*
X91694000Y-63500000D02*
X85801200Y-63500000D01*
X85264000Y-62962800D02*
X85264000Y-61308000D01*
X85801200Y-63500000D02*
X85264000Y-62962800D01*
D23*
X85264000Y-61308000D02*
X85264000Y-62658000D01*
X85264000Y-62658000D02*
X86106000Y-63500000D01*
X86106000Y-63500000D02*
X91694000Y-63500000D01*
X59563000Y-63500000D02*
X65151000Y-63500000D01*
X58721000Y-62658000D02*
X59563000Y-63500000D01*
X58721000Y-61308000D02*
X58721000Y-62658000D01*
D21*
X59258200Y-63500000D02*
X58721000Y-62962800D01*
X58721000Y-62962800D02*
X58721000Y-61308000D01*
X65151000Y-63500000D02*
X59258200Y-63500000D01*
X158893000Y-104996000D02*
X158893000Y-108220000D01*
X158893000Y-108220000D02*
X159639000Y-108966000D01*
X159639000Y-108966000D02*
X159639000Y-112598200D01*
X159639000Y-112598200D02*
X159207200Y-113030000D01*
X159207200Y-113030000D02*
X154736800Y-113030000D01*
X154736800Y-113030000D02*
X153974800Y-112268000D01*
X153974800Y-112268000D02*
X148463000Y-112268000D01*
D23*
X159639000Y-108966000D02*
X158893000Y-108220000D01*
X159639000Y-112522000D02*
X159639000Y-108966000D01*
X159131000Y-113030000D02*
X159639000Y-112522000D01*
X155829000Y-113030000D02*
X159131000Y-113030000D01*
D21*
X132350000Y-104996000D02*
X132350000Y-108220000D01*
X132350000Y-108220000D02*
X133096000Y-108966000D01*
X133096000Y-108966000D02*
X133096000Y-112598200D01*
X133096000Y-112598200D02*
X132664200Y-113030000D01*
X132664200Y-113030000D02*
X128193800Y-113030000D01*
X128193800Y-113030000D02*
X127431800Y-112268000D01*
X127431800Y-112268000D02*
X121920000Y-112268000D01*
D23*
X133096000Y-108966000D02*
X132350000Y-108220000D01*
X133096000Y-112522000D02*
X133096000Y-108966000D01*
X132588000Y-113030000D02*
X133096000Y-112522000D01*
X129286000Y-113030000D02*
X132588000Y-113030000D01*
D21*
X105807000Y-104996000D02*
X105807000Y-108220000D01*
X105807000Y-108220000D02*
X106553000Y-108966000D01*
X106553000Y-108966000D02*
X106553000Y-112598200D01*
X106553000Y-112598200D02*
X106121200Y-113030000D01*
X106121200Y-113030000D02*
X101650800Y-113030000D01*
X101650800Y-113030000D02*
X100888800Y-112268000D01*
X100888800Y-112268000D02*
X95377000Y-112268000D01*
D23*
X106553000Y-108966000D02*
X105807000Y-108220000D01*
X106553000Y-112522000D02*
X106553000Y-108966000D01*
X106045000Y-113030000D02*
X106553000Y-112522000D01*
X102743000Y-113030000D02*
X106045000Y-113030000D01*
D21*
X79264000Y-104996000D02*
X79264000Y-108220000D01*
X79264000Y-108220000D02*
X80010000Y-108966000D01*
X80010000Y-108966000D02*
X80010000Y-112598200D01*
X80010000Y-112598200D02*
X79578200Y-113030000D01*
X79578200Y-113030000D02*
X75107800Y-113030000D01*
X75107800Y-113030000D02*
X74345800Y-112268000D01*
X74345800Y-112268000D02*
X68834000Y-112268000D01*
D23*
X80010000Y-108966000D02*
X79264000Y-108220000D01*
X80010000Y-112522000D02*
X80010000Y-108966000D01*
X79502000Y-113030000D02*
X80010000Y-112522000D01*
X76200000Y-113030000D02*
X79502000Y-113030000D01*
D21*
X52721000Y-104996000D02*
X52721000Y-108220000D01*
X52721000Y-108220000D02*
X53467000Y-108966000D01*
X53467000Y-108966000D02*
X53467000Y-112598200D01*
X53467000Y-112598200D02*
X53035200Y-113030000D01*
X53035200Y-113030000D02*
X48564800Y-113030000D01*
X48564800Y-113030000D02*
X47802800Y-112268000D01*
X47802800Y-112268000D02*
X42291000Y-112268000D01*
D23*
X53467000Y-108966000D02*
X52721000Y-108220000D01*
X53467000Y-112522000D02*
X53467000Y-108966000D01*
X52959000Y-113030000D02*
X53467000Y-112522000D01*
X49657000Y-113030000D02*
X52959000Y-113030000D01*
D21*
X158893000Y-61308000D02*
X158893000Y-64532000D01*
X158893000Y-64532000D02*
X159639000Y-65278000D01*
X159639000Y-65278000D02*
X159639000Y-68910200D01*
X159639000Y-68910200D02*
X159207200Y-69342000D01*
X159207200Y-69342000D02*
X154736800Y-69342000D01*
X154736800Y-69342000D02*
X153974800Y-68580000D01*
X153974800Y-68580000D02*
X148463000Y-68580000D01*
D23*
X159639000Y-65278000D02*
X158893000Y-64532000D01*
X159639000Y-68834000D02*
X159639000Y-65278000D01*
X159131000Y-69342000D02*
X159639000Y-68834000D01*
X155829000Y-69342000D02*
X159131000Y-69342000D01*
D21*
X132350000Y-61308000D02*
X132350000Y-64532000D01*
X132350000Y-64532000D02*
X133096000Y-65278000D01*
X133096000Y-65278000D02*
X133096000Y-68910200D01*
X133096000Y-68910200D02*
X132664200Y-69342000D01*
X132664200Y-69342000D02*
X128193800Y-69342000D01*
X128193800Y-69342000D02*
X127431800Y-68580000D01*
X127431800Y-68580000D02*
X121920000Y-68580000D01*
D23*
X133096000Y-65278000D02*
X132350000Y-64532000D01*
X133096000Y-68834000D02*
X133096000Y-65278000D01*
X132588000Y-69342000D02*
X133096000Y-68834000D01*
X129286000Y-69342000D02*
X132588000Y-69342000D01*
D21*
X105807000Y-61308000D02*
X105807000Y-64532000D01*
X105807000Y-64532000D02*
X106553000Y-65278000D01*
X106553000Y-65278000D02*
X106553000Y-68910200D01*
X106553000Y-68910200D02*
X106121200Y-69342000D01*
X106121200Y-69342000D02*
X101650800Y-69342000D01*
X101650800Y-69342000D02*
X100888800Y-68580000D01*
X100888800Y-68580000D02*
X95377000Y-68580000D01*
D23*
X106553000Y-65278000D02*
X105807000Y-64532000D01*
X106553000Y-68834000D02*
X106553000Y-65278000D01*
X106045000Y-69342000D02*
X106553000Y-68834000D01*
X102743000Y-69342000D02*
X106045000Y-69342000D01*
D21*
X79264000Y-61308000D02*
X79264000Y-64532000D01*
X79264000Y-64532000D02*
X80010000Y-65278000D01*
X80010000Y-65278000D02*
X80010000Y-68910200D01*
X80010000Y-68910200D02*
X79578200Y-69342000D01*
X79578200Y-69342000D02*
X75107800Y-69342000D01*
X75107800Y-69342000D02*
X74345800Y-68580000D01*
X74345800Y-68580000D02*
X68834000Y-68580000D01*
D23*
X80010000Y-65278000D02*
X79264000Y-64532000D01*
X80010000Y-68834000D02*
X80010000Y-65278000D01*
X79502000Y-69342000D02*
X80010000Y-68834000D01*
X76200000Y-69342000D02*
X79502000Y-69342000D01*
X49657000Y-69342000D02*
X52959000Y-69342000D01*
X52959000Y-69342000D02*
X53467000Y-68834000D01*
X53467000Y-68834000D02*
X53467000Y-65278000D01*
X53467000Y-65278000D02*
X52721000Y-64532000D01*
D21*
X47802800Y-68580000D02*
X42291000Y-68580000D01*
X48564800Y-69342000D02*
X47802800Y-68580000D01*
X53035200Y-69342000D02*
X48564800Y-69342000D01*
X53467000Y-68910200D02*
X53035200Y-69342000D01*
X53467000Y-65278000D02*
X53467000Y-68910200D01*
X52721000Y-64532000D02*
X53467000Y-65278000D01*
X52721000Y-61308000D02*
X52721000Y-64532000D01*
D22*
X167893000Y-98996000D02*
X170751000Y-98996000D01*
X170751000Y-98996000D02*
X171323000Y-99568000D01*
D23*
X170751000Y-98996000D02*
X171323000Y-99568000D01*
D22*
X141350000Y-98996000D02*
X144208000Y-98996000D01*
X144208000Y-98996000D02*
X144780000Y-99568000D01*
D23*
X144208000Y-98996000D02*
X144780000Y-99568000D01*
D22*
X114807000Y-98996000D02*
X117665000Y-98996000D01*
X117665000Y-98996000D02*
X118237000Y-99568000D01*
D23*
X117665000Y-98996000D02*
X118237000Y-99568000D01*
D22*
X88264000Y-98996000D02*
X91122000Y-98996000D01*
X91122000Y-98996000D02*
X91694000Y-99568000D01*
D23*
X91122000Y-98996000D02*
X91694000Y-99568000D01*
D22*
X61721000Y-98996000D02*
X64579000Y-98996000D01*
X64579000Y-98996000D02*
X65151000Y-99568000D01*
D23*
X64579000Y-98996000D02*
X65151000Y-99568000D01*
D22*
X167893000Y-55308000D02*
X170751000Y-55308000D01*
X170751000Y-55308000D02*
X171323000Y-55880000D01*
D23*
X170751000Y-55308000D02*
X171323000Y-55880000D01*
D22*
X141350000Y-55308000D02*
X144208000Y-55308000D01*
X144208000Y-55308000D02*
X144780000Y-55880000D01*
D23*
X144208000Y-55308000D02*
X144780000Y-55880000D01*
D22*
X114807000Y-55308000D02*
X117665000Y-55308000D01*
X117665000Y-55308000D02*
X118237000Y-55880000D01*
D23*
X117665000Y-55308000D02*
X118237000Y-55880000D01*
D22*
X88264000Y-55308000D02*
X91122000Y-55308000D01*
X91122000Y-55308000D02*
X91694000Y-55880000D01*
D23*
X91122000Y-55308000D02*
X91694000Y-55880000D01*
X64579000Y-55308000D02*
X65151000Y-55880000D01*
D22*
X64579000Y-55308000D02*
X65151000Y-55880000D01*
X61721000Y-55308000D02*
X64579000Y-55308000D01*
X167893000Y-96996000D02*
X171291000Y-96996000D01*
X171291000Y-96996000D02*
X171323000Y-97028000D01*
X162973000Y-96996000D02*
X167893000Y-96996000D01*
D23*
X162941000Y-97028000D02*
X162973000Y-96996000D01*
X171291000Y-96996000D02*
X171323000Y-97028000D01*
D22*
X141350000Y-96996000D02*
X144748000Y-96996000D01*
X144748000Y-96996000D02*
X144780000Y-97028000D01*
X136430000Y-96996000D02*
X141350000Y-96996000D01*
D23*
X136398000Y-97028000D02*
X136430000Y-96996000D01*
X144748000Y-96996000D02*
X144780000Y-97028000D01*
D22*
X114807000Y-96996000D02*
X118205000Y-96996000D01*
X118205000Y-96996000D02*
X118237000Y-97028000D01*
X109887000Y-96996000D02*
X114807000Y-96996000D01*
D23*
X109855000Y-97028000D02*
X109887000Y-96996000D01*
X118205000Y-96996000D02*
X118237000Y-97028000D01*
D22*
X88264000Y-96996000D02*
X91662000Y-96996000D01*
X91662000Y-96996000D02*
X91694000Y-97028000D01*
X83344000Y-96996000D02*
X88264000Y-96996000D01*
D23*
X83312000Y-97028000D02*
X83344000Y-96996000D01*
X91662000Y-96996000D02*
X91694000Y-97028000D01*
D22*
X61721000Y-96996000D02*
X65119000Y-96996000D01*
X65119000Y-96996000D02*
X65151000Y-97028000D01*
X56801000Y-96996000D02*
X61721000Y-96996000D01*
D23*
X56769000Y-97028000D02*
X56801000Y-96996000D01*
X65119000Y-96996000D02*
X65151000Y-97028000D01*
D22*
X167893000Y-53308000D02*
X171291000Y-53308000D01*
X171291000Y-53308000D02*
X171323000Y-53340000D01*
X162973000Y-53308000D02*
X167893000Y-53308000D01*
D23*
X162941000Y-53340000D02*
X162973000Y-53308000D01*
X171291000Y-53308000D02*
X171323000Y-53340000D01*
D22*
X141350000Y-53308000D02*
X144748000Y-53308000D01*
X144748000Y-53308000D02*
X144780000Y-53340000D01*
X136430000Y-53308000D02*
X141350000Y-53308000D01*
D23*
X136398000Y-53340000D02*
X136430000Y-53308000D01*
X144748000Y-53308000D02*
X144780000Y-53340000D01*
D22*
X114807000Y-53308000D02*
X118205000Y-53308000D01*
X118205000Y-53308000D02*
X118237000Y-53340000D01*
X109887000Y-53308000D02*
X114807000Y-53308000D01*
D23*
X109855000Y-53340000D02*
X109887000Y-53308000D01*
X118205000Y-53308000D02*
X118237000Y-53340000D01*
D22*
X88264000Y-53308000D02*
X91662000Y-53308000D01*
X91662000Y-53308000D02*
X91694000Y-53340000D01*
X83344000Y-53308000D02*
X88264000Y-53308000D01*
D23*
X83312000Y-53340000D02*
X83344000Y-53308000D01*
X91662000Y-53308000D02*
X91694000Y-53340000D01*
X65119000Y-53308000D02*
X65151000Y-53340000D01*
X56769000Y-53340000D02*
X56801000Y-53308000D01*
D22*
X56801000Y-53308000D02*
X61721000Y-53308000D01*
X65119000Y-53308000D02*
X65151000Y-53340000D01*
X61721000Y-53308000D02*
X65119000Y-53308000D01*
X167893000Y-94996000D02*
X170815000Y-94996000D01*
X170815000Y-94996000D02*
X171323000Y-94488000D01*
D23*
X170815000Y-94996000D02*
X171323000Y-94488000D01*
D22*
X141350000Y-94996000D02*
X144272000Y-94996000D01*
X144272000Y-94996000D02*
X144780000Y-94488000D01*
D23*
X144272000Y-94996000D02*
X144780000Y-94488000D01*
D22*
X114807000Y-94996000D02*
X117729000Y-94996000D01*
X117729000Y-94996000D02*
X118237000Y-94488000D01*
D23*
X117729000Y-94996000D02*
X118237000Y-94488000D01*
D22*
X88264000Y-94996000D02*
X91186000Y-94996000D01*
X91186000Y-94996000D02*
X91694000Y-94488000D01*
D23*
X91186000Y-94996000D02*
X91694000Y-94488000D01*
D22*
X61721000Y-94996000D02*
X64643000Y-94996000D01*
X64643000Y-94996000D02*
X65151000Y-94488000D01*
D23*
X64643000Y-94996000D02*
X65151000Y-94488000D01*
D22*
X167893000Y-51308000D02*
X170815000Y-51308000D01*
X170815000Y-51308000D02*
X171323000Y-50800000D01*
D23*
X170815000Y-51308000D02*
X171323000Y-50800000D01*
D22*
X141350000Y-51308000D02*
X144272000Y-51308000D01*
X144272000Y-51308000D02*
X144780000Y-50800000D01*
D23*
X144272000Y-51308000D02*
X144780000Y-50800000D01*
D22*
X114807000Y-51308000D02*
X117729000Y-51308000D01*
X117729000Y-51308000D02*
X118237000Y-50800000D01*
D23*
X117729000Y-51308000D02*
X118237000Y-50800000D01*
D22*
X88264000Y-51308000D02*
X91186000Y-51308000D01*
X91186000Y-51308000D02*
X91694000Y-50800000D01*
D23*
X91186000Y-51308000D02*
X91694000Y-50800000D01*
X64643000Y-51308000D02*
X65151000Y-50800000D01*
D22*
X64643000Y-51308000D02*
X65151000Y-50800000D01*
X61721000Y-51308000D02*
X64643000Y-51308000D01*
X167893000Y-92996000D02*
X170275000Y-92996000D01*
X170275000Y-92996000D02*
X171323000Y-91948000D01*
X141350000Y-92996000D02*
X143732000Y-92996000D01*
X143732000Y-92996000D02*
X144780000Y-91948000D01*
X114807000Y-92996000D02*
X117189000Y-92996000D01*
X117189000Y-92996000D02*
X118237000Y-91948000D01*
X88264000Y-92996000D02*
X90646000Y-92996000D01*
X90646000Y-92996000D02*
X91694000Y-91948000D01*
X61721000Y-92996000D02*
X64103000Y-92996000D01*
X64103000Y-92996000D02*
X65151000Y-91948000D01*
X167893000Y-49308000D02*
X170275000Y-49308000D01*
X170275000Y-49308000D02*
X171323000Y-48260000D01*
X141350000Y-49308000D02*
X143732000Y-49308000D01*
X143732000Y-49308000D02*
X144780000Y-48260000D01*
X114807000Y-49308000D02*
X117189000Y-49308000D01*
X117189000Y-49308000D02*
X118237000Y-48260000D01*
X88264000Y-49308000D02*
X90646000Y-49308000D01*
X90646000Y-49308000D02*
X91694000Y-48260000D01*
X64103000Y-49308000D02*
X65151000Y-48260000D01*
X61721000Y-49308000D02*
X64103000Y-49308000D01*
D21*
X167893000Y-88996000D02*
X166426400Y-88996000D01*
X166426400Y-88996000D02*
X165557200Y-89865200D01*
X162255200Y-89230200D02*
X162255200Y-87274400D01*
X162890200Y-89865200D02*
X162255200Y-89230200D01*
X165557200Y-89865200D02*
X162890200Y-89865200D01*
X171323000Y-86868000D02*
X168605200Y-86868000D01*
X167893000Y-87580200D02*
X167893000Y-88996000D01*
X168605200Y-86868000D02*
X167893000Y-87580200D01*
X162255200Y-77012800D02*
X162255200Y-87274400D01*
X162255200Y-87274400D02*
X162255200Y-88341200D01*
X141350000Y-88996000D02*
X139883400Y-88996000D01*
X139883400Y-88996000D02*
X139014200Y-89865200D01*
X135712200Y-89230200D02*
X135712200Y-87274400D01*
X136347200Y-89865200D02*
X135712200Y-89230200D01*
X139014200Y-89865200D02*
X136347200Y-89865200D01*
X144780000Y-86868000D02*
X142062200Y-86868000D01*
X141350000Y-87580200D02*
X141350000Y-88996000D01*
X142062200Y-86868000D02*
X141350000Y-87580200D01*
X135712200Y-77012800D02*
X135712200Y-87274400D01*
X135712200Y-87274400D02*
X135712200Y-88341200D01*
X114807000Y-88996000D02*
X113340400Y-88996000D01*
X113340400Y-88996000D02*
X112471200Y-89865200D01*
X109169200Y-89230200D02*
X109169200Y-87274400D01*
X109804200Y-89865200D02*
X109169200Y-89230200D01*
X112471200Y-89865200D02*
X109804200Y-89865200D01*
X118237000Y-86868000D02*
X115519200Y-86868000D01*
X114807000Y-87580200D02*
X114807000Y-88996000D01*
X115519200Y-86868000D02*
X114807000Y-87580200D01*
X109169200Y-77012800D02*
X109169200Y-87274400D01*
X109169200Y-87274400D02*
X109169200Y-88341200D01*
X88264000Y-88996000D02*
X86797400Y-88996000D01*
X86797400Y-88996000D02*
X85928200Y-89865200D01*
X82626200Y-89230200D02*
X82626200Y-87274400D01*
X83261200Y-89865200D02*
X82626200Y-89230200D01*
X85928200Y-89865200D02*
X83261200Y-89865200D01*
X91694000Y-86868000D02*
X88976200Y-86868000D01*
X88264000Y-87580200D02*
X88264000Y-88996000D01*
X88976200Y-86868000D02*
X88264000Y-87580200D01*
X82626200Y-77012800D02*
X82626200Y-87274400D01*
X82626200Y-87274400D02*
X82626200Y-88341200D01*
X61721000Y-88996000D02*
X60254400Y-88996000D01*
X60254400Y-88996000D02*
X59385200Y-89865200D01*
X56083200Y-89230200D02*
X56083200Y-87274400D01*
X56718200Y-89865200D02*
X56083200Y-89230200D01*
X59385200Y-89865200D02*
X56718200Y-89865200D01*
X65151000Y-86868000D02*
X62433200Y-86868000D01*
X61721000Y-87580200D02*
X61721000Y-88996000D01*
X62433200Y-86868000D02*
X61721000Y-87580200D01*
X56083200Y-77012800D02*
X56083200Y-87274400D01*
X56083200Y-87274400D02*
X56083200Y-88341200D01*
X167893000Y-45308000D02*
X166426400Y-45308000D01*
X166426400Y-45308000D02*
X165557200Y-46177200D01*
X162255200Y-45542200D02*
X162255200Y-43586400D01*
X162890200Y-46177200D02*
X162255200Y-45542200D01*
X165557200Y-46177200D02*
X162890200Y-46177200D01*
X171323000Y-43180000D02*
X168605200Y-43180000D01*
X167893000Y-43892200D02*
X167893000Y-45308000D01*
X168605200Y-43180000D02*
X167893000Y-43892200D01*
X162255200Y-33324800D02*
X162255200Y-43586400D01*
X162255200Y-43586400D02*
X162255200Y-44653200D01*
X141350000Y-45308000D02*
X139883400Y-45308000D01*
X139883400Y-45308000D02*
X139014200Y-46177200D01*
X135712200Y-45542200D02*
X135712200Y-43586400D01*
X136347200Y-46177200D02*
X135712200Y-45542200D01*
X139014200Y-46177200D02*
X136347200Y-46177200D01*
X144780000Y-43180000D02*
X142062200Y-43180000D01*
X141350000Y-43892200D02*
X141350000Y-45308000D01*
X142062200Y-43180000D02*
X141350000Y-43892200D01*
X135712200Y-33324800D02*
X135712200Y-43586400D01*
X135712200Y-43586400D02*
X135712200Y-44653200D01*
X114807000Y-45308000D02*
X113340400Y-45308000D01*
X113340400Y-45308000D02*
X112471200Y-46177200D01*
X109169200Y-45542200D02*
X109169200Y-43586400D01*
X109804200Y-46177200D02*
X109169200Y-45542200D01*
X112471200Y-46177200D02*
X109804200Y-46177200D01*
X118237000Y-43180000D02*
X115519200Y-43180000D01*
X114807000Y-43892200D02*
X114807000Y-45308000D01*
X115519200Y-43180000D02*
X114807000Y-43892200D01*
X109169200Y-33324800D02*
X109169200Y-43586400D01*
X109169200Y-43586400D02*
X109169200Y-44653200D01*
X88264000Y-45308000D02*
X86797400Y-45308000D01*
X86797400Y-45308000D02*
X85928200Y-46177200D01*
X82626200Y-45542200D02*
X82626200Y-43586400D01*
X83261200Y-46177200D02*
X82626200Y-45542200D01*
X85928200Y-46177200D02*
X83261200Y-46177200D01*
X91694000Y-43180000D02*
X88976200Y-43180000D01*
X88264000Y-43892200D02*
X88264000Y-45308000D01*
X88976200Y-43180000D02*
X88264000Y-43892200D01*
X82626200Y-33324800D02*
X82626200Y-43586400D01*
X82626200Y-43586400D02*
X82626200Y-44653200D01*
X56083200Y-43586400D02*
X56083200Y-44653200D01*
X56083200Y-33324800D02*
X56083200Y-43586400D01*
X62433200Y-43180000D02*
X61721000Y-43892200D01*
X61721000Y-43892200D02*
X61721000Y-45308000D01*
X65151000Y-43180000D02*
X62433200Y-43180000D01*
X59385200Y-46177200D02*
X56718200Y-46177200D01*
X56718200Y-46177200D02*
X56083200Y-45542200D01*
X56083200Y-45542200D02*
X56083200Y-43586400D01*
X60254400Y-45308000D02*
X59385200Y-46177200D01*
X61721000Y-45308000D02*
X60254400Y-45308000D01*
X159715200Y-77012800D02*
X159715200Y-88341200D01*
X162370000Y-90996000D02*
X167893000Y-90996000D01*
X159715200Y-88341200D02*
X162370000Y-90996000D01*
D22*
X167893000Y-90996000D02*
X169735000Y-90996000D01*
X169735000Y-90996000D02*
X171323000Y-89408000D01*
D21*
X133172200Y-77012800D02*
X133172200Y-88341200D01*
X135827000Y-90996000D02*
X141350000Y-90996000D01*
X133172200Y-88341200D02*
X135827000Y-90996000D01*
D22*
X141350000Y-90996000D02*
X143192000Y-90996000D01*
X143192000Y-90996000D02*
X144780000Y-89408000D01*
D21*
X106629200Y-77012800D02*
X106629200Y-88341200D01*
X109284000Y-90996000D02*
X114807000Y-90996000D01*
X106629200Y-88341200D02*
X109284000Y-90996000D01*
D22*
X114807000Y-90996000D02*
X116649000Y-90996000D01*
X116649000Y-90996000D02*
X118237000Y-89408000D01*
D21*
X80086200Y-77012800D02*
X80086200Y-88341200D01*
X82741000Y-90996000D02*
X88264000Y-90996000D01*
X80086200Y-88341200D02*
X82741000Y-90996000D01*
D22*
X88264000Y-90996000D02*
X90106000Y-90996000D01*
X90106000Y-90996000D02*
X91694000Y-89408000D01*
D21*
X53543200Y-77012800D02*
X53543200Y-88341200D01*
X56198000Y-90996000D02*
X61721000Y-90996000D01*
X53543200Y-88341200D02*
X56198000Y-90996000D01*
D22*
X61721000Y-90996000D02*
X63563000Y-90996000D01*
X63563000Y-90996000D02*
X65151000Y-89408000D01*
D21*
X159715200Y-33324800D02*
X159715200Y-44653200D01*
X162370000Y-47308000D02*
X167893000Y-47308000D01*
X159715200Y-44653200D02*
X162370000Y-47308000D01*
D22*
X167893000Y-47308000D02*
X169735000Y-47308000D01*
X169735000Y-47308000D02*
X171323000Y-45720000D01*
D21*
X133172200Y-33324800D02*
X133172200Y-44653200D01*
X135827000Y-47308000D02*
X141350000Y-47308000D01*
X133172200Y-44653200D02*
X135827000Y-47308000D01*
D22*
X141350000Y-47308000D02*
X143192000Y-47308000D01*
X143192000Y-47308000D02*
X144780000Y-45720000D01*
D21*
X106629200Y-33324800D02*
X106629200Y-44653200D01*
X109284000Y-47308000D02*
X114807000Y-47308000D01*
X106629200Y-44653200D02*
X109284000Y-47308000D01*
D22*
X114807000Y-47308000D02*
X116649000Y-47308000D01*
X116649000Y-47308000D02*
X118237000Y-45720000D01*
D21*
X80086200Y-33324800D02*
X80086200Y-44653200D01*
X82741000Y-47308000D02*
X88264000Y-47308000D01*
X80086200Y-44653200D02*
X82741000Y-47308000D01*
D22*
X88264000Y-47308000D02*
X90106000Y-47308000D01*
X90106000Y-47308000D02*
X91694000Y-45720000D01*
X63563000Y-47308000D02*
X65151000Y-45720000D01*
X61721000Y-47308000D02*
X63563000Y-47308000D01*
D21*
X53543200Y-44653200D02*
X56198000Y-47308000D01*
X56198000Y-47308000D02*
X61721000Y-47308000D01*
X53543200Y-33324800D02*
X53543200Y-44653200D01*
M02*
