G04 #@! TF.FileFunction,Soldermask,Bot*
%FSLAX46Y46*%
G04 Gerber Fmt 4.6, Leading zero omitted, Abs format (unit mm)*
G04 Created by KiCad (PCBNEW (2015-01-16 BZR 5376)-product) date 6/19/2015 1:22:51 PM*
%MOMM*%
G01*
G04 APERTURE LIST*
%ADD10C,0.100000*%
%ADD11C,0.200000*%
%ADD12R,1.727200X2.032000*%
%ADD13O,1.727200X2.032000*%
%ADD14R,2.032000X3.657600*%
%ADD15R,2.032000X1.016000*%
%ADD16C,1.651000*%
%ADD17R,0.900000X1.200000*%
%ADD18R,1.200000X0.900000*%
%ADD19R,1.168400X1.422400*%
%ADD20R,1.422400X1.168400*%
%ADD21R,2.032000X1.727200*%
%ADD22O,2.032000X1.727200*%
%ADD23R,1.501140X2.148840*%
%ADD24R,1.500000X1.250000*%
%ADD25R,1.250000X1.500000*%
%ADD26C,2.000000*%
G04 APERTURE END LIST*
D10*
D11*
X146685000Y-74676000D02*
X146685000Y-114808000D01*
X173101000Y-114808000D02*
X173101000Y-74676000D01*
X173101000Y-74676000D02*
X146685000Y-74676000D01*
X146685000Y-114808000D02*
X146685000Y-118110000D01*
X146685000Y-118110000D02*
X173101000Y-118110000D01*
X173101000Y-118110000D02*
X173101000Y-114808000D01*
X120142000Y-74676000D02*
X120142000Y-114808000D01*
X146558000Y-114808000D02*
X146558000Y-74676000D01*
X146558000Y-74676000D02*
X120142000Y-74676000D01*
X120142000Y-114808000D02*
X120142000Y-118110000D01*
X120142000Y-118110000D02*
X146558000Y-118110000D01*
X146558000Y-118110000D02*
X146558000Y-114808000D01*
X93599000Y-74676000D02*
X93599000Y-114808000D01*
X120015000Y-114808000D02*
X120015000Y-74676000D01*
X120015000Y-74676000D02*
X93599000Y-74676000D01*
X93599000Y-114808000D02*
X93599000Y-118110000D01*
X93599000Y-118110000D02*
X120015000Y-118110000D01*
X120015000Y-118110000D02*
X120015000Y-114808000D01*
X67056000Y-74676000D02*
X67056000Y-114808000D01*
X93472000Y-114808000D02*
X93472000Y-74676000D01*
X93472000Y-74676000D02*
X67056000Y-74676000D01*
X67056000Y-114808000D02*
X67056000Y-118110000D01*
X67056000Y-118110000D02*
X93472000Y-118110000D01*
X93472000Y-118110000D02*
X93472000Y-114808000D01*
X40513000Y-74676000D02*
X40513000Y-114808000D01*
X66929000Y-114808000D02*
X66929000Y-74676000D01*
X66929000Y-74676000D02*
X40513000Y-74676000D01*
X40513000Y-114808000D02*
X40513000Y-118110000D01*
X40513000Y-118110000D02*
X66929000Y-118110000D01*
X66929000Y-118110000D02*
X66929000Y-114808000D01*
X146685000Y-30988000D02*
X146685000Y-71120000D01*
X173101000Y-71120000D02*
X173101000Y-30988000D01*
X173101000Y-30988000D02*
X146685000Y-30988000D01*
X146685000Y-71120000D02*
X146685000Y-74422000D01*
X146685000Y-74422000D02*
X173101000Y-74422000D01*
X173101000Y-74422000D02*
X173101000Y-71120000D01*
X120142000Y-30988000D02*
X120142000Y-71120000D01*
X146558000Y-71120000D02*
X146558000Y-30988000D01*
X146558000Y-30988000D02*
X120142000Y-30988000D01*
X120142000Y-71120000D02*
X120142000Y-74422000D01*
X120142000Y-74422000D02*
X146558000Y-74422000D01*
X146558000Y-74422000D02*
X146558000Y-71120000D01*
X93599000Y-30988000D02*
X93599000Y-71120000D01*
X120015000Y-71120000D02*
X120015000Y-30988000D01*
X120015000Y-30988000D02*
X93599000Y-30988000D01*
X93599000Y-71120000D02*
X93599000Y-74422000D01*
X93599000Y-74422000D02*
X120015000Y-74422000D01*
X120015000Y-74422000D02*
X120015000Y-71120000D01*
X67056000Y-30988000D02*
X67056000Y-71120000D01*
X93472000Y-71120000D02*
X93472000Y-30988000D01*
X93472000Y-30988000D02*
X67056000Y-30988000D01*
X67056000Y-71120000D02*
X67056000Y-74422000D01*
X67056000Y-74422000D02*
X93472000Y-74422000D01*
X93472000Y-74422000D02*
X93472000Y-71120000D01*
X66929000Y-74422000D02*
X66929000Y-71120000D01*
X40513000Y-74422000D02*
X66929000Y-74422000D01*
X40513000Y-71120000D02*
X40513000Y-74422000D01*
X66929000Y-30988000D02*
X40513000Y-30988000D01*
X66929000Y-71120000D02*
X66929000Y-30988000D01*
X40513000Y-30988000D02*
X40513000Y-71120000D01*
D12*
X152095200Y-77012800D03*
D13*
X154635200Y-77012800D03*
X157175200Y-77012800D03*
X159715200Y-77012800D03*
X162255200Y-77012800D03*
X164795200Y-77012800D03*
X167335200Y-77012800D03*
D14*
X163703000Y-82550000D03*
D15*
X157099000Y-82550000D03*
X157099000Y-80264000D03*
X157099000Y-84836000D03*
D16*
X162687000Y-110744000D03*
X157607000Y-110744000D03*
D17*
X165989000Y-90848000D03*
X165989000Y-93048000D03*
X164465000Y-103208000D03*
X164465000Y-101008000D03*
D18*
X164549000Y-94996000D03*
X162349000Y-94996000D03*
X163533000Y-90932000D03*
X161333000Y-90932000D03*
D19*
X159004000Y-99568000D03*
X160782000Y-99568000D03*
X159893000Y-97028000D03*
D20*
X156083000Y-90043000D03*
X156083000Y-91821000D03*
X158623000Y-90932000D03*
D21*
X148463000Y-81788000D03*
D22*
X148463000Y-84328000D03*
X148463000Y-86868000D03*
X148463000Y-89408000D03*
X148463000Y-91948000D03*
X148463000Y-94488000D03*
X148463000Y-97028000D03*
X148463000Y-99568000D03*
X148463000Y-102108000D03*
X148463000Y-104648000D03*
X148463000Y-107188000D03*
X148463000Y-109728000D03*
X148463000Y-112268000D03*
D21*
X171323000Y-81788000D03*
D22*
X171323000Y-84328000D03*
X171323000Y-86868000D03*
X171323000Y-89408000D03*
X171323000Y-91948000D03*
X171323000Y-94488000D03*
X171323000Y-97028000D03*
X171323000Y-99568000D03*
X171323000Y-102108000D03*
X171323000Y-104648000D03*
X171323000Y-107188000D03*
X171323000Y-109728000D03*
X171323000Y-112268000D03*
D23*
X153797000Y-84813140D03*
X153797000Y-81810860D03*
X166751000Y-84813140D03*
X166751000Y-81810860D03*
D24*
X161397000Y-102108000D03*
X158897000Y-102108000D03*
D25*
X152781000Y-92436000D03*
X152781000Y-89936000D03*
D26*
X171069000Y-116078000D03*
X148463000Y-116078000D03*
X148463000Y-76708000D03*
X171069000Y-76708000D03*
D12*
X125552200Y-77012800D03*
D13*
X128092200Y-77012800D03*
X130632200Y-77012800D03*
X133172200Y-77012800D03*
X135712200Y-77012800D03*
X138252200Y-77012800D03*
X140792200Y-77012800D03*
D14*
X137160000Y-82550000D03*
D15*
X130556000Y-82550000D03*
X130556000Y-80264000D03*
X130556000Y-84836000D03*
D16*
X136144000Y-110744000D03*
X131064000Y-110744000D03*
D17*
X139446000Y-90848000D03*
X139446000Y-93048000D03*
X137922000Y-103208000D03*
X137922000Y-101008000D03*
D18*
X138006000Y-94996000D03*
X135806000Y-94996000D03*
X136990000Y-90932000D03*
X134790000Y-90932000D03*
D19*
X132461000Y-99568000D03*
X134239000Y-99568000D03*
X133350000Y-97028000D03*
D20*
X129540000Y-90043000D03*
X129540000Y-91821000D03*
X132080000Y-90932000D03*
D21*
X121920000Y-81788000D03*
D22*
X121920000Y-84328000D03*
X121920000Y-86868000D03*
X121920000Y-89408000D03*
X121920000Y-91948000D03*
X121920000Y-94488000D03*
X121920000Y-97028000D03*
X121920000Y-99568000D03*
X121920000Y-102108000D03*
X121920000Y-104648000D03*
X121920000Y-107188000D03*
X121920000Y-109728000D03*
X121920000Y-112268000D03*
D21*
X144780000Y-81788000D03*
D22*
X144780000Y-84328000D03*
X144780000Y-86868000D03*
X144780000Y-89408000D03*
X144780000Y-91948000D03*
X144780000Y-94488000D03*
X144780000Y-97028000D03*
X144780000Y-99568000D03*
X144780000Y-102108000D03*
X144780000Y-104648000D03*
X144780000Y-107188000D03*
X144780000Y-109728000D03*
X144780000Y-112268000D03*
D23*
X127254000Y-84813140D03*
X127254000Y-81810860D03*
X140208000Y-84813140D03*
X140208000Y-81810860D03*
D24*
X134854000Y-102108000D03*
X132354000Y-102108000D03*
D25*
X126238000Y-92436000D03*
X126238000Y-89936000D03*
D26*
X144526000Y-116078000D03*
X121920000Y-116078000D03*
X121920000Y-76708000D03*
X144526000Y-76708000D03*
D12*
X99009200Y-77012800D03*
D13*
X101549200Y-77012800D03*
X104089200Y-77012800D03*
X106629200Y-77012800D03*
X109169200Y-77012800D03*
X111709200Y-77012800D03*
X114249200Y-77012800D03*
D14*
X110617000Y-82550000D03*
D15*
X104013000Y-82550000D03*
X104013000Y-80264000D03*
X104013000Y-84836000D03*
D16*
X109601000Y-110744000D03*
X104521000Y-110744000D03*
D17*
X112903000Y-90848000D03*
X112903000Y-93048000D03*
X111379000Y-103208000D03*
X111379000Y-101008000D03*
D18*
X111463000Y-94996000D03*
X109263000Y-94996000D03*
X110447000Y-90932000D03*
X108247000Y-90932000D03*
D19*
X105918000Y-99568000D03*
X107696000Y-99568000D03*
X106807000Y-97028000D03*
D20*
X102997000Y-90043000D03*
X102997000Y-91821000D03*
X105537000Y-90932000D03*
D21*
X95377000Y-81788000D03*
D22*
X95377000Y-84328000D03*
X95377000Y-86868000D03*
X95377000Y-89408000D03*
X95377000Y-91948000D03*
X95377000Y-94488000D03*
X95377000Y-97028000D03*
X95377000Y-99568000D03*
X95377000Y-102108000D03*
X95377000Y-104648000D03*
X95377000Y-107188000D03*
X95377000Y-109728000D03*
X95377000Y-112268000D03*
D21*
X118237000Y-81788000D03*
D22*
X118237000Y-84328000D03*
X118237000Y-86868000D03*
X118237000Y-89408000D03*
X118237000Y-91948000D03*
X118237000Y-94488000D03*
X118237000Y-97028000D03*
X118237000Y-99568000D03*
X118237000Y-102108000D03*
X118237000Y-104648000D03*
X118237000Y-107188000D03*
X118237000Y-109728000D03*
X118237000Y-112268000D03*
D23*
X100711000Y-84813140D03*
X100711000Y-81810860D03*
X113665000Y-84813140D03*
X113665000Y-81810860D03*
D24*
X108311000Y-102108000D03*
X105811000Y-102108000D03*
D25*
X99695000Y-92436000D03*
X99695000Y-89936000D03*
D26*
X117983000Y-116078000D03*
X95377000Y-116078000D03*
X95377000Y-76708000D03*
X117983000Y-76708000D03*
D12*
X72466200Y-77012800D03*
D13*
X75006200Y-77012800D03*
X77546200Y-77012800D03*
X80086200Y-77012800D03*
X82626200Y-77012800D03*
X85166200Y-77012800D03*
X87706200Y-77012800D03*
D14*
X84074000Y-82550000D03*
D15*
X77470000Y-82550000D03*
X77470000Y-80264000D03*
X77470000Y-84836000D03*
D16*
X83058000Y-110744000D03*
X77978000Y-110744000D03*
D17*
X86360000Y-90848000D03*
X86360000Y-93048000D03*
X84836000Y-103208000D03*
X84836000Y-101008000D03*
D18*
X84920000Y-94996000D03*
X82720000Y-94996000D03*
X83904000Y-90932000D03*
X81704000Y-90932000D03*
D19*
X79375000Y-99568000D03*
X81153000Y-99568000D03*
X80264000Y-97028000D03*
D20*
X76454000Y-90043000D03*
X76454000Y-91821000D03*
X78994000Y-90932000D03*
D21*
X68834000Y-81788000D03*
D22*
X68834000Y-84328000D03*
X68834000Y-86868000D03*
X68834000Y-89408000D03*
X68834000Y-91948000D03*
X68834000Y-94488000D03*
X68834000Y-97028000D03*
X68834000Y-99568000D03*
X68834000Y-102108000D03*
X68834000Y-104648000D03*
X68834000Y-107188000D03*
X68834000Y-109728000D03*
X68834000Y-112268000D03*
D21*
X91694000Y-81788000D03*
D22*
X91694000Y-84328000D03*
X91694000Y-86868000D03*
X91694000Y-89408000D03*
X91694000Y-91948000D03*
X91694000Y-94488000D03*
X91694000Y-97028000D03*
X91694000Y-99568000D03*
X91694000Y-102108000D03*
X91694000Y-104648000D03*
X91694000Y-107188000D03*
X91694000Y-109728000D03*
X91694000Y-112268000D03*
D23*
X74168000Y-84813140D03*
X74168000Y-81810860D03*
X87122000Y-84813140D03*
X87122000Y-81810860D03*
D24*
X81768000Y-102108000D03*
X79268000Y-102108000D03*
D25*
X73152000Y-92436000D03*
X73152000Y-89936000D03*
D26*
X91440000Y-116078000D03*
X68834000Y-116078000D03*
X68834000Y-76708000D03*
X91440000Y-76708000D03*
D12*
X45923200Y-77012800D03*
D13*
X48463200Y-77012800D03*
X51003200Y-77012800D03*
X53543200Y-77012800D03*
X56083200Y-77012800D03*
X58623200Y-77012800D03*
X61163200Y-77012800D03*
D14*
X57531000Y-82550000D03*
D15*
X50927000Y-82550000D03*
X50927000Y-80264000D03*
X50927000Y-84836000D03*
D16*
X56515000Y-110744000D03*
X51435000Y-110744000D03*
D17*
X59817000Y-90848000D03*
X59817000Y-93048000D03*
X58293000Y-103208000D03*
X58293000Y-101008000D03*
D18*
X58377000Y-94996000D03*
X56177000Y-94996000D03*
X57361000Y-90932000D03*
X55161000Y-90932000D03*
D19*
X52832000Y-99568000D03*
X54610000Y-99568000D03*
X53721000Y-97028000D03*
D20*
X49911000Y-90043000D03*
X49911000Y-91821000D03*
X52451000Y-90932000D03*
D21*
X42291000Y-81788000D03*
D22*
X42291000Y-84328000D03*
X42291000Y-86868000D03*
X42291000Y-89408000D03*
X42291000Y-91948000D03*
X42291000Y-94488000D03*
X42291000Y-97028000D03*
X42291000Y-99568000D03*
X42291000Y-102108000D03*
X42291000Y-104648000D03*
X42291000Y-107188000D03*
X42291000Y-109728000D03*
X42291000Y-112268000D03*
D21*
X65151000Y-81788000D03*
D22*
X65151000Y-84328000D03*
X65151000Y-86868000D03*
X65151000Y-89408000D03*
X65151000Y-91948000D03*
X65151000Y-94488000D03*
X65151000Y-97028000D03*
X65151000Y-99568000D03*
X65151000Y-102108000D03*
X65151000Y-104648000D03*
X65151000Y-107188000D03*
X65151000Y-109728000D03*
X65151000Y-112268000D03*
D23*
X47625000Y-84813140D03*
X47625000Y-81810860D03*
X60579000Y-84813140D03*
X60579000Y-81810860D03*
D24*
X55225000Y-102108000D03*
X52725000Y-102108000D03*
D25*
X46609000Y-92436000D03*
X46609000Y-89936000D03*
D26*
X64897000Y-116078000D03*
X42291000Y-116078000D03*
X42291000Y-76708000D03*
X64897000Y-76708000D03*
D12*
X152095200Y-33324800D03*
D13*
X154635200Y-33324800D03*
X157175200Y-33324800D03*
X159715200Y-33324800D03*
X162255200Y-33324800D03*
X164795200Y-33324800D03*
X167335200Y-33324800D03*
D14*
X163703000Y-38862000D03*
D15*
X157099000Y-38862000D03*
X157099000Y-36576000D03*
X157099000Y-41148000D03*
D16*
X162687000Y-67056000D03*
X157607000Y-67056000D03*
D17*
X165989000Y-47160000D03*
X165989000Y-49360000D03*
X164465000Y-59520000D03*
X164465000Y-57320000D03*
D18*
X164549000Y-51308000D03*
X162349000Y-51308000D03*
X163533000Y-47244000D03*
X161333000Y-47244000D03*
D19*
X159004000Y-55880000D03*
X160782000Y-55880000D03*
X159893000Y-53340000D03*
D20*
X156083000Y-46355000D03*
X156083000Y-48133000D03*
X158623000Y-47244000D03*
D21*
X148463000Y-38100000D03*
D22*
X148463000Y-40640000D03*
X148463000Y-43180000D03*
X148463000Y-45720000D03*
X148463000Y-48260000D03*
X148463000Y-50800000D03*
X148463000Y-53340000D03*
X148463000Y-55880000D03*
X148463000Y-58420000D03*
X148463000Y-60960000D03*
X148463000Y-63500000D03*
X148463000Y-66040000D03*
X148463000Y-68580000D03*
D21*
X171323000Y-38100000D03*
D22*
X171323000Y-40640000D03*
X171323000Y-43180000D03*
X171323000Y-45720000D03*
X171323000Y-48260000D03*
X171323000Y-50800000D03*
X171323000Y-53340000D03*
X171323000Y-55880000D03*
X171323000Y-58420000D03*
X171323000Y-60960000D03*
X171323000Y-63500000D03*
X171323000Y-66040000D03*
X171323000Y-68580000D03*
D23*
X153797000Y-41125140D03*
X153797000Y-38122860D03*
X166751000Y-41125140D03*
X166751000Y-38122860D03*
D24*
X161397000Y-58420000D03*
X158897000Y-58420000D03*
D25*
X152781000Y-48748000D03*
X152781000Y-46248000D03*
D26*
X171069000Y-72390000D03*
X148463000Y-72390000D03*
X148463000Y-33020000D03*
X171069000Y-33020000D03*
D12*
X125552200Y-33324800D03*
D13*
X128092200Y-33324800D03*
X130632200Y-33324800D03*
X133172200Y-33324800D03*
X135712200Y-33324800D03*
X138252200Y-33324800D03*
X140792200Y-33324800D03*
D14*
X137160000Y-38862000D03*
D15*
X130556000Y-38862000D03*
X130556000Y-36576000D03*
X130556000Y-41148000D03*
D16*
X136144000Y-67056000D03*
X131064000Y-67056000D03*
D17*
X139446000Y-47160000D03*
X139446000Y-49360000D03*
X137922000Y-59520000D03*
X137922000Y-57320000D03*
D18*
X138006000Y-51308000D03*
X135806000Y-51308000D03*
X136990000Y-47244000D03*
X134790000Y-47244000D03*
D19*
X132461000Y-55880000D03*
X134239000Y-55880000D03*
X133350000Y-53340000D03*
D20*
X129540000Y-46355000D03*
X129540000Y-48133000D03*
X132080000Y-47244000D03*
D21*
X121920000Y-38100000D03*
D22*
X121920000Y-40640000D03*
X121920000Y-43180000D03*
X121920000Y-45720000D03*
X121920000Y-48260000D03*
X121920000Y-50800000D03*
X121920000Y-53340000D03*
X121920000Y-55880000D03*
X121920000Y-58420000D03*
X121920000Y-60960000D03*
X121920000Y-63500000D03*
X121920000Y-66040000D03*
X121920000Y-68580000D03*
D21*
X144780000Y-38100000D03*
D22*
X144780000Y-40640000D03*
X144780000Y-43180000D03*
X144780000Y-45720000D03*
X144780000Y-48260000D03*
X144780000Y-50800000D03*
X144780000Y-53340000D03*
X144780000Y-55880000D03*
X144780000Y-58420000D03*
X144780000Y-60960000D03*
X144780000Y-63500000D03*
X144780000Y-66040000D03*
X144780000Y-68580000D03*
D23*
X127254000Y-41125140D03*
X127254000Y-38122860D03*
X140208000Y-41125140D03*
X140208000Y-38122860D03*
D24*
X134854000Y-58420000D03*
X132354000Y-58420000D03*
D25*
X126238000Y-48748000D03*
X126238000Y-46248000D03*
D26*
X144526000Y-72390000D03*
X121920000Y-72390000D03*
X121920000Y-33020000D03*
X144526000Y-33020000D03*
D12*
X99009200Y-33324800D03*
D13*
X101549200Y-33324800D03*
X104089200Y-33324800D03*
X106629200Y-33324800D03*
X109169200Y-33324800D03*
X111709200Y-33324800D03*
X114249200Y-33324800D03*
D14*
X110617000Y-38862000D03*
D15*
X104013000Y-38862000D03*
X104013000Y-36576000D03*
X104013000Y-41148000D03*
D16*
X109601000Y-67056000D03*
X104521000Y-67056000D03*
D17*
X112903000Y-47160000D03*
X112903000Y-49360000D03*
X111379000Y-59520000D03*
X111379000Y-57320000D03*
D18*
X111463000Y-51308000D03*
X109263000Y-51308000D03*
X110447000Y-47244000D03*
X108247000Y-47244000D03*
D19*
X105918000Y-55880000D03*
X107696000Y-55880000D03*
X106807000Y-53340000D03*
D20*
X102997000Y-46355000D03*
X102997000Y-48133000D03*
X105537000Y-47244000D03*
D21*
X95377000Y-38100000D03*
D22*
X95377000Y-40640000D03*
X95377000Y-43180000D03*
X95377000Y-45720000D03*
X95377000Y-48260000D03*
X95377000Y-50800000D03*
X95377000Y-53340000D03*
X95377000Y-55880000D03*
X95377000Y-58420000D03*
X95377000Y-60960000D03*
X95377000Y-63500000D03*
X95377000Y-66040000D03*
X95377000Y-68580000D03*
D21*
X118237000Y-38100000D03*
D22*
X118237000Y-40640000D03*
X118237000Y-43180000D03*
X118237000Y-45720000D03*
X118237000Y-48260000D03*
X118237000Y-50800000D03*
X118237000Y-53340000D03*
X118237000Y-55880000D03*
X118237000Y-58420000D03*
X118237000Y-60960000D03*
X118237000Y-63500000D03*
X118237000Y-66040000D03*
X118237000Y-68580000D03*
D23*
X100711000Y-41125140D03*
X100711000Y-38122860D03*
X113665000Y-41125140D03*
X113665000Y-38122860D03*
D24*
X108311000Y-58420000D03*
X105811000Y-58420000D03*
D25*
X99695000Y-48748000D03*
X99695000Y-46248000D03*
D26*
X117983000Y-72390000D03*
X95377000Y-72390000D03*
X95377000Y-33020000D03*
X117983000Y-33020000D03*
D12*
X72466200Y-33324800D03*
D13*
X75006200Y-33324800D03*
X77546200Y-33324800D03*
X80086200Y-33324800D03*
X82626200Y-33324800D03*
X85166200Y-33324800D03*
X87706200Y-33324800D03*
D14*
X84074000Y-38862000D03*
D15*
X77470000Y-38862000D03*
X77470000Y-36576000D03*
X77470000Y-41148000D03*
D16*
X83058000Y-67056000D03*
X77978000Y-67056000D03*
D17*
X86360000Y-47160000D03*
X86360000Y-49360000D03*
X84836000Y-59520000D03*
X84836000Y-57320000D03*
D18*
X84920000Y-51308000D03*
X82720000Y-51308000D03*
X83904000Y-47244000D03*
X81704000Y-47244000D03*
D19*
X79375000Y-55880000D03*
X81153000Y-55880000D03*
X80264000Y-53340000D03*
D20*
X76454000Y-46355000D03*
X76454000Y-48133000D03*
X78994000Y-47244000D03*
D21*
X68834000Y-38100000D03*
D22*
X68834000Y-40640000D03*
X68834000Y-43180000D03*
X68834000Y-45720000D03*
X68834000Y-48260000D03*
X68834000Y-50800000D03*
X68834000Y-53340000D03*
X68834000Y-55880000D03*
X68834000Y-58420000D03*
X68834000Y-60960000D03*
X68834000Y-63500000D03*
X68834000Y-66040000D03*
X68834000Y-68580000D03*
D21*
X91694000Y-38100000D03*
D22*
X91694000Y-40640000D03*
X91694000Y-43180000D03*
X91694000Y-45720000D03*
X91694000Y-48260000D03*
X91694000Y-50800000D03*
X91694000Y-53340000D03*
X91694000Y-55880000D03*
X91694000Y-58420000D03*
X91694000Y-60960000D03*
X91694000Y-63500000D03*
X91694000Y-66040000D03*
X91694000Y-68580000D03*
D23*
X74168000Y-41125140D03*
X74168000Y-38122860D03*
X87122000Y-41125140D03*
X87122000Y-38122860D03*
D24*
X81768000Y-58420000D03*
X79268000Y-58420000D03*
D25*
X73152000Y-48748000D03*
X73152000Y-46248000D03*
D26*
X91440000Y-72390000D03*
X68834000Y-72390000D03*
X68834000Y-33020000D03*
X91440000Y-33020000D03*
X64897000Y-33020000D03*
X42291000Y-33020000D03*
X42291000Y-72390000D03*
X64897000Y-72390000D03*
D25*
X46609000Y-48748000D03*
X46609000Y-46248000D03*
D24*
X55225000Y-58420000D03*
X52725000Y-58420000D03*
D23*
X60579000Y-41125140D03*
X60579000Y-38122860D03*
X47625000Y-41125140D03*
X47625000Y-38122860D03*
D21*
X65151000Y-38100000D03*
D22*
X65151000Y-40640000D03*
X65151000Y-43180000D03*
X65151000Y-45720000D03*
X65151000Y-48260000D03*
X65151000Y-50800000D03*
X65151000Y-53340000D03*
X65151000Y-55880000D03*
X65151000Y-58420000D03*
X65151000Y-60960000D03*
X65151000Y-63500000D03*
X65151000Y-66040000D03*
X65151000Y-68580000D03*
D21*
X42291000Y-38100000D03*
D22*
X42291000Y-40640000D03*
X42291000Y-43180000D03*
X42291000Y-45720000D03*
X42291000Y-48260000D03*
X42291000Y-50800000D03*
X42291000Y-53340000D03*
X42291000Y-55880000D03*
X42291000Y-58420000D03*
X42291000Y-60960000D03*
X42291000Y-63500000D03*
X42291000Y-66040000D03*
X42291000Y-68580000D03*
D20*
X49911000Y-46355000D03*
X49911000Y-48133000D03*
X52451000Y-47244000D03*
D19*
X52832000Y-55880000D03*
X54610000Y-55880000D03*
X53721000Y-53340000D03*
D18*
X57361000Y-47244000D03*
X55161000Y-47244000D03*
X58377000Y-51308000D03*
X56177000Y-51308000D03*
D17*
X58293000Y-59520000D03*
X58293000Y-57320000D03*
X59817000Y-47160000D03*
X59817000Y-49360000D03*
D16*
X56515000Y-67056000D03*
X51435000Y-67056000D03*
D14*
X57531000Y-38862000D03*
D15*
X50927000Y-38862000D03*
X50927000Y-36576000D03*
X50927000Y-41148000D03*
D12*
X45923200Y-33324800D03*
D13*
X48463200Y-33324800D03*
X51003200Y-33324800D03*
X53543200Y-33324800D03*
X56083200Y-33324800D03*
X58623200Y-33324800D03*
X61163200Y-33324800D03*
M02*
