M48
;DRILL file {kicad (2015-01-16 BZR 5376)-product} date 6/19/2015 1:02:56 PM
;FORMAT={-:-/ absolute / metric / decimal}
FMAT,2
METRIC,TZ
T1C0.813
T2C0.838
T3C1.016
T4C2.000
%
G90
G05
M71
T1
X51.435Y-67.056
X51.435Y-110.744
X56.515Y-67.056
X56.515Y-110.744
X77.978Y-67.056
X77.978Y-110.744
X83.058Y-67.056
X83.058Y-110.744
X104.521Y-67.056
X104.521Y-110.744
X109.601Y-67.056
X109.601Y-110.744
X131.064Y-67.056
X131.064Y-110.744
X136.144Y-67.056
X136.144Y-110.744
X157.607Y-67.056
X157.607Y-110.744
X162.687Y-67.056
X162.687Y-110.744
T2
X47.549Y-35.814
X47.549Y-79.502
X48.844Y-43.917
X48.844Y-87.605
X48.971Y-53.467
X48.971Y-97.155
X54.737Y-49.276
X54.737Y-92.964
X56.769Y-53.34
X56.769Y-97.028
X57.328Y-43.129
X57.328Y-86.817
X57.734Y-44.679
X57.734Y-88.367
X62.103Y-62.23
X62.103Y-105.918
X74.092Y-35.814
X74.092Y-79.502
X75.387Y-43.917
X75.387Y-87.605
X75.514Y-53.467
X75.514Y-97.155
X81.28Y-49.276
X81.28Y-92.964
X83.312Y-53.34
X83.312Y-97.028
X83.871Y-43.129
X83.871Y-86.817
X84.277Y-44.679
X84.277Y-88.367
X88.646Y-62.23
X88.646Y-105.918
X100.635Y-35.814
X100.635Y-79.502
X101.93Y-43.917
X101.93Y-87.605
X102.057Y-53.467
X102.057Y-97.155
X107.823Y-49.276
X107.823Y-92.964
X109.855Y-53.34
X109.855Y-97.028
X110.414Y-43.129
X110.414Y-86.817
X110.82Y-44.679
X110.82Y-88.367
X115.189Y-62.23
X115.189Y-105.918
X127.178Y-35.814
X127.178Y-79.502
X128.473Y-43.917
X128.473Y-87.605
X128.6Y-53.467
X128.6Y-97.155
X134.366Y-49.276
X134.366Y-92.964
X136.398Y-53.34
X136.398Y-97.028
X136.957Y-43.129
X136.957Y-86.817
X137.363Y-44.679
X137.363Y-88.367
X141.732Y-62.23
X141.732Y-105.918
X153.721Y-35.814
X153.721Y-79.502
X155.016Y-43.917
X155.016Y-87.605
X155.143Y-53.467
X155.143Y-97.155
X160.909Y-49.276
X160.909Y-92.964
X162.941Y-53.34
X162.941Y-97.028
X163.5Y-43.129
X163.5Y-86.817
X163.906Y-44.679
X163.906Y-88.367
X168.275Y-62.23
X168.275Y-105.918
T3
X42.291Y-38.1
X42.291Y-40.64
X42.291Y-43.18
X42.291Y-45.72
X42.291Y-48.26
X42.291Y-50.8
X42.291Y-53.34
X42.291Y-55.88
X42.291Y-58.42
X42.291Y-60.96
X42.291Y-63.5
X42.291Y-66.04
X42.291Y-68.58
X42.291Y-81.788
X42.291Y-84.328
X42.291Y-86.868
X42.291Y-89.408
X42.291Y-91.948
X42.291Y-94.488
X42.291Y-97.028
X42.291Y-99.568
X42.291Y-102.108
X42.291Y-104.648
X42.291Y-107.188
X42.291Y-109.728
X42.291Y-112.268
X45.923Y-33.325
X45.923Y-77.013
X48.463Y-33.325
X48.463Y-77.013
X51.003Y-33.325
X51.003Y-77.013
X53.543Y-33.325
X53.543Y-77.013
X56.083Y-33.325
X56.083Y-77.013
X58.623Y-33.325
X58.623Y-77.013
X61.163Y-33.325
X61.163Y-77.013
X65.151Y-38.1
X65.151Y-40.64
X65.151Y-43.18
X65.151Y-45.72
X65.151Y-48.26
X65.151Y-50.8
X65.151Y-53.34
X65.151Y-55.88
X65.151Y-58.42
X65.151Y-60.96
X65.151Y-63.5
X65.151Y-66.04
X65.151Y-68.58
X65.151Y-81.788
X65.151Y-84.328
X65.151Y-86.868
X65.151Y-89.408
X65.151Y-91.948
X65.151Y-94.488
X65.151Y-97.028
X65.151Y-99.568
X65.151Y-102.108
X65.151Y-104.648
X65.151Y-107.188
X65.151Y-109.728
X65.151Y-112.268
X68.834Y-38.1
X68.834Y-40.64
X68.834Y-43.18
X68.834Y-45.72
X68.834Y-48.26
X68.834Y-50.8
X68.834Y-53.34
X68.834Y-55.88
X68.834Y-58.42
X68.834Y-60.96
X68.834Y-63.5
X68.834Y-66.04
X68.834Y-68.58
X68.834Y-81.788
X68.834Y-84.328
X68.834Y-86.868
X68.834Y-89.408
X68.834Y-91.948
X68.834Y-94.488
X68.834Y-97.028
X68.834Y-99.568
X68.834Y-102.108
X68.834Y-104.648
X68.834Y-107.188
X68.834Y-109.728
X68.834Y-112.268
X72.466Y-33.325
X72.466Y-77.013
X75.006Y-33.325
X75.006Y-77.013
X77.546Y-33.325
X77.546Y-77.013
X80.086Y-33.325
X80.086Y-77.013
X82.626Y-33.325
X82.626Y-77.013
X85.166Y-33.325
X85.166Y-77.013
X87.706Y-33.325
X87.706Y-77.013
X91.694Y-38.1
X91.694Y-40.64
X91.694Y-43.18
X91.694Y-45.72
X91.694Y-48.26
X91.694Y-50.8
X91.694Y-53.34
X91.694Y-55.88
X91.694Y-58.42
X91.694Y-60.96
X91.694Y-63.5
X91.694Y-66.04
X91.694Y-68.58
X91.694Y-81.788
X91.694Y-84.328
X91.694Y-86.868
X91.694Y-89.408
X91.694Y-91.948
X91.694Y-94.488
X91.694Y-97.028
X91.694Y-99.568
X91.694Y-102.108
X91.694Y-104.648
X91.694Y-107.188
X91.694Y-109.728
X91.694Y-112.268
X95.377Y-38.1
X95.377Y-40.64
X95.377Y-43.18
X95.377Y-45.72
X95.377Y-48.26
X95.377Y-50.8
X95.377Y-53.34
X95.377Y-55.88
X95.377Y-58.42
X95.377Y-60.96
X95.377Y-63.5
X95.377Y-66.04
X95.377Y-68.58
X95.377Y-81.788
X95.377Y-84.328
X95.377Y-86.868
X95.377Y-89.408
X95.377Y-91.948
X95.377Y-94.488
X95.377Y-97.028
X95.377Y-99.568
X95.377Y-102.108
X95.377Y-104.648
X95.377Y-107.188
X95.377Y-109.728
X95.377Y-112.268
X99.009Y-33.325
X99.009Y-77.013
X101.549Y-33.325
X101.549Y-77.013
X104.089Y-33.325
X104.089Y-77.013
X106.629Y-33.325
X106.629Y-77.013
X109.169Y-33.325
X109.169Y-77.013
X111.709Y-33.325
X111.709Y-77.013
X114.249Y-33.325
X114.249Y-77.013
X118.237Y-38.1
X118.237Y-40.64
X118.237Y-43.18
X118.237Y-45.72
X118.237Y-48.26
X118.237Y-50.8
X118.237Y-53.34
X118.237Y-55.88
X118.237Y-58.42
X118.237Y-60.96
X118.237Y-63.5
X118.237Y-66.04
X118.237Y-68.58
X118.237Y-81.788
X118.237Y-84.328
X118.237Y-86.868
X118.237Y-89.408
X118.237Y-91.948
X118.237Y-94.488
X118.237Y-97.028
X118.237Y-99.568
X118.237Y-102.108
X118.237Y-104.648
X118.237Y-107.188
X118.237Y-109.728
X118.237Y-112.268
X121.92Y-38.1
X121.92Y-40.64
X121.92Y-43.18
X121.92Y-45.72
X121.92Y-48.26
X121.92Y-50.8
X121.92Y-53.34
X121.92Y-55.88
X121.92Y-58.42
X121.92Y-60.96
X121.92Y-63.5
X121.92Y-66.04
X121.92Y-68.58
X121.92Y-81.788
X121.92Y-84.328
X121.92Y-86.868
X121.92Y-89.408
X121.92Y-91.948
X121.92Y-94.488
X121.92Y-97.028
X121.92Y-99.568
X121.92Y-102.108
X121.92Y-104.648
X121.92Y-107.188
X121.92Y-109.728
X121.92Y-112.268
X125.552Y-33.325
X125.552Y-77.013
X128.092Y-33.325
X128.092Y-77.013
X130.632Y-33.325
X130.632Y-77.013
X133.172Y-33.325
X133.172Y-77.013
X135.712Y-33.325
X135.712Y-77.013
X138.252Y-33.325
X138.252Y-77.013
X140.792Y-33.325
X140.792Y-77.013
X144.78Y-38.1
X144.78Y-40.64
X144.78Y-43.18
X144.78Y-45.72
X144.78Y-48.26
X144.78Y-50.8
X144.78Y-53.34
X144.78Y-55.88
X144.78Y-58.42
X144.78Y-60.96
X144.78Y-63.5
X144.78Y-66.04
X144.78Y-68.58
X144.78Y-81.788
X144.78Y-84.328
X144.78Y-86.868
X144.78Y-89.408
X144.78Y-91.948
X144.78Y-94.488
X144.78Y-97.028
X144.78Y-99.568
X144.78Y-102.108
X144.78Y-104.648
X144.78Y-107.188
X144.78Y-109.728
X144.78Y-112.268
X148.463Y-38.1
X148.463Y-40.64
X148.463Y-43.18
X148.463Y-45.72
X148.463Y-48.26
X148.463Y-50.8
X148.463Y-53.34
X148.463Y-55.88
X148.463Y-58.42
X148.463Y-60.96
X148.463Y-63.5
X148.463Y-66.04
X148.463Y-68.58
X148.463Y-81.788
X148.463Y-84.328
X148.463Y-86.868
X148.463Y-89.408
X148.463Y-91.948
X148.463Y-94.488
X148.463Y-97.028
X148.463Y-99.568
X148.463Y-102.108
X148.463Y-104.648
X148.463Y-107.188
X148.463Y-109.728
X148.463Y-112.268
X152.095Y-33.325
X152.095Y-77.013
X154.635Y-33.325
X154.635Y-77.013
X157.175Y-33.325
X157.175Y-77.013
X159.715Y-33.325
X159.715Y-77.013
X162.255Y-33.325
X162.255Y-77.013
X164.795Y-33.325
X164.795Y-77.013
X167.335Y-33.325
X167.335Y-77.013
X171.323Y-38.1
X171.323Y-40.64
X171.323Y-43.18
X171.323Y-45.72
X171.323Y-48.26
X171.323Y-50.8
X171.323Y-53.34
X171.323Y-55.88
X171.323Y-58.42
X171.323Y-60.96
X171.323Y-63.5
X171.323Y-66.04
X171.323Y-68.58
X171.323Y-81.788
X171.323Y-84.328
X171.323Y-86.868
X171.323Y-89.408
X171.323Y-91.948
X171.323Y-94.488
X171.323Y-97.028
X171.323Y-99.568
X171.323Y-102.108
X171.323Y-104.648
X171.323Y-107.188
X171.323Y-109.728
X171.323Y-112.268
T4
X42.291Y-33.02
X42.291Y-72.39
X42.291Y-76.708
X42.291Y-116.078
X64.897Y-33.02
X64.897Y-72.39
X64.897Y-76.708
X64.897Y-116.078
X68.834Y-33.02
X68.834Y-72.39
X68.834Y-76.708
X68.834Y-116.078
X91.44Y-33.02
X91.44Y-72.39
X91.44Y-76.708
X91.44Y-116.078
X95.377Y-33.02
X95.377Y-72.39
X95.377Y-76.708
X95.377Y-116.078
X117.983Y-33.02
X117.983Y-72.39
X117.983Y-76.708
X117.983Y-116.078
X121.92Y-33.02
X121.92Y-72.39
X121.92Y-76.708
X121.92Y-116.078
X144.526Y-33.02
X144.526Y-72.39
X144.526Y-76.708
X144.526Y-116.078
X148.463Y-33.02
X148.463Y-72.39
X148.463Y-76.708
X148.463Y-116.078
X171.069Y-33.02
X171.069Y-72.39
X171.069Y-76.708
X171.069Y-116.078
T0
M30
